<svg width="9237" height="848" viewBox="0 0 9237 848" fill="none" xmlns="http://www.w3.org/2000/svg">
<path d="M1.5 845C0.671573 845 0 845.672 0 846.5C0 847.328 0.671573 848 1.5 848V846.5V845ZM9221.85 443.5C9221.02 443.5 9220.43 444.515 9220.85 445.232L9227.51 456.768C9227.92 457.485 9229.09 457.485 9229.51 456.768L9236.17 445.232C9236.58 444.515 9236 443.5 9235.17 443.5H9221.85ZM1.5 846.5V848H555.509V846.5V845H1.5V846.5ZM579.509 822.5H581.009V25.5H579.509H578.009V822.5H579.509ZM603.509 1.5V3H9204.51V1.5V0H603.509V1.5ZM9228.51 25.5H9227.01V445H9228.51H9230.01V25.5H9228.51ZM9204.51 1.5V3C9216.93 3 9227.01 13.0736 9227.01 25.5H9228.51H9230.01C9230.01 11.4167 9218.59 0 9204.51 0V1.5ZM579.509 25.5H581.009C581.009 13.0736 591.083 3 603.509 3V1.5V0C589.426 0 578.009 11.4168 578.009 25.5H579.509ZM555.509 846.5V848C569.592 848 581.009 836.583 581.009 822.5H579.509H578.009C578.009 834.926 567.936 845 555.509 845V846.5Z" fill="#F9A03F"/>
</svg>
