<svg width="463" height="47" viewBox="0 0 463 47" fill="none" xmlns="http://www.w3.org/2000/svg">
<path d="M1.5 43.7749C0.671573 43.7749 1.19209e-07 44.4464 0 45.2749C-1.19209e-07 46.1033 0.671573 46.7749 1.5 46.7749L1.5 45.2749L1.5 43.7749ZM447.728 14.4571C447.728 15.2856 448.743 15.8713 449.46 15.4571L460.996 8.79688C461.714 8.38266 461.714 7.21109 460.996 6.79688L449.46 0.136621C448.743 -0.277593 447.728 0.308194 447.728 1.13662V14.4571ZM1.5 45.2749L1.5 46.7749L215.375 46.7749V45.2749V43.7749L1.5 43.7749L1.5 45.2749ZM252.853 7.79688V9.29688H449.228V7.79688V6.29688H252.853V7.79688ZM234.114 26.5359H235.614C235.614 17.015 243.332 9.29688 252.853 9.29688V7.79688V6.29688C241.675 6.29688 232.614 15.3582 232.614 26.5359H234.114ZM215.375 45.2749V46.7749C226.553 46.7749 235.614 37.7136 235.614 26.5359H234.114H232.614C232.614 36.0567 224.896 43.7749 215.375 43.7749V45.2749Z" fill="#F9A03F"/>
</svg>
