<svg width="349" height="994" viewBox="0 0 349 994" fill="none" xmlns="http://www.w3.org/2000/svg">
<path d="M166.796 0C165.968 0 165.296 0.671573 165.296 1.5C165.296 2.32843 165.968 3 166.796 3V1.5V0ZM1.13613 978.5C0.307705 978.5 -0.278081 979.515 0.136133 980.232L6.79639 991.768C7.2106 992.485 8.38217 992.485 8.79639 991.768L15.4566 980.232C15.8709 979.515 15.2851 978.5 14.4566 978.5H1.13613ZM166.796 1.5V3H322.796V1.5V0H166.796V1.5ZM346.796 25.5H345.296V817.5H346.796H348.296V25.5H346.796ZM322.796 841.5V840H31.7964V841.5V843H322.796V841.5ZM7.79639 865.5H6.29639V980H7.79639H9.29639V865.5H7.79639ZM31.7964 841.5V840C17.7131 840 6.29639 851.417 6.29639 865.5H7.79639H9.29639C9.29639 853.074 19.37 843 31.7964 843V841.5ZM346.796 817.5H345.296C345.296 829.926 335.223 840 322.796 840V841.5V843C336.88 843 348.296 831.583 348.296 817.5H346.796ZM322.796 1.5V3C335.223 3 345.296 13.0736 345.296 25.5H346.796H348.296C348.296 11.4167 336.88 0 322.796 0V1.5Z" fill="#F9A03F"/>
</svg>
