<svg width="1106" height="84" viewBox="0 0 1106 84" fill="none" xmlns="http://www.w3.org/2000/svg">
<path d="M3 1.5C3 0.671573 2.32843 0 1.5 0C0.671573 0 0 0.671573 0 1.5H1.5H3ZM1091 82.6603C1091 83.4887 1092.01 84.0745 1092.73 83.6603L1104.27 77C1104.99 76.5858 1104.99 75.4142 1104.27 75L1092.73 68.3397C1092.01 67.9255 1091 68.5113 1091 69.3397V82.6603ZM18.5 18.5V20H1038V18.5V17H18.5V18.5ZM1062 42.5H1060.5V52H1062H1063.5V42.5H1062ZM1086 76V77.5H1092.5V76V74.5H1086V76ZM1062 52H1060.5C1060.5 66.0833 1071.92 77.5 1086 77.5V76V74.5C1073.57 74.5 1063.5 64.4264 1063.5 52H1062ZM1038 18.5V20C1050.43 20 1060.5 30.0736 1060.5 42.5H1062H1063.5C1063.5 28.4167 1052.08 17 1038 17V18.5ZM1.5 1.5H0C0 11.7173 8.28273 20 18.5 20V18.5V17C9.93959 17 3 10.0604 3 1.5H1.5Z" fill="#F9A03F"/>
</svg>
