<svg width="475" height="88" viewBox="0 0 475 88" fill="none" xmlns="http://www.w3.org/2000/svg">
<path d="M1.5 84.63C0.671573 84.63 1.19209e-07 85.3016 0 86.13C-1.19209e-07 86.9585 0.671573 87.63 1.5 87.63L1.5 86.13L1.5 84.63ZM459.499 14.4571C459.499 15.2856 460.514 15.8713 461.231 15.4571L472.767 8.79688C473.485 8.38266 473.485 7.21109 472.767 6.79688L461.231 0.136621C460.514 -0.277593 459.499 0.308194 459.499 1.13662V14.4571ZM211.499 86.1301V87.6301V86.1301ZM1.5 86.13L1.5 87.63L211.499 87.6301V86.1301V84.6301L1.5 84.63L1.5 86.13ZM235.499 62.1301H236.999V31.7969H235.499H233.999V62.1301H235.499ZM259.499 7.79688V9.29688H460.999V7.79688V6.29688H259.499V7.79688ZM235.499 31.7969H236.999C236.999 19.3705 247.073 9.29688 259.499 9.29688V7.79688V6.29688C245.416 6.29688 233.999 17.7136 233.999 31.7969H235.499ZM211.499 86.1301V87.6301C225.583 87.6301 236.999 76.2133 236.999 62.1301H235.499H233.999C233.999 74.5565 223.926 84.6301 211.499 84.6301V86.1301Z" fill="#F9A03F"/>
</svg>
