<svg width="486" height="37" viewBox="0 0 486 37" fill="none" xmlns="http://www.w3.org/2000/svg">
<path d="M1.5 33.1416C0.671573 33.1416 1.19209e-07 33.8131 0 34.6416C-1.19209e-07 35.47 0.671573 36.1416 1.5 36.1416L1.5 34.6416L1.5 33.1416ZM470.553 14.4571C470.553 15.2856 471.567 15.8713 472.285 15.4571L483.821 8.79688C484.538 8.38266 484.538 7.21109 483.821 6.79688L472.285 0.136621C471.567 -0.277593 470.553 0.308194 470.553 1.13662V14.4571ZM1.5 34.6416L1.5 36.1416L232.104 36.1416V34.6416V33.1416L1.5 33.1416L1.5 34.6416ZM258.949 7.79688V9.29688H472.053V7.79688V6.29688H258.949V7.79688ZM245.526 21.2192H247.026C247.026 14.6347 252.364 9.29688 258.949 9.29688V7.79688V6.29688C250.707 6.29688 244.026 12.9778 244.026 21.2192H245.526ZM232.104 34.6416V36.1416C240.345 36.1416 247.026 29.4606 247.026 21.2192H245.526H244.026C244.026 27.8038 238.689 33.1416 232.104 33.1416V34.6416Z" fill="#F9A03F"/>
</svg>
