<svg width="475" height="84" viewBox="0 0 475 84" fill="none" xmlns="http://www.w3.org/2000/svg">
<path d="M1.5 80.0673C0.671573 80.0673 0 80.7388 0 81.5673C0 82.3957 0.671573 83.0673 1.5 83.0673V81.5673V80.0673ZM459.335 14.4571C459.335 15.2856 460.349 15.8713 461.067 15.4571L472.603 8.79688C473.32 8.38266 473.32 7.21109 472.603 6.79688L461.067 0.136621C460.349 -0.277593 459.335 0.308194 459.335 1.13662V14.4571ZM1.5 81.5673V83.0673H208.335V81.5673V80.0673H1.5V81.5673ZM232.335 57.5673H233.835V31.7969H232.335H230.835V57.5673H232.335ZM256.335 7.79688V9.29688H460.835V7.79688V6.29688H256.335V7.79688ZM232.335 31.7969H233.835C233.835 19.3705 243.908 9.29688 256.335 9.29688V7.79688V6.29688C242.251 6.29688 230.835 17.7136 230.835 31.7969H232.335ZM208.335 81.5673V83.0673C222.418 83.0673 233.835 71.6505 233.835 57.5673H232.335H230.835C230.835 69.9937 220.761 80.0673 208.335 80.0673V81.5673Z" fill="#F9A03F"/>
</svg>
