<svg width="159" height="638" viewBox="0 0 159 638" fill="none" xmlns="http://www.w3.org/2000/svg">
<path d="M1.5 0C0.671573 0 0 0.671573 0 1.5C0 2.32843 0.671573 3 1.5 3V1.5V0ZM143.84 622.5C143.011 622.5 142.426 623.515 142.84 624.232L149.5 635.768C149.914 636.485 151.086 636.485 151.5 635.768L158.16 624.232C158.574 623.515 157.989 622.5 157.16 622.5H143.84ZM1.5 1.5V3H126.5V1.5V0H1.5V1.5ZM150.5 25.5H149V624H150.5H152V25.5H150.5ZM126.5 1.5V3C138.926 3 149 13.0736 149 25.5H150.5H152C152 11.4167 140.583 0 126.5 0V1.5Z" fill="#F9A03F"/>
</svg>
