<svg width="1440" height="100" viewBox="0 0 1440 100" fill="none" xmlns="http://www.w3.org/2000/svg">
<rect width="1440" height="100" rx="14" fill="black"/>
<path d="M34.2955 62V38.7273H38.5114V48.5795H49.2955V38.7273H53.5227V62H49.2955V52.1136H38.5114V62H34.2955ZM65.5398 62.3409C63.8352 62.3409 62.358 61.9659 61.108 61.2159C59.858 60.4659 58.8883 59.4167 58.1989 58.0682C57.517 56.7197 57.1761 55.1439 57.1761 53.3409C57.1761 51.5379 57.517 49.9583 58.1989 48.6023C58.8883 47.2462 59.858 46.1932 61.108 45.4432C62.358 44.6932 63.8352 44.3182 65.5398 44.3182C67.2443 44.3182 68.7216 44.6932 69.9716 45.4432C71.2216 46.1932 72.1875 47.2462 72.8693 48.6023C73.5587 49.9583 73.9034 51.5379 73.9034 53.3409C73.9034 55.1439 73.5587 56.7197 72.8693 58.0682C72.1875 59.4167 71.2216 60.4659 69.9716 61.2159C68.7216 61.9659 67.2443 62.3409 65.5398 62.3409ZM65.5625 59.0455C66.4867 59.0455 67.2595 58.7917 67.8807 58.2841C68.5019 57.7689 68.964 57.0795 69.267 56.2159C69.5777 55.3523 69.733 54.3902 69.733 53.3295C69.733 52.2614 69.5777 51.2955 69.267 50.4318C68.964 49.5606 68.5019 48.8674 67.8807 48.3523C67.2595 47.8371 66.4867 47.5795 65.5625 47.5795C64.6155 47.5795 63.8277 47.8371 63.1989 48.3523C62.5777 48.8674 62.1117 49.5606 61.8011 50.4318C61.4981 51.2955 61.3466 52.2614 61.3466 53.3295C61.3466 54.3902 61.4981 55.3523 61.8011 56.2159C62.1117 57.0795 62.5777 57.7689 63.1989 58.2841C63.8277 58.7917 64.6155 59.0455 65.5625 59.0455ZM77.3949 62V44.5455H81.3267V47.5114H81.5312C81.8949 46.5114 82.4972 45.7311 83.3381 45.1705C84.179 44.6023 85.1828 44.3182 86.3494 44.3182C87.5312 44.3182 88.5275 44.6061 89.3381 45.1818C90.1563 45.75 90.732 46.5265 91.0653 47.5114H91.2472C91.6335 46.5417 92.285 45.7689 93.2017 45.1932C94.1259 44.6098 95.2206 44.3182 96.4858 44.3182C98.0919 44.3182 99.4025 44.8258 100.418 45.8409C101.433 46.8561 101.94 48.3371 101.94 50.2841V62H97.8153V50.9205C97.8153 49.8371 97.5275 49.0455 96.9517 48.5455C96.3759 48.0379 95.6714 47.7841 94.8381 47.7841C93.8456 47.7841 93.0691 48.0947 92.5085 48.7159C91.9555 49.3295 91.679 50.1288 91.679 51.1136V62H87.6449V50.75C87.6449 49.8485 87.3722 49.1288 86.8267 48.5909C86.2888 48.053 85.5843 47.7841 84.7131 47.7841C84.1222 47.7841 83.5843 47.9356 83.0994 48.2386C82.6146 48.5341 82.2282 48.9545 81.9403 49.5C81.6525 50.0379 81.5085 50.6667 81.5085 51.3864V62H77.3949ZM113.841 62.3409C112.091 62.3409 110.58 61.9773 109.307 61.25C108.042 60.5152 107.068 59.4773 106.386 58.1364C105.705 56.7879 105.364 55.2008 105.364 53.375C105.364 51.5795 105.705 50.0038 106.386 48.6477C107.076 47.2841 108.038 46.2235 109.273 45.4659C110.508 44.7008 111.958 44.3182 113.625 44.3182C114.701 44.3182 115.716 44.4924 116.67 44.8409C117.633 45.1818 118.481 45.7121 119.216 46.4318C119.958 47.1515 120.542 48.0682 120.966 49.1818C121.39 50.2879 121.602 51.6061 121.602 53.1364V54.3977H107.295V51.625H117.659C117.652 50.8371 117.481 50.1364 117.148 49.5227C116.814 48.9015 116.348 48.4129 115.75 48.0568C115.159 47.7008 114.47 47.5227 113.682 47.5227C112.841 47.5227 112.102 47.7273 111.466 48.1364C110.83 48.5379 110.333 49.0682 109.977 49.7273C109.629 50.3788 109.451 51.0947 109.443 51.875V54.2955C109.443 55.3106 109.629 56.1818 110 56.9091C110.371 57.6288 110.89 58.1818 111.557 58.5682C112.223 58.947 113.004 59.1364 113.898 59.1364C114.496 59.1364 115.038 59.053 115.523 58.8864C116.008 58.7121 116.428 58.4583 116.784 58.125C117.14 57.7917 117.409 57.3788 117.591 56.8864L121.432 57.3182C121.189 58.3333 120.727 59.2197 120.045 59.9773C119.371 60.7273 118.508 61.3106 117.455 61.7273C116.402 62.1364 115.197 62.3409 113.841 62.3409ZM147.27 61.3864L144.929 59.0682L151.94 52.0568H134.906V48.6705H151.94L144.929 41.6705L147.27 39.3409L158.293 50.3636L147.27 61.3864ZM192.466 50.3636C192.466 52.8712 191.996 55.0189 191.057 56.8068C190.125 58.5871 188.852 59.9508 187.239 60.8977C185.633 61.8447 183.811 62.3182 181.773 62.3182C179.735 62.3182 177.909 61.8447 176.295 60.8977C174.689 59.9432 173.417 58.5758 172.477 56.7955C171.545 55.0076 171.08 52.8636 171.08 50.3636C171.08 47.8561 171.545 45.7121 172.477 43.9318C173.417 42.1439 174.689 40.7765 176.295 39.8295C177.909 38.8826 179.735 38.4091 181.773 38.4091C183.811 38.4091 185.633 38.8826 187.239 39.8295C188.852 40.7765 190.125 42.1439 191.057 43.9318C191.996 45.7121 192.466 47.8561 192.466 50.3636ZM188.227 50.3636C188.227 48.5985 187.951 47.1098 187.398 45.8977C186.852 44.678 186.095 43.7576 185.125 43.1364C184.155 42.5076 183.038 42.1932 181.773 42.1932C180.508 42.1932 179.39 42.5076 178.42 43.1364C177.451 43.7576 176.689 44.678 176.136 45.8977C175.591 47.1098 175.318 48.5985 175.318 50.3636C175.318 52.1288 175.591 53.6212 176.136 54.8409C176.689 56.053 177.451 56.9735 178.42 57.6023C179.39 58.2235 180.508 58.5341 181.773 58.5341C183.038 58.5341 184.155 58.2235 185.125 57.6023C186.095 56.9735 186.852 56.053 187.398 54.8409C187.951 53.6212 188.227 52.1288 188.227 50.3636ZM196.27 68.5455V44.5455H200.315V47.4318H200.554C200.766 47.0076 201.065 46.5568 201.452 46.0795C201.838 45.5947 202.361 45.1818 203.02 44.8409C203.679 44.4924 204.52 44.3182 205.543 44.3182C206.891 44.3182 208.107 44.6629 209.19 45.3523C210.281 46.0341 211.145 47.0455 211.781 48.3864C212.425 49.7197 212.747 51.3561 212.747 53.2955C212.747 55.2121 212.433 56.8409 211.804 58.1818C211.175 59.5227 210.319 60.5455 209.236 61.25C208.152 61.9545 206.925 62.3068 205.554 62.3068C204.554 62.3068 203.724 62.1402 203.065 61.8068C202.406 61.4735 201.876 61.072 201.474 60.6023C201.08 60.125 200.774 59.6742 200.554 59.25H200.384V68.5455H196.27ZM200.304 53.2727C200.304 54.4015 200.463 55.3902 200.781 56.2386C201.107 57.0871 201.573 57.75 202.179 58.2273C202.793 58.697 203.535 58.9318 204.406 58.9318C205.315 58.9318 206.077 58.6894 206.69 58.2045C207.304 57.7121 207.766 57.0417 208.077 56.1932C208.395 55.3371 208.554 54.3636 208.554 53.2727C208.554 52.1894 208.399 51.2273 208.088 50.3864C207.777 49.5455 207.315 48.8864 206.702 48.4091C206.088 47.9318 205.323 47.6932 204.406 47.6932C203.527 47.6932 202.781 47.9242 202.168 48.3864C201.554 48.8485 201.088 49.4962 200.77 50.3295C200.459 51.1629 200.304 52.1439 200.304 53.2727ZM223.997 62.3409C222.247 62.3409 220.736 61.9773 219.463 61.25C218.198 60.5152 217.224 59.4773 216.543 58.1364C215.861 56.7879 215.52 55.2008 215.52 53.375C215.52 51.5795 215.861 50.0038 216.543 48.6477C217.232 47.2841 218.194 46.2235 219.429 45.4659C220.664 44.7008 222.115 44.3182 223.781 44.3182C224.857 44.3182 225.872 44.4924 226.827 44.8409C227.789 45.1818 228.637 45.7121 229.372 46.4318C230.115 47.1515 230.698 48.0682 231.122 49.1818C231.546 50.2879 231.759 51.6061 231.759 53.1364V54.3977H217.452V51.625H227.815C227.808 50.8371 227.637 50.1364 227.304 49.5227C226.971 48.9015 226.505 48.4129 225.906 48.0568C225.315 47.7008 224.626 47.5227 223.838 47.5227C222.997 47.5227 222.259 47.7273 221.622 48.1364C220.986 48.5379 220.49 49.0682 220.134 49.7273C219.785 50.3788 219.607 51.0947 219.599 51.875V54.2955C219.599 55.3106 219.785 56.1818 220.156 56.9091C220.527 57.6288 221.046 58.1818 221.713 58.5682C222.38 58.947 223.16 59.1364 224.054 59.1364C224.652 59.1364 225.194 59.053 225.679 58.8864C226.164 58.7121 226.584 58.4583 226.94 58.125C227.296 57.7917 227.565 57.3788 227.747 56.8864L231.588 57.3182C231.346 58.3333 230.884 59.2197 230.202 59.9773C229.527 60.7273 228.664 61.3106 227.611 61.7273C226.558 62.1364 225.353 62.3409 223.997 62.3409ZM239.352 51.7727V62H235.239V44.5455H239.17V47.5114H239.375C239.777 46.5341 240.417 45.7576 241.295 45.1818C242.182 44.6061 243.277 44.3182 244.58 44.3182C245.784 44.3182 246.833 44.5758 247.727 45.0909C248.629 45.6061 249.326 46.3523 249.818 47.3295C250.318 48.3068 250.564 49.4924 250.557 50.8864V62H246.443V51.5227C246.443 50.3561 246.14 49.4432 245.534 48.7841C244.936 48.125 244.106 47.7955 243.045 47.7955C242.326 47.7955 241.686 47.9545 241.125 48.2727C240.572 48.5833 240.136 49.0341 239.818 49.625C239.508 50.2159 239.352 50.9318 239.352 51.7727ZM262.676 68.5455V44.5455H266.722V47.4318H266.96C267.172 47.0076 267.472 46.5568 267.858 46.0795C268.244 45.5947 268.767 45.1818 269.426 44.8409C270.085 44.4924 270.926 44.3182 271.949 44.3182C273.297 44.3182 274.513 44.6629 275.597 45.3523C276.688 46.0341 277.551 47.0455 278.188 48.3864C278.831 49.7197 279.153 51.3561 279.153 53.2955C279.153 55.2121 278.839 56.8409 278.21 58.1818C277.581 59.5227 276.725 60.5455 275.642 61.25C274.559 61.9545 273.331 62.3068 271.96 62.3068C270.96 62.3068 270.131 62.1402 269.472 61.8068C268.813 61.4735 268.282 61.072 267.881 60.6023C267.487 60.125 267.18 59.6742 266.96 59.25H266.79V68.5455H262.676ZM266.71 53.2727C266.71 54.4015 266.869 55.3902 267.188 56.2386C267.513 57.0871 267.979 57.75 268.585 58.2273C269.199 58.697 269.941 58.9318 270.812 58.9318C271.722 58.9318 272.483 58.6894 273.097 58.2045C273.71 57.7121 274.172 57.0417 274.483 56.1932C274.801 55.3371 274.96 54.3636 274.96 53.2727C274.96 52.1894 274.805 51.2273 274.494 50.3864C274.184 49.5455 273.722 48.8864 273.108 48.4091C272.494 47.9318 271.729 47.6932 270.812 47.6932C269.934 47.6932 269.188 47.9242 268.574 48.3864C267.96 48.8485 267.494 49.4962 267.176 50.3295C266.866 51.1629 266.71 52.1439 266.71 53.2727ZM282.676 62V44.5455H286.665V47.4545H286.847C287.165 46.447 287.71 45.6705 288.483 45.125C289.263 44.572 290.153 44.2955 291.153 44.2955C291.381 44.2955 291.634 44.3068 291.915 44.3295C292.203 44.3447 292.441 44.3712 292.631 44.4091V48.1932C292.456 48.1326 292.18 48.0795 291.801 48.0341C291.43 47.9811 291.07 47.9545 290.722 47.9545C289.972 47.9545 289.297 48.1174 288.699 48.4432C288.108 48.7614 287.642 49.2045 287.301 49.7727C286.96 50.3409 286.79 50.9962 286.79 51.7386V62H282.676ZM302.259 62.3409C300.554 62.3409 299.077 61.9659 297.827 61.2159C296.577 60.4659 295.607 59.4167 294.918 58.0682C294.236 56.7197 293.895 55.1439 293.895 53.3409C293.895 51.5379 294.236 49.9583 294.918 48.6023C295.607 47.2462 296.577 46.1932 297.827 45.4432C299.077 44.6932 300.554 44.3182 302.259 44.3182C303.963 44.3182 305.44 44.6932 306.69 45.4432C307.94 46.1932 308.906 47.2462 309.588 48.6023C310.277 49.9583 310.622 51.5379 310.622 53.3409C310.622 55.1439 310.277 56.7197 309.588 58.0682C308.906 59.4167 307.94 60.4659 306.69 61.2159C305.44 61.9659 303.963 62.3409 302.259 62.3409ZM302.281 59.0455C303.205 59.0455 303.978 58.7917 304.599 58.2841C305.221 57.7689 305.683 57.0795 305.986 56.2159C306.296 55.3523 306.452 54.3902 306.452 53.3295C306.452 52.2614 306.296 51.2955 305.986 50.4318C305.683 49.5606 305.221 48.8674 304.599 48.3523C303.978 47.8371 303.205 47.5795 302.281 47.5795C301.334 47.5795 300.546 47.8371 299.918 48.3523C299.296 48.8674 298.83 49.5606 298.52 50.4318C298.217 51.2955 298.065 52.2614 298.065 53.3295C298.065 54.3902 298.217 55.3523 298.52 56.2159C298.83 57.0795 299.296 57.7689 299.918 58.2841C300.546 58.7917 301.334 59.0455 302.281 59.0455ZM322.955 44.5455V47.7273H312.636V44.5455H322.955ZM315.216 62V42.8977C315.216 41.7235 315.458 40.7462 315.943 39.9659C316.436 39.1856 317.095 38.6023 317.92 38.2159C318.746 37.8295 319.663 37.6364 320.67 37.6364C321.383 37.6364 322.015 37.6932 322.568 37.8068C323.121 37.9205 323.53 38.0227 323.795 38.1136L322.977 41.2955C322.803 41.2424 322.583 41.1894 322.318 41.1364C322.053 41.0758 321.758 41.0455 321.432 41.0455C320.667 41.0455 320.125 41.2311 319.807 41.6023C319.496 41.9659 319.341 42.4886 319.341 43.1705V62H315.216ZM326.176 62V44.5455H330.29V62H326.176ZM328.244 42.0682C327.593 42.0682 327.032 41.8523 326.562 41.4205C326.093 40.9811 325.858 40.4545 325.858 39.8409C325.858 39.2197 326.093 38.6932 326.562 38.2614C327.032 37.822 327.593 37.6023 328.244 37.6023C328.903 37.6023 329.464 37.822 329.926 38.2614C330.396 38.6932 330.631 39.2197 330.631 39.8409C330.631 40.4545 330.396 40.9811 329.926 41.4205C329.464 41.8523 328.903 42.0682 328.244 42.0682ZM338.634 38.7273V62H334.52V38.7273H338.634ZM350.591 62.3409C348.841 62.3409 347.33 61.9773 346.057 61.25C344.792 60.5152 343.818 59.4773 343.136 58.1364C342.455 56.7879 342.114 55.2008 342.114 53.375C342.114 51.5795 342.455 50.0038 343.136 48.6477C343.826 47.2841 344.788 46.2235 346.023 45.4659C347.258 44.7008 348.708 44.3182 350.375 44.3182C351.451 44.3182 352.466 44.4924 353.42 44.8409C354.383 45.1818 355.231 45.7121 355.966 46.4318C356.708 47.1515 357.292 48.0682 357.716 49.1818C358.14 50.2879 358.352 51.6061 358.352 53.1364V54.3977H344.045V51.625H354.409C354.402 50.8371 354.231 50.1364 353.898 49.5227C353.564 48.9015 353.098 48.4129 352.5 48.0568C351.909 47.7008 351.22 47.5227 350.432 47.5227C349.591 47.5227 348.852 47.7273 348.216 48.1364C347.58 48.5379 347.083 49.0682 346.727 49.7273C346.379 50.3788 346.201 51.0947 346.193 51.875V54.2955C346.193 55.3106 346.379 56.1818 346.75 56.9091C347.121 57.6288 347.64 58.1818 348.307 58.5682C348.973 58.947 349.754 59.1364 350.648 59.1364C351.246 59.1364 351.788 59.053 352.273 58.8864C352.758 58.7121 353.178 58.4583 353.534 58.125C353.89 57.7917 354.159 57.3788 354.341 56.8864L358.182 57.3182C357.939 58.3333 357.477 59.2197 356.795 59.9773C356.121 60.7273 355.258 61.3106 354.205 61.7273C353.152 62.1364 351.947 62.3409 350.591 62.3409ZM377.889 62V38.7273H386.616C388.404 38.7273 389.904 39.0606 391.116 39.7273C392.336 40.3939 393.257 41.3106 393.878 42.4773C394.507 43.6364 394.821 44.9545 394.821 46.4318C394.821 47.9242 394.507 49.25 393.878 50.4091C393.249 51.5682 392.321 52.4811 391.094 53.1477C389.866 53.8068 388.355 54.1364 386.56 54.1364H380.776V50.6705H385.991C387.037 50.6705 387.893 50.4886 388.56 50.125C389.226 49.7614 389.719 49.2614 390.037 48.625C390.363 47.9886 390.526 47.2576 390.526 46.4318C390.526 45.6061 390.363 44.8788 390.037 44.25C389.719 43.6212 389.223 43.1326 388.548 42.7841C387.882 42.428 387.022 42.25 385.969 42.25H382.105V62H377.889ZM419.278 50.3636C419.278 52.8712 418.809 55.0189 417.869 56.8068C416.938 58.5871 415.665 59.9508 414.051 60.8977C412.445 61.8447 410.623 62.3182 408.585 62.3182C406.547 62.3182 404.722 61.8447 403.108 60.8977C401.502 59.9432 400.229 58.5758 399.29 56.7955C398.358 55.0076 397.892 52.8636 397.892 50.3636C397.892 47.8561 398.358 45.7121 399.29 43.9318C400.229 42.1439 401.502 40.7765 403.108 39.8295C404.722 38.8826 406.547 38.4091 408.585 38.4091C410.623 38.4091 412.445 38.8826 414.051 39.8295C415.665 40.7765 416.938 42.1439 417.869 43.9318C418.809 45.7121 419.278 47.8561 419.278 50.3636ZM415.04 50.3636C415.04 48.5985 414.763 47.1098 414.21 45.8977C413.665 44.678 412.907 43.7576 411.938 43.1364C410.968 42.5076 409.85 42.1932 408.585 42.1932C407.32 42.1932 406.203 42.5076 405.233 43.1364C404.263 43.7576 403.502 44.678 402.949 45.8977C402.403 47.1098 402.131 48.5985 402.131 50.3636C402.131 52.1288 402.403 53.6212 402.949 54.8409C403.502 56.053 404.263 56.9735 405.233 57.6023C406.203 58.2235 407.32 58.5341 408.585 58.5341C409.85 58.5341 410.968 58.2235 411.938 57.6023C412.907 56.9735 413.665 56.053 414.21 54.8409C414.763 53.6212 415.04 52.1288 415.04 50.3636ZM423.264 62V38.7273H431.991C433.779 38.7273 435.279 39.0606 436.491 39.7273C437.711 40.3939 438.632 41.3106 439.253 42.4773C439.882 43.6364 440.196 44.9545 440.196 46.4318C440.196 47.9242 439.882 49.25 439.253 50.4091C438.624 51.5682 437.696 52.4811 436.469 53.1477C435.241 53.8068 433.73 54.1364 431.935 54.1364H426.151V50.6705H431.366C432.412 50.6705 433.268 50.4886 433.935 50.125C434.601 49.7614 435.094 49.2614 435.412 48.625C435.738 47.9886 435.901 47.2576 435.901 46.4318C435.901 45.6061 435.738 44.8788 435.412 44.25C435.094 43.6212 434.598 43.1326 433.923 42.7841C433.257 42.428 432.397 42.25 431.344 42.25H427.48V62H423.264ZM466.466 38.7273H470.682V53.9318C470.682 55.5985 470.288 57.0644 469.5 58.3295C468.72 59.5947 467.621 60.5833 466.205 61.2955C464.788 62 463.133 62.3523 461.239 62.3523C459.337 62.3523 457.678 62 456.261 61.2955C454.845 60.5833 453.746 59.5947 452.966 58.3295C452.186 57.0644 451.795 55.5985 451.795 53.9318V38.7273H456.011V53.5795C456.011 54.5492 456.223 55.4129 456.648 56.1705C457.08 56.928 457.686 57.5227 458.466 57.9545C459.246 58.3788 460.17 58.5909 461.239 58.5909C462.307 58.5909 463.231 58.3788 464.011 57.9545C464.799 57.5227 465.405 56.928 465.83 56.1705C466.254 55.4129 466.466 54.5492 466.466 53.5795V38.7273ZM475.264 62V38.7273H483.991C485.779 38.7273 487.279 39.0606 488.491 39.7273C489.711 40.3939 490.632 41.3106 491.253 42.4773C491.882 43.6364 492.196 44.9545 492.196 46.4318C492.196 47.9242 491.882 49.25 491.253 50.4091C490.624 51.5682 489.696 52.4811 488.469 53.1477C487.241 53.8068 485.73 54.1364 483.935 54.1364H478.151V50.6705H483.366C484.412 50.6705 485.268 50.4886 485.935 50.125C486.601 49.7614 487.094 49.2614 487.412 48.625C487.738 47.9886 487.901 47.2576 487.901 46.4318C487.901 45.6061 487.738 44.8788 487.412 44.25C487.094 43.6212 486.598 43.1326 485.923 42.7841C485.257 42.428 484.397 42.25 483.344 42.25H479.48V62H475.264Z" fill="#FBFBFB"/>
</svg>
