<svg width="2920" height="100" viewBox="0 0 2920 100" fill="none" xmlns="http://www.w3.org/2000/svg">
<path d="M0 14C0 6.26801 6.26801 0 14 0H2906C2913.73 0 2920 6.26801 2920 14V86C2920 93.732 2913.73 100 2906 100H14.0001C6.26806 100 0 93.732 0 86V14Z" fill="black"/>
<path d="M37.2841 62H32.7841L40.9773 38.7273H46.1818L54.3864 62H49.8864L43.6705 43.5H43.4886L37.2841 62ZM37.4318 52.875H49.7045V56.2614H37.4318V52.875ZM64.3523 62.3409C62.6098 62.3409 61.1136 61.9583 59.8636 61.1932C58.6212 60.428 57.6629 59.3712 56.9886 58.0227C56.322 56.6667 55.9886 55.1061 55.9886 53.3409C55.9886 51.5682 56.3295 50.0038 57.0114 48.6477C57.6932 47.2841 58.6553 46.2235 59.8977 45.4659C61.1477 44.7008 62.625 44.3182 64.3295 44.3182C65.7462 44.3182 67 44.5795 68.0909 45.1023C69.1894 45.6174 70.0644 46.3485 70.7159 47.2955C71.3674 48.2348 71.7386 49.3333 71.8295 50.5909H67.8977C67.7386 49.75 67.3598 49.0492 66.7614 48.4886C66.1705 47.9205 65.3788 47.6364 64.3864 47.6364C63.5455 47.6364 62.8068 47.8636 62.1705 48.3182C61.5341 48.7652 61.0379 49.4091 60.6818 50.25C60.3333 51.0909 60.1591 52.0985 60.1591 53.2727C60.1591 54.4621 60.3333 55.4848 60.6818 56.3409C61.0303 57.1894 61.5189 57.8447 62.1477 58.3068C62.7841 58.7614 63.5303 58.9886 64.3864 58.9886C64.9924 58.9886 65.5341 58.875 66.0114 58.6477C66.4962 58.4129 66.9015 58.0758 67.2273 57.6364C67.553 57.197 67.7765 56.6629 67.8977 56.0341H71.8295C71.7311 57.2689 71.3674 58.3636 70.7386 59.3182C70.1098 60.2652 69.2538 61.0076 68.1705 61.5455C67.0871 62.0758 65.8144 62.3409 64.3523 62.3409ZM82.821 62.3409C81.0786 62.3409 79.5824 61.9583 78.3324 61.1932C77.09 60.428 76.1316 59.3712 75.4574 58.0227C74.7907 56.6667 74.4574 55.1061 74.4574 53.3409C74.4574 51.5682 74.7983 50.0038 75.4801 48.6477C76.1619 47.2841 77.1241 46.2235 78.3665 45.4659C79.6165 44.7008 81.0938 44.3182 82.7983 44.3182C84.215 44.3182 85.4688 44.5795 86.5597 45.1023C87.6581 45.6174 88.5331 46.3485 89.1847 47.2955C89.8362 48.2348 90.2074 49.3333 90.2983 50.5909H86.3665C86.2074 49.75 85.8286 49.0492 85.2301 48.4886C84.6392 47.9205 83.8475 47.6364 82.8551 47.6364C82.0142 47.6364 81.2756 47.8636 80.6392 48.3182C80.0028 48.7652 79.5066 49.4091 79.1506 50.25C78.8021 51.0909 78.6278 52.0985 78.6278 53.2727C78.6278 54.4621 78.8021 55.4848 79.1506 56.3409C79.4991 57.1894 79.9877 57.8447 80.6165 58.3068C81.2528 58.7614 81.9991 58.9886 82.8551 58.9886C83.4612 58.9886 84.0028 58.875 84.4801 58.6477C84.965 58.4129 85.3703 58.0758 85.696 57.6364C86.0218 57.197 86.2453 56.6629 86.3665 56.0341H90.2983C90.1998 57.2689 89.8362 58.3636 89.2074 59.3182C88.5786 60.2652 87.7225 61.0076 86.6392 61.5455C85.5559 62.0758 84.2831 62.3409 82.821 62.3409ZM101.29 62.3409C99.5852 62.3409 98.108 61.9659 96.858 61.2159C95.608 60.4659 94.6383 59.4167 93.9489 58.0682C93.267 56.7197 92.9261 55.1439 92.9261 53.3409C92.9261 51.5379 93.267 49.9583 93.9489 48.6023C94.6383 47.2462 95.608 46.1932 96.858 45.4432C98.108 44.6932 99.5852 44.3182 101.29 44.3182C102.994 44.3182 104.472 44.6932 105.722 45.4432C106.972 46.1932 107.938 47.2462 108.619 48.6023C109.309 49.9583 109.653 51.5379 109.653 53.3409C109.653 55.1439 109.309 56.7197 108.619 58.0682C107.938 59.4167 106.972 60.4659 105.722 61.2159C104.472 61.9659 102.994 62.3409 101.29 62.3409ZM101.312 59.0455C102.237 59.0455 103.009 58.7917 103.631 58.2841C104.252 57.7689 104.714 57.0795 105.017 56.2159C105.328 55.3523 105.483 54.3902 105.483 53.3295C105.483 52.2614 105.328 51.2955 105.017 50.4318C104.714 49.5606 104.252 48.8674 103.631 48.3523C103.009 47.8371 102.237 47.5795 101.312 47.5795C100.366 47.5795 99.5777 47.8371 98.9489 48.3523C98.3277 48.8674 97.8617 49.5606 97.5511 50.4318C97.2481 51.2955 97.0966 52.2614 97.0966 53.3295C97.0966 54.3902 97.2481 55.3523 97.5511 56.2159C97.8617 57.0795 98.3277 57.7689 98.9489 58.2841C99.5777 58.7917 100.366 59.0455 101.312 59.0455ZM124.27 54.6591V44.5455H128.384V62H124.395V58.8977H124.213C123.819 59.875 123.171 60.6742 122.27 61.2955C121.376 61.9167 120.274 62.2273 118.963 62.2273C117.819 62.2273 116.808 61.9735 115.929 61.4659C115.058 60.9508 114.376 60.2045 113.884 59.2273C113.391 58.2424 113.145 57.053 113.145 55.6591V44.5455H117.259V55.0227C117.259 56.1288 117.562 57.0076 118.168 57.6591C118.774 58.3106 119.569 58.6364 120.554 58.6364C121.16 58.6364 121.747 58.4886 122.315 58.1932C122.884 57.8977 123.349 57.4583 123.713 56.875C124.084 56.2841 124.27 55.5455 124.27 54.6591ZM136.727 51.7727V62H132.614V44.5455H136.545V47.5114H136.75C137.152 46.5341 137.792 45.7576 138.67 45.1818C139.557 44.6061 140.652 44.3182 141.955 44.3182C143.159 44.3182 144.208 44.5758 145.102 45.0909C146.004 45.6061 146.701 46.3523 147.193 47.3295C147.693 48.3068 147.939 49.4924 147.932 50.8864V62H143.818V51.5227C143.818 50.3561 143.515 49.4432 142.909 48.7841C142.311 48.125 141.481 47.7955 140.42 47.7955C139.701 47.7955 139.061 47.9545 138.5 48.2727C137.947 48.5833 137.511 49.0341 137.193 49.625C136.883 50.2159 136.727 50.9318 136.727 51.7727ZM160.83 44.5455V47.7273H150.795V44.5455H160.83ZM153.273 40.3636H157.386V56.75C157.386 57.303 157.47 57.7273 157.636 58.0227C157.811 58.3106 158.038 58.5076 158.318 58.6136C158.598 58.7197 158.909 58.7727 159.25 58.7727C159.508 58.7727 159.742 58.7538 159.955 58.7159C160.174 58.678 160.341 58.6439 160.455 58.6136L161.148 61.8295C160.928 61.9053 160.614 61.9886 160.205 62.0795C159.803 62.1705 159.311 62.2235 158.727 62.2386C157.697 62.2689 156.769 62.1136 155.943 61.7727C155.117 61.4242 154.462 60.8864 153.977 60.1591C153.5 59.4318 153.265 58.5227 153.273 57.4318V40.3636ZM186.003 49.1591L182.253 49.5682C182.147 49.1894 181.961 48.8333 181.696 48.5C181.438 48.1667 181.09 47.8977 180.651 47.6932C180.211 47.4886 179.673 47.3864 179.037 47.3864C178.181 47.3864 177.461 47.572 176.878 47.9432C176.302 48.3144 176.018 48.7955 176.026 49.3864C176.018 49.8939 176.204 50.3068 176.582 50.625C176.969 50.9432 177.605 51.2045 178.491 51.4091L181.469 52.0455C183.12 52.4015 184.348 52.9659 185.151 53.7386C185.961 54.5114 186.37 55.5227 186.378 56.7727C186.37 57.8712 186.048 58.8409 185.412 59.6818C184.783 60.5152 183.908 61.1667 182.787 61.6364C181.666 62.1061 180.378 62.3409 178.923 62.3409C176.787 62.3409 175.067 61.8939 173.764 61C172.461 60.0985 171.685 58.8447 171.435 57.2386L175.446 56.8523C175.628 57.6402 176.014 58.2348 176.605 58.6364C177.196 59.0379 177.965 59.2386 178.912 59.2386C179.889 59.2386 180.673 59.0379 181.264 58.6364C181.863 58.2348 182.162 57.7386 182.162 57.1477C182.162 56.6477 181.969 56.2348 181.582 55.9091C181.204 55.5833 180.613 55.3333 179.81 55.1591L176.832 54.5341C175.158 54.1856 173.92 53.5985 173.116 52.7727C172.313 51.9394 171.916 50.8864 171.923 49.6136C171.916 48.5379 172.207 47.6061 172.798 46.8182C173.397 46.0227 174.226 45.4091 175.287 44.9773C176.355 44.5379 177.586 44.3182 178.98 44.3182C181.026 44.3182 182.635 44.7538 183.81 45.625C184.991 46.4962 185.723 47.6742 186.003 49.1591ZM197.497 62.3409C195.747 62.3409 194.236 61.9773 192.963 61.25C191.698 60.5152 190.724 59.4773 190.043 58.1364C189.361 56.7879 189.02 55.2008 189.02 53.375C189.02 51.5795 189.361 50.0038 190.043 48.6477C190.732 47.2841 191.694 46.2235 192.929 45.4659C194.164 44.7008 195.615 44.3182 197.281 44.3182C198.357 44.3182 199.372 44.4924 200.327 44.8409C201.289 45.1818 202.137 45.7121 202.872 46.4318C203.615 47.1515 204.198 48.0682 204.622 49.1818C205.046 50.2879 205.259 51.6061 205.259 53.1364V54.3977H190.952V51.625H201.315C201.308 50.8371 201.137 50.1364 200.804 49.5227C200.471 48.9015 200.005 48.4129 199.406 48.0568C198.815 47.7008 198.126 47.5227 197.338 47.5227C196.497 47.5227 195.759 47.7273 195.122 48.1364C194.486 48.5379 193.99 49.0682 193.634 49.7273C193.285 50.3788 193.107 51.0947 193.099 51.875V54.2955C193.099 55.3106 193.285 56.1818 193.656 56.9091C194.027 57.6288 194.546 58.1818 195.213 58.5682C195.88 58.947 196.66 59.1364 197.554 59.1364C198.152 59.1364 198.694 59.053 199.179 58.8864C199.664 58.7121 200.084 58.4583 200.44 58.125C200.796 57.7917 201.065 57.3788 201.247 56.8864L205.088 57.3182C204.846 58.3333 204.384 59.2197 203.702 59.9773C203.027 60.7273 202.164 61.3106 201.111 61.7273C200.058 62.1364 198.853 62.3409 197.497 62.3409ZM217.455 44.5455V47.7273H207.42V44.5455H217.455ZM209.898 40.3636H214.011V56.75C214.011 57.303 214.095 57.7273 214.261 58.0227C214.436 58.3106 214.663 58.5076 214.943 58.6136C215.223 58.7197 215.534 58.7727 215.875 58.7727C216.133 58.7727 216.367 58.7538 216.58 58.7159C216.799 58.678 216.966 58.6439 217.08 58.6136L217.773 61.8295C217.553 61.9053 217.239 61.9886 216.83 62.0795C216.428 62.1705 215.936 62.2235 215.352 62.2386C214.322 62.2689 213.394 62.1136 212.568 61.7727C211.742 61.4242 211.087 60.8864 210.602 60.1591C210.125 59.4318 209.89 58.5227 209.898 57.4318V40.3636ZM229.611 44.5455V47.7273H219.577V44.5455H229.611ZM222.054 40.3636H226.168V56.75C226.168 57.303 226.251 57.7273 226.418 58.0227C226.592 58.3106 226.819 58.5076 227.099 58.6136C227.38 58.7197 227.69 58.7727 228.031 58.7727C228.289 58.7727 228.524 58.7538 228.736 58.7159C228.955 58.678 229.122 58.6439 229.236 58.6136L229.929 61.8295C229.709 61.9053 229.395 61.9886 228.986 62.0795C228.584 62.1705 228.092 62.2235 227.509 62.2386C226.478 62.2689 225.55 62.1136 224.724 61.7727C223.899 61.4242 223.243 60.8864 222.759 60.1591C222.281 59.4318 222.046 58.5227 222.054 57.4318V40.3636ZM233.051 62V44.5455H237.165V62H233.051ZM235.119 42.0682C234.468 42.0682 233.907 41.8523 233.438 41.4205C232.968 40.9811 232.733 40.4545 232.733 39.8409C232.733 39.2197 232.968 38.6932 233.438 38.2614C233.907 37.822 234.468 37.6023 235.119 37.6023C235.778 37.6023 236.339 37.822 236.801 38.2614C237.271 38.6932 237.506 39.2197 237.506 39.8409C237.506 40.4545 237.271 40.9811 236.801 41.4205C236.339 41.8523 235.778 42.0682 235.119 42.0682ZM245.509 51.7727V62H241.395V44.5455H245.327V47.5114H245.531C245.933 46.5341 246.573 45.7576 247.452 45.1818C248.338 44.6061 249.433 44.3182 250.736 44.3182C251.94 44.3182 252.99 44.5758 253.884 45.0909C254.785 45.6061 255.482 46.3523 255.974 47.3295C256.474 48.3068 256.721 49.4924 256.713 50.8864V62H252.599V51.5227C252.599 50.3561 252.296 49.4432 251.69 48.7841C251.092 48.125 250.262 47.7955 249.202 47.7955C248.482 47.7955 247.842 47.9545 247.281 48.2727C246.728 48.5833 246.293 49.0341 245.974 49.625C245.664 50.2159 245.509 50.9318 245.509 51.7727ZM268.486 68.9091C267.009 68.9091 265.74 68.7083 264.679 68.3068C263.618 67.9129 262.766 67.3826 262.122 66.7159C261.478 66.0492 261.031 65.3106 260.781 64.5L264.486 63.6023C264.652 63.9432 264.895 64.2803 265.213 64.6136C265.531 64.9545 265.959 65.2348 266.497 65.4545C267.043 65.6818 267.728 65.7955 268.554 65.7955C269.721 65.7955 270.687 65.5114 271.452 64.9432C272.217 64.3826 272.599 63.4583 272.599 62.1705V58.8636H272.395C272.183 59.2879 271.872 59.7235 271.463 60.1705C271.062 60.6174 270.527 60.9924 269.861 61.2955C269.202 61.5985 268.372 61.75 267.372 61.75C266.031 61.75 264.815 61.4356 263.724 60.8068C262.641 60.1705 261.777 59.2235 261.134 57.9659C260.497 56.7008 260.179 55.1174 260.179 53.2159C260.179 51.2992 260.497 49.6818 261.134 48.3636C261.777 47.0379 262.645 46.0341 263.736 45.3523C264.827 44.6629 266.043 44.3182 267.384 44.3182C268.406 44.3182 269.247 44.4924 269.906 44.8409C270.573 45.1818 271.103 45.5947 271.497 46.0795C271.891 46.5568 272.19 47.0076 272.395 47.4318H272.622V44.5455H276.679V62.2841C276.679 63.7765 276.323 65.0114 275.611 65.9886C274.899 66.9659 273.925 67.697 272.69 68.1818C271.455 68.6667 270.054 68.9091 268.486 68.9091ZM268.52 58.5227C269.391 58.5227 270.134 58.3106 270.747 57.8864C271.361 57.4621 271.827 56.8523 272.145 56.0568C272.463 55.2614 272.622 54.3068 272.622 53.1932C272.622 52.0947 272.463 51.1326 272.145 50.3068C271.834 49.4811 271.372 48.8409 270.759 48.3864C270.152 47.9242 269.406 47.6932 268.52 47.6932C267.603 47.6932 266.838 47.9318 266.224 48.4091C265.611 48.8864 265.149 49.5417 264.838 50.375C264.527 51.2008 264.372 52.1402 264.372 53.1932C264.372 54.2614 264.527 55.197 264.838 56C265.156 56.7955 265.622 57.4167 266.236 57.8636C266.857 58.303 267.618 58.5227 268.52 58.5227ZM294.69 49.1591L290.94 49.5682C290.834 49.1894 290.649 48.8333 290.384 48.5C290.126 48.1667 289.777 47.8977 289.338 47.6932C288.899 47.4886 288.361 47.3864 287.724 47.3864C286.868 47.3864 286.149 47.572 285.565 47.9432C284.99 48.3144 284.705 48.7955 284.713 49.3864C284.705 49.8939 284.891 50.3068 285.27 50.625C285.656 50.9432 286.293 51.2045 287.179 51.4091L290.156 52.0455C291.808 52.4015 293.035 52.9659 293.838 53.7386C294.649 54.5114 295.058 55.5227 295.065 56.7727C295.058 57.8712 294.736 58.8409 294.099 59.6818C293.471 60.5152 292.596 61.1667 291.474 61.6364C290.353 62.1061 289.065 62.3409 287.611 62.3409C285.474 62.3409 283.755 61.8939 282.452 61C281.149 60.0985 280.372 58.8447 280.122 57.2386L284.134 56.8523C284.315 57.6402 284.702 58.2348 285.293 58.6364C285.884 59.0379 286.652 59.2386 287.599 59.2386C288.577 59.2386 289.361 59.0379 289.952 58.6364C290.55 58.2348 290.849 57.7386 290.849 57.1477C290.849 56.6477 290.656 56.2348 290.27 55.9091C289.891 55.5833 289.3 55.3333 288.497 55.1591L285.52 54.5341C283.846 54.1856 282.607 53.5985 281.804 52.7727C281.001 51.9394 280.603 50.8864 280.611 49.6136C280.603 48.5379 280.895 47.6061 281.486 46.8182C282.084 46.0227 282.914 45.4091 283.974 44.9773C285.043 44.5379 286.274 44.3182 287.668 44.3182C289.713 44.3182 291.323 44.7538 292.497 45.625C293.679 46.4962 294.41 47.6742 294.69 49.1591ZM307.418 50.3636C307.418 47.5227 307.793 44.9129 308.543 42.5341C309.3 40.1477 310.425 37.9432 311.918 35.9205H315.793C315.217 36.6705 314.679 37.5909 314.179 38.6818C313.679 39.7652 313.243 40.9545 312.872 42.25C312.509 43.5379 312.221 44.875 312.009 46.2614C311.804 47.6477 311.702 49.0152 311.702 50.3636C311.702 52.1591 311.88 53.9773 312.236 55.8182C312.599 57.6591 313.088 59.3674 313.702 60.9432C314.323 62.5114 315.02 63.7955 315.793 64.7955H311.918C310.425 62.7727 309.3 60.572 308.543 58.1932C307.793 55.8068 307.418 53.197 307.418 50.3636ZM319.17 38.7273H324.33L331.239 55.5909H331.511L338.42 38.7273H343.58V62H339.534V46.0114H339.318L332.886 61.9318H329.864L323.432 45.9773H323.216V62H319.17V38.7273ZM368.966 50.3636C368.966 52.8712 368.496 55.0189 367.557 56.8068C366.625 58.5871 365.352 59.9508 363.739 60.8977C362.133 61.8447 360.311 62.3182 358.273 62.3182C356.235 62.3182 354.409 61.8447 352.795 60.8977C351.189 59.9432 349.917 58.5758 348.977 56.7955C348.045 55.0076 347.58 52.8636 347.58 50.3636C347.58 47.8561 348.045 45.7121 348.977 43.9318C349.917 42.1439 351.189 40.7765 352.795 39.8295C354.409 38.8826 356.235 38.4091 358.273 38.4091C360.311 38.4091 362.133 38.8826 363.739 39.8295C365.352 40.7765 366.625 42.1439 367.557 43.9318C368.496 45.7121 368.966 47.8561 368.966 50.3636ZM364.727 50.3636C364.727 48.5985 364.451 47.1098 363.898 45.8977C363.352 44.678 362.595 43.7576 361.625 43.1364C360.655 42.5076 359.538 42.1932 358.273 42.1932C357.008 42.1932 355.89 42.5076 354.92 43.1364C353.951 43.7576 353.189 44.678 352.636 45.8977C352.091 47.1098 351.818 48.5985 351.818 50.3636C351.818 52.1288 352.091 53.6212 352.636 54.8409C353.189 56.053 353.951 56.9735 354.92 57.6023C355.89 58.2235 357.008 58.5341 358.273 58.5341C359.538 58.5341 360.655 58.2235 361.625 57.6023C362.595 56.9735 363.352 56.053 363.898 54.8409C364.451 53.6212 364.727 52.1288 364.727 50.3636ZM372.952 62V38.7273H381.861C383.543 38.7273 384.94 38.9924 386.054 39.5227C387.175 40.0455 388.012 40.7614 388.565 41.6705C389.126 42.5795 389.406 43.6098 389.406 44.7614C389.406 45.7083 389.224 46.5189 388.861 47.1932C388.497 47.8598 388.009 48.4015 387.395 48.8182C386.781 49.2348 386.096 49.5341 385.338 49.7159V49.9432C386.164 49.9886 386.955 50.2424 387.713 50.7045C388.478 51.1591 389.103 51.803 389.588 52.6364C390.073 53.4697 390.315 54.4773 390.315 55.6591C390.315 56.8636 390.024 57.947 389.44 58.9091C388.857 59.8636 387.978 60.6174 386.804 61.1705C385.63 61.7235 384.152 62 382.372 62H372.952ZM377.168 58.4773H381.702C383.232 58.4773 384.334 58.1856 385.009 57.6023C385.69 57.0114 386.031 56.2538 386.031 55.3295C386.031 54.6402 385.861 54.0189 385.52 53.4659C385.179 52.9053 384.694 52.4659 384.065 52.1477C383.437 51.822 382.687 51.6591 381.815 51.6591H377.168V58.4773ZM377.168 48.625H381.338C382.065 48.625 382.721 48.4924 383.304 48.2273C383.887 47.9545 384.346 47.572 384.679 47.0795C385.02 46.5795 385.19 45.9886 385.19 45.3068C385.19 44.4053 384.872 43.6629 384.236 43.0795C383.607 42.4962 382.671 42.2045 381.429 42.2045H377.168V48.625ZM398.199 38.7273V62H393.983V38.7273H398.199ZM402.764 62V38.7273H406.98V58.4659H417.23V62H402.764ZM420.889 62V38.7273H436.026V42.2614H425.105V48.5795H435.241V52.1136H425.105V58.4659H436.116V62H420.889ZM467.389 38.7273V62H463.639L452.673 46.1477H452.48V62H448.264V38.7273H452.037L462.991 54.5909H463.196V38.7273H467.389ZM492.778 50.3636C492.778 52.8712 492.309 55.0189 491.369 56.8068C490.438 58.5871 489.165 59.9508 487.551 60.8977C485.945 61.8447 484.123 62.3182 482.085 62.3182C480.047 62.3182 478.222 61.8447 476.608 60.8977C475.002 59.9432 473.729 58.5758 472.79 56.7955C471.858 55.0076 471.392 52.8636 471.392 50.3636C471.392 47.8561 471.858 45.7121 472.79 43.9318C473.729 42.1439 475.002 40.7765 476.608 39.8295C478.222 38.8826 480.047 38.4091 482.085 38.4091C484.123 38.4091 485.945 38.8826 487.551 39.8295C489.165 40.7765 490.438 42.1439 491.369 43.9318C492.309 45.7121 492.778 47.8561 492.778 50.3636ZM488.54 50.3636C488.54 48.5985 488.263 47.1098 487.71 45.8977C487.165 44.678 486.407 43.7576 485.438 43.1364C484.468 42.5076 483.35 42.1932 482.085 42.1932C480.82 42.1932 479.703 42.5076 478.733 43.1364C477.763 43.7576 477.002 44.678 476.449 45.8977C475.903 47.1098 475.631 48.5985 475.631 50.3636C475.631 52.1288 475.903 53.6212 476.449 54.8409C477.002 56.053 477.763 56.9735 478.733 57.6023C479.703 58.2235 480.82 58.5341 482.085 58.5341C483.35 58.5341 484.468 58.2235 485.438 57.6023C486.407 56.9735 487.165 56.053 487.71 54.8409C488.263 53.6212 488.54 52.1288 488.54 50.3636ZM494.71 42.2614V38.7273H513.278V42.2614H506.085V62H501.903V42.2614H494.71ZM521.074 38.7273V62H516.858V38.7273H521.074ZM525.639 62V38.7273H540.548V42.2614H529.855V48.5795H539.526V52.1136H529.855V62H525.639ZM548.605 38.7273V62H544.389V38.7273H548.605ZM573.091 46.5795H568.841C568.72 45.8826 568.496 45.2652 568.17 44.7273C567.845 44.1818 567.439 43.7197 566.955 43.3409C566.47 42.9621 565.917 42.678 565.295 42.4886C564.682 42.2917 564.019 42.1932 563.307 42.1932C562.042 42.1932 560.92 42.5114 559.943 43.1477C558.966 43.7765 558.201 44.7008 557.648 45.9205C557.095 47.1326 556.818 48.6136 556.818 50.3636C556.818 52.1439 557.095 53.6439 557.648 54.8636C558.208 56.0758 558.973 56.9924 559.943 57.6136C560.92 58.2273 562.038 58.5341 563.295 58.5341C563.992 58.5341 564.644 58.4432 565.25 58.2614C565.864 58.072 566.413 57.7955 566.898 57.4318C567.39 57.0682 567.803 56.6212 568.136 56.0909C568.477 55.5606 568.712 54.9545 568.841 54.2727L573.091 54.2955C572.932 55.4015 572.587 56.4394 572.057 57.4091C571.534 58.3788 570.848 59.2348 570 59.9773C569.152 60.7121 568.159 61.2879 567.023 61.7045C565.886 62.1136 564.625 62.3182 563.239 62.3182C561.193 62.3182 559.367 61.8447 557.761 60.8977C556.155 59.9508 554.89 58.5833 553.966 56.7955C553.042 55.0076 552.58 52.8636 552.58 50.3636C552.58 47.8561 553.045 45.7121 553.977 43.9318C554.909 42.1439 556.178 40.7765 557.784 39.8295C559.39 38.8826 561.208 38.4091 563.239 38.4091C564.534 38.4091 565.739 38.5909 566.852 38.9545C567.966 39.3182 568.958 39.8523 569.83 40.5568C570.701 41.2538 571.417 42.1098 571.977 43.125C572.545 44.1326 572.917 45.2841 573.091 46.5795ZM579.659 62H575.159L583.352 38.7273H588.557L596.761 62H592.261L586.045 43.5H585.864L579.659 62ZM579.807 52.875H592.08V56.2614H579.807V52.875ZM595.991 42.2614V38.7273H614.56V42.2614H607.366V62H603.185V42.2614H595.991ZM622.355 38.7273V62H618.139V38.7273H622.355ZM647.716 50.3636C647.716 52.8712 647.246 55.0189 646.307 56.8068C645.375 58.5871 644.102 59.9508 642.489 60.8977C640.883 61.8447 639.061 62.3182 637.023 62.3182C634.985 62.3182 633.159 61.8447 631.545 60.8977C629.939 59.9432 628.667 58.5758 627.727 56.7955C626.795 55.0076 626.33 52.8636 626.33 50.3636C626.33 47.8561 626.795 45.7121 627.727 43.9318C628.667 42.1439 629.939 40.7765 631.545 39.8295C633.159 38.8826 634.985 38.4091 637.023 38.4091C639.061 38.4091 640.883 38.8826 642.489 39.8295C644.102 40.7765 645.375 42.1439 646.307 43.9318C647.246 45.7121 647.716 47.8561 647.716 50.3636ZM643.477 50.3636C643.477 48.5985 643.201 47.1098 642.648 45.8977C642.102 44.678 641.345 43.7576 640.375 43.1364C639.405 42.5076 638.288 42.1932 637.023 42.1932C635.758 42.1932 634.64 42.5076 633.67 43.1364C632.701 43.7576 631.939 44.678 631.386 45.8977C630.841 47.1098 630.568 48.5985 630.568 50.3636C630.568 52.1288 630.841 53.6212 631.386 54.8409C631.939 56.053 632.701 56.9735 633.67 57.6023C634.64 58.2235 635.758 58.5341 637.023 58.5341C638.288 58.5341 639.405 58.2235 640.375 57.6023C641.345 56.9735 642.102 56.053 642.648 54.8409C643.201 53.6212 643.477 52.1288 643.477 50.3636ZM670.827 38.7273V62H667.077L656.111 46.1477H655.918V62H651.702V38.7273H655.474L666.429 54.5909H666.634V38.7273H670.827ZM682.58 50.3636C682.58 53.197 682.201 55.8068 681.443 58.1932C680.693 60.572 679.572 62.7727 678.08 64.7955H674.205C674.788 64.0455 675.326 63.1288 675.818 62.0455C676.318 60.9621 676.75 59.7727 677.114 58.4773C677.485 57.1818 677.773 55.8409 677.977 54.4545C678.189 53.0682 678.295 51.7045 678.295 50.3636C678.295 48.5682 678.114 46.75 677.75 44.9091C677.394 43.0682 676.905 41.3598 676.284 39.7841C675.67 38.2083 674.977 36.9205 674.205 35.9205H678.08C679.572 37.9432 680.693 40.1477 681.443 42.5341C682.201 44.9129 682.58 47.5227 682.58 50.3636Z" fill="#FBFBFB"/>
<path d="M708.693 48.6705V52.0568H698.216V48.6705H708.693ZM721.139 62V38.7273H736.276V42.2614H725.355V48.5795H735.491V52.1136H725.355V58.4659H736.366V62H721.139ZM744.509 51.7727V62H740.395V44.5455H744.327V47.5114H744.531C744.933 46.5341 745.573 45.7576 746.452 45.1818C747.338 44.6061 748.433 44.3182 749.736 44.3182C750.94 44.3182 751.99 44.5758 752.884 45.0909C753.785 45.6061 754.482 46.3523 754.974 47.3295C755.474 48.3068 755.721 49.4924 755.713 50.8864V62H751.599V51.5227C751.599 50.3561 751.296 49.4432 750.69 48.7841C750.092 48.125 749.262 47.7955 748.202 47.7955C747.482 47.7955 746.842 47.9545 746.281 48.2727C745.728 48.5833 745.293 49.0341 744.974 49.625C744.664 50.2159 744.509 50.9318 744.509 51.7727ZM768.611 44.5455V47.7273H758.577V44.5455H768.611ZM761.054 40.3636H765.168V56.75C765.168 57.303 765.251 57.7273 765.418 58.0227C765.592 58.3106 765.819 58.5076 766.099 58.6136C766.38 58.7197 766.69 58.7727 767.031 58.7727C767.289 58.7727 767.524 58.7538 767.736 58.7159C767.955 58.678 768.122 58.6439 768.236 58.6136L768.929 61.8295C768.709 61.9053 768.395 61.9886 767.986 62.0795C767.584 62.1705 767.092 62.2235 766.509 62.2386C765.478 62.2689 764.55 62.1136 763.724 61.7727C762.899 61.4242 762.243 60.8864 761.759 60.1591C761.281 59.4318 761.046 58.5227 761.054 57.4318V40.3636ZM779.591 62.3409C777.841 62.3409 776.33 61.9773 775.057 61.25C773.792 60.5152 772.818 59.4773 772.136 58.1364C771.455 56.7879 771.114 55.2008 771.114 53.375C771.114 51.5795 771.455 50.0038 772.136 48.6477C772.826 47.2841 773.788 46.2235 775.023 45.4659C776.258 44.7008 777.708 44.3182 779.375 44.3182C780.451 44.3182 781.466 44.4924 782.42 44.8409C783.383 45.1818 784.231 45.7121 784.966 46.4318C785.708 47.1515 786.292 48.0682 786.716 49.1818C787.14 50.2879 787.352 51.6061 787.352 53.1364V54.3977H773.045V51.625H783.409C783.402 50.8371 783.231 50.1364 782.898 49.5227C782.564 48.9015 782.098 48.4129 781.5 48.0568C780.909 47.7008 780.22 47.5227 779.432 47.5227C778.591 47.5227 777.852 47.7273 777.216 48.1364C776.58 48.5379 776.083 49.0682 775.727 49.7273C775.379 50.3788 775.201 51.0947 775.193 51.875V54.2955C775.193 55.3106 775.379 56.1818 775.75 56.9091C776.121 57.6288 776.64 58.1818 777.307 58.5682C777.973 58.947 778.754 59.1364 779.648 59.1364C780.246 59.1364 780.788 59.053 781.273 58.8864C781.758 58.7121 782.178 58.4583 782.534 58.125C782.89 57.7917 783.159 57.3788 783.341 56.8864L787.182 57.3182C786.939 58.3333 786.477 59.2197 785.795 59.9773C785.121 60.7273 784.258 61.3106 783.205 61.7273C782.152 62.1364 780.947 62.3409 779.591 62.3409ZM790.832 62V44.5455H794.821V47.4545H795.003C795.321 46.447 795.866 45.6705 796.639 45.125C797.42 44.572 798.31 44.2955 799.31 44.2955C799.537 44.2955 799.791 44.3068 800.071 44.3295C800.359 44.3447 800.598 44.3712 800.787 44.4091V48.1932C800.613 48.1326 800.336 48.0795 799.957 48.0341C799.586 47.9811 799.226 47.9545 798.878 47.9545C798.128 47.9545 797.454 48.1174 796.855 48.4432C796.264 48.7614 795.798 49.2045 795.457 49.7727C795.116 50.3409 794.946 50.9962 794.946 51.7386V62H790.832ZM814.753 38.7273L820.81 57.0455H821.048L827.094 38.7273H831.73L823.526 62H818.321L810.128 38.7273H814.753ZM840.466 62.3409C838.716 62.3409 837.205 61.9773 835.932 61.25C834.667 60.5152 833.693 59.4773 833.011 58.1364C832.33 56.7879 831.989 55.2008 831.989 53.375C831.989 51.5795 832.33 50.0038 833.011 48.6477C833.701 47.2841 834.663 46.2235 835.898 45.4659C837.133 44.7008 838.583 44.3182 840.25 44.3182C841.326 44.3182 842.341 44.4924 843.295 44.8409C844.258 45.1818 845.106 45.7121 845.841 46.4318C846.583 47.1515 847.167 48.0682 847.591 49.1818C848.015 50.2879 848.227 51.6061 848.227 53.1364V54.3977H833.92V51.625H844.284C844.277 50.8371 844.106 50.1364 843.773 49.5227C843.439 48.9015 842.973 48.4129 842.375 48.0568C841.784 47.7008 841.095 47.5227 840.307 47.5227C839.466 47.5227 838.727 47.7273 838.091 48.1364C837.455 48.5379 836.958 49.0682 836.602 49.7273C836.254 50.3788 836.076 51.0947 836.068 51.875V54.2955C836.068 55.3106 836.254 56.1818 836.625 56.9091C836.996 57.6288 837.515 58.1818 838.182 58.5682C838.848 58.947 839.629 59.1364 840.523 59.1364C841.121 59.1364 841.663 59.053 842.148 58.8864C842.633 58.7121 843.053 58.4583 843.409 58.125C843.765 57.7917 844.034 57.3788 844.216 56.8864L848.057 57.3182C847.814 58.3333 847.352 59.2197 846.67 59.9773C845.996 60.7273 845.133 61.3106 844.08 61.7273C843.027 62.1364 841.822 62.3409 840.466 62.3409ZM851.707 62V44.5455H855.696V47.4545H855.878C856.196 46.447 856.741 45.6705 857.514 45.125C858.295 44.572 859.185 44.2955 860.185 44.2955C860.412 44.2955 860.666 44.3068 860.946 44.3295C861.234 44.3447 861.473 44.3712 861.662 44.4091V48.1932C861.488 48.1326 861.211 48.0795 860.832 48.0341C860.461 47.9811 860.101 47.9545 859.753 47.9545C859.003 47.9545 858.329 48.1174 857.73 48.4432C857.139 48.7614 856.673 49.2045 856.332 49.7727C855.991 50.3409 855.821 50.9962 855.821 51.7386V62H851.707ZM871.403 62.3409C869.653 62.3409 868.142 61.9773 866.869 61.25C865.604 60.5152 864.631 59.4773 863.949 58.1364C863.267 56.7879 862.926 55.2008 862.926 53.375C862.926 51.5795 863.267 50.0038 863.949 48.6477C864.638 47.2841 865.6 46.2235 866.835 45.4659C868.07 44.7008 869.521 44.3182 871.188 44.3182C872.263 44.3182 873.278 44.4924 874.233 44.8409C875.195 45.1818 876.044 45.7121 876.778 46.4318C877.521 47.1515 878.104 48.0682 878.528 49.1818C878.953 50.2879 879.165 51.6061 879.165 53.1364V54.3977H864.858V51.625H875.222C875.214 50.8371 875.044 50.1364 874.71 49.5227C874.377 48.9015 873.911 48.4129 873.312 48.0568C872.722 47.7008 872.032 47.5227 871.244 47.5227C870.403 47.5227 869.665 47.7273 869.028 48.1364C868.392 48.5379 867.896 49.0682 867.54 49.7273C867.191 50.3788 867.013 51.0947 867.006 51.875V54.2955C867.006 55.3106 867.191 56.1818 867.562 56.9091C867.934 57.6288 868.453 58.1818 869.119 58.5682C869.786 58.947 870.566 59.1364 871.46 59.1364C872.059 59.1364 872.6 59.053 873.085 58.8864C873.57 58.7121 873.991 58.4583 874.347 58.125C874.703 57.7917 874.972 57.3788 875.153 56.8864L878.994 57.3182C878.752 58.3333 878.29 59.2197 877.608 59.9773C876.934 60.7273 876.07 61.3106 875.017 61.7273C873.964 62.1364 872.759 62.3409 871.403 62.3409ZM891.486 44.5455V47.7273H881.168V44.5455H891.486ZM883.747 62V42.8977C883.747 41.7235 883.99 40.7462 884.474 39.9659C884.967 39.1856 885.626 38.6023 886.452 38.2159C887.277 37.8295 888.194 37.6364 889.202 37.6364C889.914 37.6364 890.546 37.6932 891.099 37.8068C891.652 37.9205 892.062 38.0227 892.327 38.1136L891.509 41.2955C891.334 41.2424 891.115 41.1894 890.849 41.1364C890.584 41.0758 890.289 41.0455 889.963 41.0455C889.198 41.0455 888.656 41.2311 888.338 41.6023C888.027 41.9659 887.872 42.4886 887.872 43.1705V62H883.747ZM894.707 62V44.5455H898.821V62H894.707ZM896.776 42.0682C896.124 42.0682 895.563 41.8523 895.094 41.4205C894.624 40.9811 894.389 40.4545 894.389 39.8409C894.389 39.2197 894.624 38.6932 895.094 38.2614C895.563 37.822 896.124 37.6023 896.776 37.6023C897.435 37.6023 897.995 37.822 898.457 38.2614C898.927 38.6932 899.162 39.2197 899.162 39.8409C899.162 40.4545 898.927 40.9811 898.457 41.4205C897.995 41.8523 897.435 42.0682 896.776 42.0682ZM910.665 62.3409C908.922 62.3409 907.426 61.9583 906.176 61.1932C904.934 60.428 903.975 59.3712 903.301 58.0227C902.634 56.6667 902.301 55.1061 902.301 53.3409C902.301 51.5682 902.642 50.0038 903.324 48.6477C904.006 47.2841 904.968 46.2235 906.21 45.4659C907.46 44.7008 908.938 44.3182 910.642 44.3182C912.059 44.3182 913.313 44.5795 914.403 45.1023C915.502 45.6174 916.377 46.3485 917.028 47.2955C917.68 48.2348 918.051 49.3333 918.142 50.5909H914.21C914.051 49.75 913.672 49.0492 913.074 48.4886C912.483 47.9205 911.691 47.6364 910.699 47.6364C909.858 47.6364 909.119 47.8636 908.483 48.3182C907.847 48.7652 907.35 49.4091 906.994 50.25C906.646 51.0909 906.472 52.0985 906.472 53.2727C906.472 54.4621 906.646 55.4848 906.994 56.3409C907.343 57.1894 907.831 57.8447 908.46 58.3068C909.097 58.7614 909.843 58.9886 910.699 58.9886C911.305 58.9886 911.847 58.875 912.324 58.6477C912.809 58.4129 913.214 58.0758 913.54 57.6364C913.866 57.197 914.089 56.6629 914.21 56.0341H918.142C918.044 57.2689 917.68 58.3636 917.051 59.3182C916.422 60.2652 915.566 61.0076 914.483 61.5455C913.4 62.0758 912.127 62.3409 910.665 62.3409ZM926.543 62.3523C925.437 62.3523 924.44 62.1553 923.554 61.7614C922.675 61.3598 921.978 60.7689 921.463 59.9886C920.955 59.2083 920.702 58.2462 920.702 57.1023C920.702 56.1174 920.884 55.303 921.247 54.6591C921.611 54.0152 922.107 53.5 922.736 53.1136C923.365 52.7273 924.073 52.4356 924.861 52.2386C925.656 52.0341 926.478 51.8864 927.327 51.7955C928.349 51.6894 929.179 51.5947 929.815 51.5114C930.452 51.4205 930.914 51.2841 931.202 51.1023C931.497 50.9129 931.645 50.6212 931.645 50.2273V50.1591C931.645 49.303 931.391 48.6402 930.884 48.1705C930.376 47.7008 929.645 47.4659 928.69 47.4659C927.683 47.4659 926.884 47.6856 926.293 48.125C925.709 48.5644 925.315 49.0833 925.111 49.6818L921.27 49.1364C921.573 48.0758 922.073 47.1894 922.77 46.4773C923.467 45.7576 924.319 45.2197 925.327 44.8636C926.334 44.5 927.448 44.3182 928.668 44.3182C929.509 44.3182 930.346 44.4167 931.179 44.6136C932.012 44.8106 932.774 45.1364 933.463 45.5909C934.152 46.0379 934.705 46.6477 935.122 47.4205C935.546 48.1932 935.759 49.1591 935.759 50.3182V62H931.804V59.6023H931.668C931.418 60.0871 931.065 60.5417 930.611 60.9659C930.164 61.3826 929.599 61.7197 928.918 61.9773C928.243 62.2273 927.452 62.3523 926.543 62.3523ZM927.611 59.3295C928.437 59.3295 929.152 59.1667 929.759 58.8409C930.365 58.5076 930.83 58.0682 931.156 57.5227C931.49 56.9773 931.656 56.3826 931.656 55.7386V53.6818C931.527 53.7879 931.308 53.8864 930.997 53.9773C930.694 54.0682 930.353 54.1477 929.974 54.2159C929.596 54.2841 929.221 54.3447 928.849 54.3977C928.478 54.4508 928.156 54.4962 927.884 54.5341C927.27 54.6174 926.721 54.7538 926.236 54.9432C925.751 55.1326 925.368 55.3977 925.088 55.7386C924.808 56.072 924.668 56.5038 924.668 57.0341C924.668 57.7917 924.944 58.3636 925.497 58.75C926.05 59.1364 926.755 59.3295 927.611 59.3295ZM948.611 44.5455V47.7273H938.577V44.5455H948.611ZM941.054 40.3636H945.168V56.75C945.168 57.303 945.251 57.7273 945.418 58.0227C945.592 58.3106 945.819 58.5076 946.099 58.6136C946.38 58.7197 946.69 58.7727 947.031 58.7727C947.289 58.7727 947.524 58.7538 947.736 58.7159C947.955 58.678 948.122 58.6439 948.236 58.6136L948.929 61.8295C948.709 61.9053 948.395 61.9886 947.986 62.0795C947.584 62.1705 947.092 62.2235 946.509 62.2386C945.478 62.2689 944.55 62.1136 943.724 61.7727C942.899 61.4242 942.243 60.8864 941.759 60.1591C941.281 59.4318 941.046 58.5227 941.054 57.4318V40.3636ZM952.051 62V44.5455H956.165V62H952.051ZM954.119 42.0682C953.468 42.0682 952.907 41.8523 952.438 41.4205C951.968 40.9811 951.733 40.4545 951.733 39.8409C951.733 39.2197 951.968 38.6932 952.438 38.2614C952.907 37.822 953.468 37.6023 954.119 37.6023C954.778 37.6023 955.339 37.822 955.801 38.2614C956.271 38.6932 956.506 39.2197 956.506 39.8409C956.506 40.4545 956.271 40.9811 955.801 41.4205C955.339 41.8523 954.778 42.0682 954.119 42.0682ZM968.009 62.3409C966.304 62.3409 964.827 61.9659 963.577 61.2159C962.327 60.4659 961.357 59.4167 960.668 58.0682C959.986 56.7197 959.645 55.1439 959.645 53.3409C959.645 51.5379 959.986 49.9583 960.668 48.6023C961.357 47.2462 962.327 46.1932 963.577 45.4432C964.827 44.6932 966.304 44.3182 968.009 44.3182C969.713 44.3182 971.19 44.6932 972.44 45.4432C973.69 46.1932 974.656 47.2462 975.338 48.6023C976.027 49.9583 976.372 51.5379 976.372 53.3409C976.372 55.1439 976.027 56.7197 975.338 58.0682C974.656 59.4167 973.69 60.4659 972.44 61.2159C971.19 61.9659 969.713 62.3409 968.009 62.3409ZM968.031 59.0455C968.955 59.0455 969.728 58.7917 970.349 58.2841C970.971 57.7689 971.433 57.0795 971.736 56.2159C972.046 55.3523 972.202 54.3902 972.202 53.3295C972.202 52.2614 972.046 51.2955 971.736 50.4318C971.433 49.5606 970.971 48.8674 970.349 48.3523C969.728 47.8371 968.955 47.5795 968.031 47.5795C967.084 47.5795 966.296 47.8371 965.668 48.3523C965.046 48.8674 964.58 49.5606 964.27 50.4318C963.967 51.2955 963.815 52.2614 963.815 53.3295C963.815 54.3902 963.967 55.3523 964.27 56.2159C964.58 57.0795 965.046 57.7689 965.668 58.2841C966.296 58.7917 967.084 59.0455 968.031 59.0455ZM983.977 51.7727V62H979.864V44.5455H983.795V47.5114H984C984.402 46.5341 985.042 45.7576 985.92 45.1818C986.807 44.6061 987.902 44.3182 989.205 44.3182C990.409 44.3182 991.458 44.5758 992.352 45.0909C993.254 45.6061 993.951 46.3523 994.443 47.3295C994.943 48.3068 995.189 49.4924 995.182 50.8864V62H991.068V51.5227C991.068 50.3561 990.765 49.4432 990.159 48.7841C989.561 48.125 988.731 47.7955 987.67 47.7955C986.951 47.7955 986.311 47.9545 985.75 48.2727C985.197 48.5833 984.761 49.0341 984.443 49.625C984.133 50.2159 983.977 50.9318 983.977 51.7727ZM1027.4 46.5795H1023.15C1023.03 45.8826 1022.81 45.2652 1022.48 44.7273C1022.16 44.1818 1021.75 43.7197 1021.27 43.3409C1020.78 42.9621 1020.23 42.678 1019.61 42.4886C1018.99 42.2917 1018.33 42.1932 1017.62 42.1932C1016.35 42.1932 1015.23 42.5114 1014.26 43.1477C1013.28 43.7765 1012.51 44.7008 1011.96 45.9205C1011.41 47.1326 1011.13 48.6136 1011.13 50.3636C1011.13 52.1439 1011.41 53.6439 1011.96 54.8636C1012.52 56.0758 1013.29 56.9924 1014.26 57.6136C1015.23 58.2273 1016.35 58.5341 1017.61 58.5341C1018.3 58.5341 1018.96 58.4432 1019.56 58.2614C1020.18 58.072 1020.73 57.7955 1021.21 57.4318C1021.7 57.0682 1022.12 56.6212 1022.45 56.0909C1022.79 55.5606 1023.02 54.9545 1023.15 54.2727L1027.4 54.2955C1027.24 55.4015 1026.9 56.4394 1026.37 57.4091C1025.85 58.3788 1025.16 59.2348 1024.31 59.9773C1023.46 60.7121 1022.47 61.2879 1021.34 61.7045C1020.2 62.1136 1018.94 62.3182 1017.55 62.3182C1015.51 62.3182 1013.68 61.8447 1012.07 60.8977C1010.47 59.9508 1009.2 58.5833 1008.28 56.7955C1007.35 55.0076 1006.89 52.8636 1006.89 50.3636C1006.89 47.8561 1007.36 45.7121 1008.29 43.9318C1009.22 42.1439 1010.49 40.7765 1012.1 39.8295C1013.7 38.8826 1015.52 38.4091 1017.55 38.4091C1018.85 38.4091 1020.05 38.5909 1021.16 38.9545C1022.28 39.3182 1023.27 39.8523 1024.14 40.5568C1025.01 41.2538 1025.73 42.1098 1026.29 43.125C1026.86 44.1326 1027.23 45.2841 1027.4 46.5795ZM1038.7 62.3409C1036.99 62.3409 1035.51 61.9659 1034.26 61.2159C1033.01 60.4659 1032.04 59.4167 1031.36 58.0682C1030.67 56.7197 1030.33 55.1439 1030.33 53.3409C1030.33 51.5379 1030.67 49.9583 1031.36 48.6023C1032.04 47.2462 1033.01 46.1932 1034.26 45.4432C1035.51 44.6932 1036.99 44.3182 1038.7 44.3182C1040.4 44.3182 1041.88 44.6932 1043.13 45.4432C1044.38 46.1932 1045.34 47.2462 1046.03 48.6023C1046.71 49.9583 1047.06 51.5379 1047.06 53.3409C1047.06 55.1439 1046.71 56.7197 1046.03 58.0682C1045.34 59.4167 1044.38 60.4659 1043.13 61.2159C1041.88 61.9659 1040.4 62.3409 1038.7 62.3409ZM1038.72 59.0455C1039.64 59.0455 1040.42 58.7917 1041.04 58.2841C1041.66 57.7689 1042.12 57.0795 1042.42 56.2159C1042.73 55.3523 1042.89 54.3902 1042.89 53.3295C1042.89 52.2614 1042.73 51.2955 1042.42 50.4318C1042.12 49.5606 1041.66 48.8674 1041.04 48.3523C1040.42 47.8371 1039.64 47.5795 1038.72 47.5795C1037.77 47.5795 1036.98 47.8371 1036.36 48.3523C1035.73 48.8674 1035.27 49.5606 1034.96 50.4318C1034.65 51.2955 1034.5 52.2614 1034.5 53.3295C1034.5 54.3902 1034.65 55.3523 1034.96 56.2159C1035.27 57.0795 1035.73 57.7689 1036.36 58.2841C1036.98 58.7917 1037.77 59.0455 1038.72 59.0455ZM1057.03 62.3068C1055.66 62.3068 1054.43 61.9545 1053.35 61.25C1052.26 60.5455 1051.41 59.5227 1050.78 58.1818C1050.15 56.8409 1049.84 55.2121 1049.84 53.2955C1049.84 51.3561 1050.15 49.7197 1050.79 48.3864C1051.43 47.0455 1052.3 46.0341 1053.39 45.3523C1054.48 44.6629 1055.7 44.3182 1057.04 44.3182C1058.06 44.3182 1058.9 44.4924 1059.56 44.8409C1060.22 45.1818 1060.74 45.5947 1061.13 46.0795C1061.52 46.5568 1061.82 47.0076 1062.03 47.4318H1062.2V38.7273H1066.32V62H1062.28V59.25H1062.03C1061.82 59.6742 1061.51 60.125 1061.11 60.6023C1060.71 61.072 1060.18 61.4735 1059.52 61.8068C1058.86 62.1402 1058.03 62.3068 1057.03 62.3068ZM1058.18 58.9318C1059.05 58.9318 1059.79 58.697 1060.4 58.2273C1061.02 57.75 1061.48 57.0871 1061.8 56.2386C1062.12 55.3902 1062.28 54.4015 1062.28 53.2727C1062.28 52.1439 1062.12 51.1629 1061.8 50.3295C1061.49 49.4962 1061.03 48.8485 1060.41 48.3864C1059.81 47.9242 1059.06 47.6932 1058.18 47.6932C1057.26 47.6932 1056.49 47.9318 1055.88 48.4091C1055.27 48.8864 1054.8 49.5455 1054.49 50.3864C1054.18 51.2273 1054.03 52.1894 1054.03 53.2727C1054.03 54.3636 1054.18 55.3371 1054.49 56.1932C1054.81 57.0417 1055.28 57.7121 1055.89 58.2045C1056.51 58.6894 1057.27 58.9318 1058.18 58.9318ZM1078.43 62.3409C1076.68 62.3409 1075.17 61.9773 1073.9 61.25C1072.64 60.5152 1071.66 59.4773 1070.98 58.1364C1070.3 56.7879 1069.96 55.2008 1069.96 53.375C1069.96 51.5795 1070.3 50.0038 1070.98 48.6477C1071.67 47.2841 1072.63 46.2235 1073.87 45.4659C1075.1 44.7008 1076.55 44.3182 1078.22 44.3182C1079.29 44.3182 1080.31 44.4924 1081.26 44.8409C1082.23 45.1818 1083.07 45.7121 1083.81 46.4318C1084.55 47.1515 1085.14 48.0682 1085.56 49.1818C1085.98 50.2879 1086.2 51.6061 1086.2 53.1364V54.3977H1071.89V51.625H1082.25C1082.25 50.8371 1082.07 50.1364 1081.74 49.5227C1081.41 48.9015 1080.94 48.4129 1080.34 48.0568C1079.75 47.7008 1079.06 47.5227 1078.28 47.5227C1077.43 47.5227 1076.7 47.7273 1076.06 48.1364C1075.42 48.5379 1074.93 49.0682 1074.57 49.7273C1074.22 50.3788 1074.04 51.0947 1074.04 51.875V54.2955C1074.04 55.3106 1074.22 56.1818 1074.59 56.9091C1074.96 57.6288 1075.48 58.1818 1076.15 58.5682C1076.82 58.947 1077.6 59.1364 1078.49 59.1364C1079.09 59.1364 1079.63 59.053 1080.12 58.8864C1080.6 58.7121 1081.02 58.4583 1081.38 58.125C1081.73 57.7917 1082 57.3788 1082.18 56.8864L1086.03 57.3182C1085.78 58.3333 1085.32 59.2197 1084.64 59.9773C1083.96 60.7273 1083.1 61.3106 1082.05 61.7273C1081 62.1364 1079.79 62.3409 1078.43 62.3409Z" fill="#FBFBFB"/>
</svg>
