<svg width="8810" height="100" viewBox="0 0 8810 100" fill="none" xmlns="http://www.w3.org/2000/svg">
<path d="M0 14C0 6.26801 6.26801 0 14 0H8796C8803.73 0 8810 6.26801 8810 14V86C8810 93.732 8803.73 100 8796 100H14.0001C6.26816 100 0 93.732 0 86V14Z" fill="black"/>
<path d="M37.2841 62H32.7841L40.9773 38.7273H46.1818L54.3864 62H49.8864L43.6705 43.5H43.4886L37.2841 62ZM37.4318 52.875H49.7045V56.2614H37.4318V52.875ZM64.3523 62.3409C62.6098 62.3409 61.1136 61.9583 59.8636 61.1932C58.6212 60.428 57.6629 59.3712 56.9886 58.0227C56.322 56.6667 55.9886 55.1061 55.9886 53.3409C55.9886 51.5682 56.3295 50.0038 57.0114 48.6477C57.6932 47.2841 58.6553 46.2235 59.8977 45.4659C61.1477 44.7008 62.625 44.3182 64.3295 44.3182C65.7462 44.3182 67 44.5795 68.0909 45.1023C69.1894 45.6174 70.0644 46.3485 70.7159 47.2955C71.3674 48.2348 71.7386 49.3333 71.8295 50.5909H67.8977C67.7386 49.75 67.3598 49.0492 66.7614 48.4886C66.1705 47.9205 65.3788 47.6364 64.3864 47.6364C63.5455 47.6364 62.8068 47.8636 62.1705 48.3182C61.5341 48.7652 61.0379 49.4091 60.6818 50.25C60.3333 51.0909 60.1591 52.0985 60.1591 53.2727C60.1591 54.4621 60.3333 55.4848 60.6818 56.3409C61.0303 57.1894 61.5189 57.8447 62.1477 58.3068C62.7841 58.7614 63.5303 58.9886 64.3864 58.9886C64.9924 58.9886 65.5341 58.875 66.0114 58.6477C66.4962 58.4129 66.9015 58.0758 67.2273 57.6364C67.553 57.197 67.7765 56.6629 67.8977 56.0341H71.8295C71.7311 57.2689 71.3674 58.3636 70.7386 59.3182C70.1098 60.2652 69.2538 61.0076 68.1705 61.5455C67.0871 62.0758 65.8144 62.3409 64.3523 62.3409ZM82.821 62.3409C81.0786 62.3409 79.5824 61.9583 78.3324 61.1932C77.09 60.428 76.1316 59.3712 75.4574 58.0227C74.7907 56.6667 74.4574 55.1061 74.4574 53.3409C74.4574 51.5682 74.7983 50.0038 75.4801 48.6477C76.1619 47.2841 77.1241 46.2235 78.3665 45.4659C79.6165 44.7008 81.0938 44.3182 82.7983 44.3182C84.215 44.3182 85.4688 44.5795 86.5597 45.1023C87.6581 45.6174 88.5331 46.3485 89.1847 47.2955C89.8362 48.2348 90.2074 49.3333 90.2983 50.5909H86.3665C86.2074 49.75 85.8286 49.0492 85.2301 48.4886C84.6392 47.9205 83.8475 47.6364 82.8551 47.6364C82.0142 47.6364 81.2756 47.8636 80.6392 48.3182C80.0028 48.7652 79.5066 49.4091 79.1506 50.25C78.8021 51.0909 78.6278 52.0985 78.6278 53.2727C78.6278 54.4621 78.8021 55.4848 79.1506 56.3409C79.4991 57.1894 79.9877 57.8447 80.6165 58.3068C81.2528 58.7614 81.9991 58.9886 82.8551 58.9886C83.4612 58.9886 84.0028 58.875 84.4801 58.6477C84.965 58.4129 85.3703 58.0758 85.696 57.6364C86.0218 57.197 86.2453 56.6629 86.3665 56.0341H90.2983C90.1998 57.2689 89.8362 58.3636 89.2074 59.3182C88.5786 60.2652 87.7225 61.0076 86.6392 61.5455C85.5559 62.0758 84.2831 62.3409 82.821 62.3409ZM101.29 62.3409C99.5852 62.3409 98.108 61.9659 96.858 61.2159C95.608 60.4659 94.6383 59.4167 93.9489 58.0682C93.267 56.7197 92.9261 55.1439 92.9261 53.3409C92.9261 51.5379 93.267 49.9583 93.9489 48.6023C94.6383 47.2462 95.608 46.1932 96.858 45.4432C98.108 44.6932 99.5852 44.3182 101.29 44.3182C102.994 44.3182 104.472 44.6932 105.722 45.4432C106.972 46.1932 107.938 47.2462 108.619 48.6023C109.309 49.9583 109.653 51.5379 109.653 53.3409C109.653 55.1439 109.309 56.7197 108.619 58.0682C107.938 59.4167 106.972 60.4659 105.722 61.2159C104.472 61.9659 102.994 62.3409 101.29 62.3409ZM101.312 59.0455C102.237 59.0455 103.009 58.7917 103.631 58.2841C104.252 57.7689 104.714 57.0795 105.017 56.2159C105.328 55.3523 105.483 54.3902 105.483 53.3295C105.483 52.2614 105.328 51.2955 105.017 50.4318C104.714 49.5606 104.252 48.8674 103.631 48.3523C103.009 47.8371 102.237 47.5795 101.312 47.5795C100.366 47.5795 99.5777 47.8371 98.9489 48.3523C98.3277 48.8674 97.8617 49.5606 97.5511 50.4318C97.2481 51.2955 97.0966 52.2614 97.0966 53.3295C97.0966 54.3902 97.2481 55.3523 97.5511 56.2159C97.8617 57.0795 98.3277 57.7689 98.9489 58.2841C99.5777 58.7917 100.366 59.0455 101.312 59.0455ZM124.27 54.6591V44.5455H128.384V62H124.395V58.8977H124.213C123.819 59.875 123.171 60.6742 122.27 61.2955C121.376 61.9167 120.274 62.2273 118.963 62.2273C117.819 62.2273 116.808 61.9735 115.929 61.4659C115.058 60.9508 114.376 60.2045 113.884 59.2273C113.391 58.2424 113.145 57.053 113.145 55.6591V44.5455H117.259V55.0227C117.259 56.1288 117.562 57.0076 118.168 57.6591C118.774 58.3106 119.569 58.6364 120.554 58.6364C121.16 58.6364 121.747 58.4886 122.315 58.1932C122.884 57.8977 123.349 57.4583 123.713 56.875C124.084 56.2841 124.27 55.5455 124.27 54.6591ZM136.727 51.7727V62H132.614V44.5455H136.545V47.5114H136.75C137.152 46.5341 137.792 45.7576 138.67 45.1818C139.557 44.6061 140.652 44.3182 141.955 44.3182C143.159 44.3182 144.208 44.5758 145.102 45.0909C146.004 45.6061 146.701 46.3523 147.193 47.3295C147.693 48.3068 147.939 49.4924 147.932 50.8864V62H143.818V51.5227C143.818 50.3561 143.515 49.4432 142.909 48.7841C142.311 48.125 141.481 47.7955 140.42 47.7955C139.701 47.7955 139.061 47.9545 138.5 48.2727C137.947 48.5833 137.511 49.0341 137.193 49.625C136.883 50.2159 136.727 50.9318 136.727 51.7727ZM160.83 44.5455V47.7273H150.795V44.5455H160.83ZM153.273 40.3636H157.386V56.75C157.386 57.303 157.47 57.7273 157.636 58.0227C157.811 58.3106 158.038 58.5076 158.318 58.6136C158.598 58.7197 158.909 58.7727 159.25 58.7727C159.508 58.7727 159.742 58.7538 159.955 58.7159C160.174 58.678 160.341 58.6439 160.455 58.6136L161.148 61.8295C160.928 61.9053 160.614 61.9886 160.205 62.0795C159.803 62.1705 159.311 62.2235 158.727 62.2386C157.697 62.2689 156.769 62.1136 155.943 61.7727C155.117 61.4242 154.462 60.8864 153.977 60.1591C153.5 59.4318 153.265 58.5227 153.273 57.4318V40.3636ZM186.003 49.1591L182.253 49.5682C182.147 49.1894 181.961 48.8333 181.696 48.5C181.438 48.1667 181.09 47.8977 180.651 47.6932C180.211 47.4886 179.673 47.3864 179.037 47.3864C178.181 47.3864 177.461 47.572 176.878 47.9432C176.302 48.3144 176.018 48.7955 176.026 49.3864C176.018 49.8939 176.204 50.3068 176.582 50.625C176.969 50.9432 177.605 51.2045 178.491 51.4091L181.469 52.0455C183.12 52.4015 184.348 52.9659 185.151 53.7386C185.961 54.5114 186.37 55.5227 186.378 56.7727C186.37 57.8712 186.048 58.8409 185.412 59.6818C184.783 60.5152 183.908 61.1667 182.787 61.6364C181.666 62.1061 180.378 62.3409 178.923 62.3409C176.787 62.3409 175.067 61.8939 173.764 61C172.461 60.0985 171.685 58.8447 171.435 57.2386L175.446 56.8523C175.628 57.6402 176.014 58.2348 176.605 58.6364C177.196 59.0379 177.965 59.2386 178.912 59.2386C179.889 59.2386 180.673 59.0379 181.264 58.6364C181.863 58.2348 182.162 57.7386 182.162 57.1477C182.162 56.6477 181.969 56.2348 181.582 55.9091C181.204 55.5833 180.613 55.3333 179.81 55.1591L176.832 54.5341C175.158 54.1856 173.92 53.5985 173.116 52.7727C172.313 51.9394 171.916 50.8864 171.923 49.6136C171.916 48.5379 172.207 47.6061 172.798 46.8182C173.397 46.0227 174.226 45.4091 175.287 44.9773C176.355 44.5379 177.586 44.3182 178.98 44.3182C181.026 44.3182 182.635 44.7538 183.81 45.625C184.991 46.4962 185.723 47.6742 186.003 49.1591ZM197.497 62.3409C195.747 62.3409 194.236 61.9773 192.963 61.25C191.698 60.5152 190.724 59.4773 190.043 58.1364C189.361 56.7879 189.02 55.2008 189.02 53.375C189.02 51.5795 189.361 50.0038 190.043 48.6477C190.732 47.2841 191.694 46.2235 192.929 45.4659C194.164 44.7008 195.615 44.3182 197.281 44.3182C198.357 44.3182 199.372 44.4924 200.327 44.8409C201.289 45.1818 202.137 45.7121 202.872 46.4318C203.615 47.1515 204.198 48.0682 204.622 49.1818C205.046 50.2879 205.259 51.6061 205.259 53.1364V54.3977H190.952V51.625H201.315C201.308 50.8371 201.137 50.1364 200.804 49.5227C200.471 48.9015 200.005 48.4129 199.406 48.0568C198.815 47.7008 198.126 47.5227 197.338 47.5227C196.497 47.5227 195.759 47.7273 195.122 48.1364C194.486 48.5379 193.99 49.0682 193.634 49.7273C193.285 50.3788 193.107 51.0947 193.099 51.875V54.2955C193.099 55.3106 193.285 56.1818 193.656 56.9091C194.027 57.6288 194.546 58.1818 195.213 58.5682C195.88 58.947 196.66 59.1364 197.554 59.1364C198.152 59.1364 198.694 59.053 199.179 58.8864C199.664 58.7121 200.084 58.4583 200.44 58.125C200.796 57.7917 201.065 57.3788 201.247 56.8864L205.088 57.3182C204.846 58.3333 204.384 59.2197 203.702 59.9773C203.027 60.7273 202.164 61.3106 201.111 61.7273C200.058 62.1364 198.853 62.3409 197.497 62.3409ZM217.455 44.5455V47.7273H207.42V44.5455H217.455ZM209.898 40.3636H214.011V56.75C214.011 57.303 214.095 57.7273 214.261 58.0227C214.436 58.3106 214.663 58.5076 214.943 58.6136C215.223 58.7197 215.534 58.7727 215.875 58.7727C216.133 58.7727 216.367 58.7538 216.58 58.7159C216.799 58.678 216.966 58.6439 217.08 58.6136L217.773 61.8295C217.553 61.9053 217.239 61.9886 216.83 62.0795C216.428 62.1705 215.936 62.2235 215.352 62.2386C214.322 62.2689 213.394 62.1136 212.568 61.7727C211.742 61.4242 211.087 60.8864 210.602 60.1591C210.125 59.4318 209.89 58.5227 209.898 57.4318V40.3636ZM229.611 44.5455V47.7273H219.577V44.5455H229.611ZM222.054 40.3636H226.168V56.75C226.168 57.303 226.251 57.7273 226.418 58.0227C226.592 58.3106 226.819 58.5076 227.099 58.6136C227.38 58.7197 227.69 58.7727 228.031 58.7727C228.289 58.7727 228.524 58.7538 228.736 58.7159C228.955 58.678 229.122 58.6439 229.236 58.6136L229.929 61.8295C229.709 61.9053 229.395 61.9886 228.986 62.0795C228.584 62.1705 228.092 62.2235 227.509 62.2386C226.478 62.2689 225.55 62.1136 224.724 61.7727C223.899 61.4242 223.243 60.8864 222.759 60.1591C222.281 59.4318 222.046 58.5227 222.054 57.4318V40.3636ZM233.051 62V44.5455H237.165V62H233.051ZM235.119 42.0682C234.468 42.0682 233.907 41.8523 233.438 41.4205C232.968 40.9811 232.733 40.4545 232.733 39.8409C232.733 39.2197 232.968 38.6932 233.438 38.2614C233.907 37.822 234.468 37.6023 235.119 37.6023C235.778 37.6023 236.339 37.822 236.801 38.2614C237.271 38.6932 237.506 39.2197 237.506 39.8409C237.506 40.4545 237.271 40.9811 236.801 41.4205C236.339 41.8523 235.778 42.0682 235.119 42.0682ZM245.509 51.7727V62H241.395V44.5455H245.327V47.5114H245.531C245.933 46.5341 246.573 45.7576 247.452 45.1818C248.338 44.6061 249.433 44.3182 250.736 44.3182C251.94 44.3182 252.99 44.5758 253.884 45.0909C254.785 45.6061 255.482 46.3523 255.974 47.3295C256.474 48.3068 256.721 49.4924 256.713 50.8864V62H252.599V51.5227C252.599 50.3561 252.296 49.4432 251.69 48.7841C251.092 48.125 250.262 47.7955 249.202 47.7955C248.482 47.7955 247.842 47.9545 247.281 48.2727C246.728 48.5833 246.293 49.0341 245.974 49.625C245.664 50.2159 245.509 50.9318 245.509 51.7727ZM268.486 68.9091C267.009 68.9091 265.74 68.7083 264.679 68.3068C263.618 67.9129 262.766 67.3826 262.122 66.7159C261.478 66.0492 261.031 65.3106 260.781 64.5L264.486 63.6023C264.652 63.9432 264.895 64.2803 265.213 64.6136C265.531 64.9545 265.959 65.2348 266.497 65.4545C267.043 65.6818 267.728 65.7955 268.554 65.7955C269.721 65.7955 270.687 65.5114 271.452 64.9432C272.217 64.3826 272.599 63.4583 272.599 62.1705V58.8636H272.395C272.183 59.2879 271.872 59.7235 271.463 60.1705C271.062 60.6174 270.527 60.9924 269.861 61.2955C269.202 61.5985 268.372 61.75 267.372 61.75C266.031 61.75 264.815 61.4356 263.724 60.8068C262.641 60.1705 261.777 59.2235 261.134 57.9659C260.497 56.7008 260.179 55.1174 260.179 53.2159C260.179 51.2992 260.497 49.6818 261.134 48.3636C261.777 47.0379 262.645 46.0341 263.736 45.3523C264.827 44.6629 266.043 44.3182 267.384 44.3182C268.406 44.3182 269.247 44.4924 269.906 44.8409C270.573 45.1818 271.103 45.5947 271.497 46.0795C271.891 46.5568 272.19 47.0076 272.395 47.4318H272.622V44.5455H276.679V62.2841C276.679 63.7765 276.323 65.0114 275.611 65.9886C274.899 66.9659 273.925 67.697 272.69 68.1818C271.455 68.6667 270.054 68.9091 268.486 68.9091ZM268.52 58.5227C269.391 58.5227 270.134 58.3106 270.747 57.8864C271.361 57.4621 271.827 56.8523 272.145 56.0568C272.463 55.2614 272.622 54.3068 272.622 53.1932C272.622 52.0947 272.463 51.1326 272.145 50.3068C271.834 49.4811 271.372 48.8409 270.759 48.3864C270.152 47.9242 269.406 47.6932 268.52 47.6932C267.603 47.6932 266.838 47.9318 266.224 48.4091C265.611 48.8864 265.149 49.5417 264.838 50.375C264.527 51.2008 264.372 52.1402 264.372 53.1932C264.372 54.2614 264.527 55.197 264.838 56C265.156 56.7955 265.622 57.4167 266.236 57.8636C266.857 58.303 267.618 58.5227 268.52 58.5227ZM294.69 49.1591L290.94 49.5682C290.834 49.1894 290.649 48.8333 290.384 48.5C290.126 48.1667 289.777 47.8977 289.338 47.6932C288.899 47.4886 288.361 47.3864 287.724 47.3864C286.868 47.3864 286.149 47.572 285.565 47.9432C284.99 48.3144 284.705 48.7955 284.713 49.3864C284.705 49.8939 284.891 50.3068 285.27 50.625C285.656 50.9432 286.293 51.2045 287.179 51.4091L290.156 52.0455C291.808 52.4015 293.035 52.9659 293.838 53.7386C294.649 54.5114 295.058 55.5227 295.065 56.7727C295.058 57.8712 294.736 58.8409 294.099 59.6818C293.471 60.5152 292.596 61.1667 291.474 61.6364C290.353 62.1061 289.065 62.3409 287.611 62.3409C285.474 62.3409 283.755 61.8939 282.452 61C281.149 60.0985 280.372 58.8447 280.122 57.2386L284.134 56.8523C284.315 57.6402 284.702 58.2348 285.293 58.6364C285.884 59.0379 286.652 59.2386 287.599 59.2386C288.577 59.2386 289.361 59.0379 289.952 58.6364C290.55 58.2348 290.849 57.7386 290.849 57.1477C290.849 56.6477 290.656 56.2348 290.27 55.9091C289.891 55.5833 289.3 55.3333 288.497 55.1591L285.52 54.5341C283.846 54.1856 282.607 53.5985 281.804 52.7727C281.001 51.9394 280.603 50.8864 280.611 49.6136C280.603 48.5379 280.895 47.6061 281.486 46.8182C282.084 46.0227 282.914 45.4091 283.974 44.9773C285.043 44.5379 286.274 44.3182 287.668 44.3182C289.713 44.3182 291.323 44.7538 292.497 45.625C293.679 46.4962 294.41 47.6742 294.69 49.1591ZM307.418 50.3636C307.418 47.5227 307.793 44.9129 308.543 42.5341C309.3 40.1477 310.425 37.9432 311.918 35.9205H315.793C315.217 36.6705 314.679 37.5909 314.179 38.6818C313.679 39.7652 313.243 40.9545 312.872 42.25C312.509 43.5379 312.221 44.875 312.009 46.2614C311.804 47.6477 311.702 49.0152 311.702 50.3636C311.702 52.1591 311.88 53.9773 312.236 55.8182C312.599 57.6591 313.088 59.3674 313.702 60.9432C314.323 62.5114 315.02 63.7955 315.793 64.7955H311.918C310.425 62.7727 309.3 60.572 308.543 58.1932C307.793 55.8068 307.418 53.197 307.418 50.3636ZM319.17 38.7273H324.33L331.239 55.5909H331.511L338.42 38.7273H343.58V62H339.534V46.0114H339.318L332.886 61.9318H329.864L323.432 45.9773H323.216V62H319.17V38.7273ZM368.966 50.3636C368.966 52.8712 368.496 55.0189 367.557 56.8068C366.625 58.5871 365.352 59.9508 363.739 60.8977C362.133 61.8447 360.311 62.3182 358.273 62.3182C356.235 62.3182 354.409 61.8447 352.795 60.8977C351.189 59.9432 349.917 58.5758 348.977 56.7955C348.045 55.0076 347.58 52.8636 347.58 50.3636C347.58 47.8561 348.045 45.7121 348.977 43.9318C349.917 42.1439 351.189 40.7765 352.795 39.8295C354.409 38.8826 356.235 38.4091 358.273 38.4091C360.311 38.4091 362.133 38.8826 363.739 39.8295C365.352 40.7765 366.625 42.1439 367.557 43.9318C368.496 45.7121 368.966 47.8561 368.966 50.3636ZM364.727 50.3636C364.727 48.5985 364.451 47.1098 363.898 45.8977C363.352 44.678 362.595 43.7576 361.625 43.1364C360.655 42.5076 359.538 42.1932 358.273 42.1932C357.008 42.1932 355.89 42.5076 354.92 43.1364C353.951 43.7576 353.189 44.678 352.636 45.8977C352.091 47.1098 351.818 48.5985 351.818 50.3636C351.818 52.1288 352.091 53.6212 352.636 54.8409C353.189 56.053 353.951 56.9735 354.92 57.6023C355.89 58.2235 357.008 58.5341 358.273 58.5341C359.538 58.5341 360.655 58.2235 361.625 57.6023C362.595 56.9735 363.352 56.053 363.898 54.8409C364.451 53.6212 364.727 52.1288 364.727 50.3636ZM372.952 62V38.7273H381.861C383.543 38.7273 384.94 38.9924 386.054 39.5227C387.175 40.0455 388.012 40.7614 388.565 41.6705C389.126 42.5795 389.406 43.6098 389.406 44.7614C389.406 45.7083 389.224 46.5189 388.861 47.1932C388.497 47.8598 388.009 48.4015 387.395 48.8182C386.781 49.2348 386.096 49.5341 385.338 49.7159V49.9432C386.164 49.9886 386.955 50.2424 387.713 50.7045C388.478 51.1591 389.103 51.803 389.588 52.6364C390.073 53.4697 390.315 54.4773 390.315 55.6591C390.315 56.8636 390.024 57.947 389.44 58.9091C388.857 59.8636 387.978 60.6174 386.804 61.1705C385.63 61.7235 384.152 62 382.372 62H372.952ZM377.168 58.4773H381.702C383.232 58.4773 384.334 58.1856 385.009 57.6023C385.69 57.0114 386.031 56.2538 386.031 55.3295C386.031 54.6402 385.861 54.0189 385.52 53.4659C385.179 52.9053 384.694 52.4659 384.065 52.1477C383.437 51.822 382.687 51.6591 381.815 51.6591H377.168V58.4773ZM377.168 48.625H381.338C382.065 48.625 382.721 48.4924 383.304 48.2273C383.887 47.9545 384.346 47.572 384.679 47.0795C385.02 46.5795 385.19 45.9886 385.19 45.3068C385.19 44.4053 384.872 43.6629 384.236 43.0795C383.607 42.4962 382.671 42.2045 381.429 42.2045H377.168V48.625ZM398.199 38.7273V62H393.983V38.7273H398.199ZM402.764 62V38.7273H406.98V58.4659H417.23V62H402.764ZM420.889 62V38.7273H436.026V42.2614H425.105V48.5795H435.241V52.1136H425.105V58.4659H436.116V62H420.889ZM467.389 38.7273V62H463.639L452.673 46.1477H452.48V62H448.264V38.7273H452.037L462.991 54.5909H463.196V38.7273H467.389ZM492.778 50.3636C492.778 52.8712 492.309 55.0189 491.369 56.8068C490.438 58.5871 489.165 59.9508 487.551 60.8977C485.945 61.8447 484.123 62.3182 482.085 62.3182C480.047 62.3182 478.222 61.8447 476.608 60.8977C475.002 59.9432 473.729 58.5758 472.79 56.7955C471.858 55.0076 471.392 52.8636 471.392 50.3636C471.392 47.8561 471.858 45.7121 472.79 43.9318C473.729 42.1439 475.002 40.7765 476.608 39.8295C478.222 38.8826 480.047 38.4091 482.085 38.4091C484.123 38.4091 485.945 38.8826 487.551 39.8295C489.165 40.7765 490.438 42.1439 491.369 43.9318C492.309 45.7121 492.778 47.8561 492.778 50.3636ZM488.54 50.3636C488.54 48.5985 488.263 47.1098 487.71 45.8977C487.165 44.678 486.407 43.7576 485.438 43.1364C484.468 42.5076 483.35 42.1932 482.085 42.1932C480.82 42.1932 479.703 42.5076 478.733 43.1364C477.763 43.7576 477.002 44.678 476.449 45.8977C475.903 47.1098 475.631 48.5985 475.631 50.3636C475.631 52.1288 475.903 53.6212 476.449 54.8409C477.002 56.053 477.763 56.9735 478.733 57.6023C479.703 58.2235 480.82 58.5341 482.085 58.5341C483.35 58.5341 484.468 58.2235 485.438 57.6023C486.407 56.9735 487.165 56.053 487.71 54.8409C488.263 53.6212 488.54 52.1288 488.54 50.3636ZM494.71 42.2614V38.7273H513.278V42.2614H506.085V62H501.903V42.2614H494.71ZM521.074 38.7273V62H516.858V38.7273H521.074ZM525.639 62V38.7273H540.548V42.2614H529.855V48.5795H539.526V52.1136H529.855V62H525.639ZM548.605 38.7273V62H544.389V38.7273H548.605ZM573.091 46.5795H568.841C568.72 45.8826 568.496 45.2652 568.17 44.7273C567.845 44.1818 567.439 43.7197 566.955 43.3409C566.47 42.9621 565.917 42.678 565.295 42.4886C564.682 42.2917 564.019 42.1932 563.307 42.1932C562.042 42.1932 560.92 42.5114 559.943 43.1477C558.966 43.7765 558.201 44.7008 557.648 45.9205C557.095 47.1326 556.818 48.6136 556.818 50.3636C556.818 52.1439 557.095 53.6439 557.648 54.8636C558.208 56.0758 558.973 56.9924 559.943 57.6136C560.92 58.2273 562.038 58.5341 563.295 58.5341C563.992 58.5341 564.644 58.4432 565.25 58.2614C565.864 58.072 566.413 57.7955 566.898 57.4318C567.39 57.0682 567.803 56.6212 568.136 56.0909C568.477 55.5606 568.712 54.9545 568.841 54.2727L573.091 54.2955C572.932 55.4015 572.587 56.4394 572.057 57.4091C571.534 58.3788 570.848 59.2348 570 59.9773C569.152 60.7121 568.159 61.2879 567.023 61.7045C565.886 62.1136 564.625 62.3182 563.239 62.3182C561.193 62.3182 559.367 61.8447 557.761 60.8977C556.155 59.9508 554.89 58.5833 553.966 56.7955C553.042 55.0076 552.58 52.8636 552.58 50.3636C552.58 47.8561 553.045 45.7121 553.977 43.9318C554.909 42.1439 556.178 40.7765 557.784 39.8295C559.39 38.8826 561.208 38.4091 563.239 38.4091C564.534 38.4091 565.739 38.5909 566.852 38.9545C567.966 39.3182 568.958 39.8523 569.83 40.5568C570.701 41.2538 571.417 42.1098 571.977 43.125C572.545 44.1326 572.917 45.2841 573.091 46.5795ZM579.659 62H575.159L583.352 38.7273H588.557L596.761 62H592.261L586.045 43.5H585.864L579.659 62ZM579.807 52.875H592.08V56.2614H579.807V52.875ZM595.991 42.2614V38.7273H614.56V42.2614H607.366V62H603.185V42.2614H595.991ZM622.355 38.7273V62H618.139V38.7273H622.355ZM647.716 50.3636C647.716 52.8712 647.246 55.0189 646.307 56.8068C645.375 58.5871 644.102 59.9508 642.489 60.8977C640.883 61.8447 639.061 62.3182 637.023 62.3182C634.985 62.3182 633.159 61.8447 631.545 60.8977C629.939 59.9432 628.667 58.5758 627.727 56.7955C626.795 55.0076 626.33 52.8636 626.33 50.3636C626.33 47.8561 626.795 45.7121 627.727 43.9318C628.667 42.1439 629.939 40.7765 631.545 39.8295C633.159 38.8826 634.985 38.4091 637.023 38.4091C639.061 38.4091 640.883 38.8826 642.489 39.8295C644.102 40.7765 645.375 42.1439 646.307 43.9318C647.246 45.7121 647.716 47.8561 647.716 50.3636ZM643.477 50.3636C643.477 48.5985 643.201 47.1098 642.648 45.8977C642.102 44.678 641.345 43.7576 640.375 43.1364C639.405 42.5076 638.288 42.1932 637.023 42.1932C635.758 42.1932 634.64 42.5076 633.67 43.1364C632.701 43.7576 631.939 44.678 631.386 45.8977C630.841 47.1098 630.568 48.5985 630.568 50.3636C630.568 52.1288 630.841 53.6212 631.386 54.8409C631.939 56.053 632.701 56.9735 633.67 57.6023C634.64 58.2235 635.758 58.5341 637.023 58.5341C638.288 58.5341 639.405 58.2235 640.375 57.6023C641.345 56.9735 642.102 56.053 642.648 54.8409C643.201 53.6212 643.477 52.1288 643.477 50.3636ZM670.827 38.7273V62H667.077L656.111 46.1477H655.918V62H651.702V38.7273H655.474L666.429 54.5909H666.634V38.7273H670.827ZM682.58 50.3636C682.58 53.197 682.201 55.8068 681.443 58.1932C680.693 60.572 679.572 62.7727 678.08 64.7955H674.205C674.788 64.0455 675.326 63.1288 675.818 62.0455C676.318 60.9621 676.75 59.7727 677.114 58.4773C677.485 57.1818 677.773 55.8409 677.977 54.4545C678.189 53.0682 678.295 51.7045 678.295 50.3636C678.295 48.5682 678.114 46.75 677.75 44.9091C677.394 43.0682 676.905 41.3598 676.284 39.7841C675.67 38.2083 674.977 36.9205 674.205 35.9205H678.08C679.572 37.9432 680.693 40.1477 681.443 42.5341C682.201 44.9129 682.58 47.5227 682.58 50.3636ZM695.77 62V44.5455H699.884V62H695.77ZM697.838 42.0682C697.187 42.0682 696.626 41.8523 696.156 41.4205C695.687 40.9811 695.452 40.4545 695.452 39.8409C695.452 39.2197 695.687 38.6932 696.156 38.2614C696.626 37.822 697.187 37.6023 697.838 37.6023C698.497 37.6023 699.058 37.822 699.52 38.2614C699.99 38.6932 700.224 39.2197 700.224 39.8409C700.224 40.4545 699.99 40.9811 699.52 41.4205C699.058 41.8523 698.497 42.0682 697.838 42.0682ZM712.955 44.5455V47.7273H702.636V44.5455H712.955ZM705.216 62V42.8977C705.216 41.7235 705.458 40.7462 705.943 39.9659C706.436 39.1856 707.095 38.6023 707.92 38.2159C708.746 37.8295 709.663 37.6364 710.67 37.6364C711.383 37.6364 712.015 37.6932 712.568 37.8068C713.121 37.9205 713.53 38.0227 713.795 38.1136L712.977 41.2955C712.803 41.2424 712.583 41.1894 712.318 41.1364C712.053 41.0758 711.758 41.0455 711.432 41.0455C710.667 41.0455 710.125 41.2311 709.807 41.6023C709.496 41.9659 709.341 42.4886 709.341 43.1705V62H705.216ZM724.114 68.5455V44.5455H728.159V47.4318H728.398C728.61 47.0076 728.909 46.5568 729.295 46.0795C729.682 45.5947 730.205 45.1818 730.864 44.8409C731.523 44.4924 732.364 44.3182 733.386 44.3182C734.735 44.3182 735.951 44.6629 737.034 45.3523C738.125 46.0341 738.989 47.0455 739.625 48.3864C740.269 49.7197 740.591 51.3561 740.591 53.2955C740.591 55.2121 740.277 56.8409 739.648 58.1818C739.019 59.5227 738.163 60.5455 737.08 61.25C735.996 61.9545 734.769 62.3068 733.398 62.3068C732.398 62.3068 731.568 62.1402 730.909 61.8068C730.25 61.4735 729.72 61.072 729.318 60.6023C728.924 60.125 728.617 59.6742 728.398 59.25H728.227V68.5455H724.114ZM728.148 53.2727C728.148 54.4015 728.307 55.3902 728.625 56.2386C728.951 57.0871 729.417 57.75 730.023 58.2273C730.636 58.697 731.379 58.9318 732.25 58.9318C733.159 58.9318 733.92 58.6894 734.534 58.2045C735.148 57.7121 735.61 57.0417 735.92 56.1932C736.239 55.3371 736.398 54.3636 736.398 53.2727C736.398 52.1894 736.242 51.2273 735.932 50.3864C735.621 49.5455 735.159 48.8864 734.545 48.4091C733.932 47.9318 733.167 47.6932 732.25 47.6932C731.371 47.6932 730.625 47.9242 730.011 48.3864C729.398 48.8485 728.932 49.4962 728.614 50.3295C728.303 51.1629 728.148 52.1439 728.148 53.2727ZM748.227 51.7727V62H744.114V38.7273H748.136V47.5114H748.341C748.75 46.5265 749.383 45.75 750.239 45.1818C751.102 44.6061 752.201 44.3182 753.534 44.3182C754.746 44.3182 755.803 44.572 756.705 45.0795C757.606 45.5871 758.303 46.3295 758.795 47.3068C759.295 48.2841 759.545 49.4773 759.545 50.8864V62H755.432V51.5227C755.432 50.3485 755.129 49.4356 754.523 48.7841C753.924 48.125 753.083 47.7955 752 47.7955C751.273 47.7955 750.621 47.9545 750.045 48.2727C749.477 48.5833 749.03 49.0341 748.705 49.625C748.386 50.2159 748.227 50.9318 748.227 51.7727ZM771.352 62.3409C769.648 62.3409 768.17 61.9659 766.92 61.2159C765.67 60.4659 764.701 59.4167 764.011 58.0682C763.33 56.7197 762.989 55.1439 762.989 53.3409C762.989 51.5379 763.33 49.9583 764.011 48.6023C764.701 47.2462 765.67 46.1932 766.92 45.4432C768.17 44.6932 769.648 44.3182 771.352 44.3182C773.057 44.3182 774.534 44.6932 775.784 45.4432C777.034 46.1932 778 47.2462 778.682 48.6023C779.371 49.9583 779.716 51.5379 779.716 53.3409C779.716 55.1439 779.371 56.7197 778.682 58.0682C778 59.4167 777.034 60.4659 775.784 61.2159C774.534 61.9659 773.057 62.3409 771.352 62.3409ZM771.375 59.0455C772.299 59.0455 773.072 58.7917 773.693 58.2841C774.314 57.7689 774.777 57.0795 775.08 56.2159C775.39 55.3523 775.545 54.3902 775.545 53.3295C775.545 52.2614 775.39 51.2955 775.08 50.4318C774.777 49.5606 774.314 48.8674 773.693 48.3523C773.072 47.8371 772.299 47.5795 771.375 47.5795C770.428 47.5795 769.64 47.8371 769.011 48.3523C768.39 48.8674 767.924 49.5606 767.614 50.4318C767.311 51.2955 767.159 52.2614 767.159 53.3295C767.159 54.3902 767.311 55.3523 767.614 56.2159C767.924 57.0795 768.39 57.7689 769.011 58.2841C769.64 58.7917 770.428 59.0455 771.375 59.0455ZM787.321 51.7727V62H783.207V44.5455H787.139V47.5114H787.344C787.745 46.5341 788.385 45.7576 789.264 45.1818C790.151 44.6061 791.245 44.3182 792.548 44.3182C793.753 44.3182 794.802 44.5758 795.696 45.0909C796.598 45.6061 797.295 46.3523 797.787 47.3295C798.287 48.3068 798.533 49.4924 798.526 50.8864V62H794.412V51.5227C794.412 50.3561 794.109 49.4432 793.503 48.7841C792.904 48.125 792.075 47.7955 791.014 47.7955C790.295 47.7955 789.654 47.9545 789.094 48.2727C788.541 48.5833 788.105 49.0341 787.787 49.625C787.476 50.2159 787.321 50.9318 787.321 51.7727ZM810.435 62.3409C808.685 62.3409 807.173 61.9773 805.901 61.25C804.635 60.5152 803.662 59.4773 802.98 58.1364C802.298 56.7879 801.957 55.2008 801.957 53.375C801.957 51.5795 802.298 50.0038 802.98 48.6477C803.67 47.2841 804.632 46.2235 805.866 45.4659C807.101 44.7008 808.552 44.3182 810.219 44.3182C811.295 44.3182 812.31 44.4924 813.264 44.8409C814.226 45.1818 815.075 45.7121 815.81 46.4318C816.552 47.1515 817.135 48.0682 817.56 49.1818C817.984 50.2879 818.196 51.6061 818.196 53.1364V54.3977H803.889V51.625H814.253C814.245 50.8371 814.075 50.1364 813.741 49.5227C813.408 48.9015 812.942 48.4129 812.344 48.0568C811.753 47.7008 811.063 47.5227 810.276 47.5227C809.435 47.5227 808.696 47.7273 808.06 48.1364C807.423 48.5379 806.927 49.0682 806.571 49.7273C806.223 50.3788 806.045 51.0947 806.037 51.875V54.2955C806.037 55.3106 806.223 56.1818 806.594 56.9091C806.965 57.6288 807.484 58.1818 808.151 58.5682C808.817 58.947 809.598 59.1364 810.491 59.1364C811.09 59.1364 811.632 59.053 812.116 58.8864C812.601 58.7121 813.022 58.4583 813.378 58.125C813.734 57.7917 814.003 57.3788 814.185 56.8864L818.026 57.3182C817.783 58.3333 817.321 59.2197 816.639 59.9773C815.965 60.7273 815.101 61.3106 814.048 61.7273C812.995 62.1364 811.791 62.3409 810.435 62.3409ZM833.727 51.7727V62H829.614V44.5455H833.545V47.5114H833.75C834.152 46.5341 834.792 45.7576 835.67 45.1818C836.557 44.6061 837.652 44.3182 838.955 44.3182C840.159 44.3182 841.208 44.5758 842.102 45.0909C843.004 45.6061 843.701 46.3523 844.193 47.3295C844.693 48.3068 844.939 49.4924 844.932 50.8864V62H840.818V51.5227C840.818 50.3561 840.515 49.4432 839.909 48.7841C839.311 48.125 838.481 47.7955 837.42 47.7955C836.701 47.7955 836.061 47.9545 835.5 48.2727C834.947 48.5833 834.511 49.0341 834.193 49.625C833.883 50.2159 833.727 50.9318 833.727 51.7727ZM860.239 54.6591V44.5455H864.352V62H860.364V58.8977H860.182C859.788 59.875 859.14 60.6742 858.239 61.2955C857.345 61.9167 856.242 62.2273 854.932 62.2273C853.788 62.2273 852.777 61.9735 851.898 61.4659C851.027 60.9508 850.345 60.2045 849.852 59.2273C849.36 58.2424 849.114 57.053 849.114 55.6591V44.5455H853.227V55.0227C853.227 56.1288 853.53 57.0076 854.136 57.6591C854.742 58.3106 855.538 58.6364 856.523 58.6364C857.129 58.6364 857.716 58.4886 858.284 58.1932C858.852 57.8977 859.318 57.4583 859.682 56.875C860.053 56.2841 860.239 55.5455 860.239 54.6591ZM868.582 62V44.5455H872.514V47.5114H872.719C873.082 46.5114 873.685 45.7311 874.526 45.1705C875.366 44.6023 876.37 44.3182 877.537 44.3182C878.719 44.3182 879.715 44.6061 880.526 45.1818C881.344 45.75 881.92 46.5265 882.253 47.5114H882.435C882.821 46.5417 883.473 45.7689 884.389 45.1932C885.313 44.6098 886.408 44.3182 887.673 44.3182C889.279 44.3182 890.59 44.8258 891.605 45.8409C892.62 46.8561 893.128 48.3371 893.128 50.2841V62H889.003V50.9205C889.003 49.8371 888.715 49.0455 888.139 48.5455C887.563 48.0379 886.859 47.7841 886.026 47.7841C885.033 47.7841 884.257 48.0947 883.696 48.7159C883.143 49.3295 882.866 50.1288 882.866 51.1136V62H878.832V50.75C878.832 49.8485 878.56 49.1288 878.014 48.5909C877.476 48.053 876.772 47.7841 875.901 47.7841C875.31 47.7841 874.772 47.9356 874.287 48.2386C873.802 48.5341 873.416 48.9545 873.128 49.5C872.84 50.0379 872.696 50.6667 872.696 51.3864V62H868.582ZM897.483 62V38.7273H901.597V47.4318H901.767C901.979 47.0076 902.278 46.5568 902.665 46.0795C903.051 45.5947 903.574 45.1818 904.233 44.8409C904.892 44.4924 905.733 44.3182 906.756 44.3182C908.104 44.3182 909.32 44.6629 910.403 45.3523C911.494 46.0341 912.358 47.0455 912.994 48.3864C913.638 49.7197 913.96 51.3561 913.96 53.2955C913.96 55.2121 913.646 56.8409 913.017 58.1818C912.388 59.5227 911.532 60.5455 910.449 61.25C909.366 61.9545 908.138 62.3068 906.767 62.3068C905.767 62.3068 904.938 62.1402 904.278 61.8068C903.619 61.4735 903.089 61.072 902.688 60.6023C902.294 60.125 901.987 59.6742 901.767 59.25H901.528V62H897.483ZM901.517 53.2727C901.517 54.4015 901.676 55.3902 901.994 56.2386C902.32 57.0871 902.786 57.75 903.392 58.2273C904.006 58.697 904.748 58.9318 905.619 58.9318C906.528 58.9318 907.29 58.6894 907.903 58.2045C908.517 57.7121 908.979 57.0417 909.29 56.1932C909.608 55.3371 909.767 54.3636 909.767 53.2727C909.767 52.1894 909.612 51.2273 909.301 50.3864C908.991 49.5455 908.528 48.8864 907.915 48.4091C907.301 47.9318 906.536 47.6932 905.619 47.6932C904.741 47.6932 903.994 47.9242 903.381 48.3864C902.767 48.8485 902.301 49.4962 901.983 50.3295C901.672 51.1629 901.517 52.1439 901.517 53.2727ZM925.185 62.3409C923.435 62.3409 921.923 61.9773 920.651 61.25C919.385 60.5152 918.412 59.4773 917.73 58.1364C917.048 56.7879 916.707 55.2008 916.707 53.375C916.707 51.5795 917.048 50.0038 917.73 48.6477C918.42 47.2841 919.382 46.2235 920.616 45.4659C921.851 44.7008 923.302 44.3182 924.969 44.3182C926.045 44.3182 927.06 44.4924 928.014 44.8409C928.976 45.1818 929.825 45.7121 930.56 46.4318C931.302 47.1515 931.885 48.0682 932.31 49.1818C932.734 50.2879 932.946 51.6061 932.946 53.1364V54.3977H918.639V51.625H929.003C928.995 50.8371 928.825 50.1364 928.491 49.5227C928.158 48.9015 927.692 48.4129 927.094 48.0568C926.503 47.7008 925.813 47.5227 925.026 47.5227C924.185 47.5227 923.446 47.7273 922.81 48.1364C922.173 48.5379 921.677 49.0682 921.321 49.7273C920.973 50.3788 920.795 51.0947 920.787 51.875V54.2955C920.787 55.3106 920.973 56.1818 921.344 56.9091C921.715 57.6288 922.234 58.1818 922.901 58.5682C923.567 58.947 924.348 59.1364 925.241 59.1364C925.84 59.1364 926.382 59.053 926.866 58.8864C927.351 58.7121 927.772 58.4583 928.128 58.125C928.484 57.7917 928.753 57.3788 928.935 56.8864L932.776 57.3182C932.533 58.3333 932.071 59.2197 931.389 59.9773C930.715 60.7273 929.851 61.3106 928.798 61.7273C927.745 62.1364 926.541 62.3409 925.185 62.3409ZM936.426 62V44.5455H940.415V47.4545H940.597C940.915 46.447 941.46 45.6705 942.233 45.125C943.013 44.572 943.903 44.2955 944.903 44.2955C945.131 44.2955 945.384 44.3068 945.665 44.3295C945.953 44.3447 946.191 44.3712 946.381 44.4091V48.1932C946.206 48.1326 945.93 48.0795 945.551 48.0341C945.18 47.9811 944.82 47.9545 944.472 47.9545C943.722 47.9545 943.047 48.1174 942.449 48.4432C941.858 48.7614 941.392 49.2045 941.051 49.7727C940.71 50.3409 940.54 50.9962 940.54 51.7386V62H936.426ZM961.165 51.7727V62H957.051V44.5455H960.983V47.5114H961.188C961.589 46.5341 962.229 45.7576 963.108 45.1818C963.994 44.6061 965.089 44.3182 966.392 44.3182C967.597 44.3182 968.646 44.5758 969.54 45.0909C970.441 45.6061 971.138 46.3523 971.631 47.3295C972.131 48.3068 972.377 49.4924 972.369 50.8864V62H968.256V51.5227C968.256 50.3561 967.953 49.4432 967.347 48.7841C966.748 48.125 965.919 47.7955 964.858 47.7955C964.138 47.7955 963.498 47.9545 962.938 48.2727C962.384 48.5833 961.949 49.0341 961.631 49.625C961.32 50.2159 961.165 50.9318 961.165 51.7727ZM984.165 62.3409C982.46 62.3409 980.983 61.9659 979.733 61.2159C978.483 60.4659 977.513 59.4167 976.824 58.0682C976.142 56.7197 975.801 55.1439 975.801 53.3409C975.801 51.5379 976.142 49.9583 976.824 48.6023C977.513 47.2462 978.483 46.1932 979.733 45.4432C980.983 44.6932 982.46 44.3182 984.165 44.3182C985.869 44.3182 987.347 44.6932 988.597 45.4432C989.847 46.1932 990.813 47.2462 991.494 48.6023C992.184 49.9583 992.528 51.5379 992.528 53.3409C992.528 55.1439 992.184 56.7197 991.494 58.0682C990.813 59.4167 989.847 60.4659 988.597 61.2159C987.347 61.9659 985.869 62.3409 984.165 62.3409ZM984.188 59.0455C985.112 59.0455 985.884 58.7917 986.506 58.2841C987.127 57.7689 987.589 57.0795 987.892 56.2159C988.203 55.3523 988.358 54.3902 988.358 53.3295C988.358 52.2614 988.203 51.2955 987.892 50.4318C987.589 49.5606 987.127 48.8674 986.506 48.3523C985.884 47.8371 985.112 47.5795 984.188 47.5795C983.241 47.5795 982.453 47.8371 981.824 48.3523C981.203 48.8674 980.737 49.5606 980.426 50.4318C980.123 51.2955 979.972 52.2614 979.972 53.3295C979.972 54.3902 980.123 55.3523 980.426 56.2159C980.737 57.0795 981.203 57.7689 981.824 58.2841C982.453 58.7917 983.241 59.0455 984.188 59.0455ZM1004.74 44.5455V47.7273H994.702V44.5455H1004.74ZM997.179 40.3636H1001.29V56.75C1001.29 57.303 1001.38 57.7273 1001.54 58.0227C1001.72 58.3106 1001.94 58.5076 1002.22 58.6136C1002.5 58.7197 1002.82 58.7727 1003.16 58.7727C1003.41 58.7727 1003.65 58.7538 1003.86 58.7159C1004.08 58.678 1004.25 58.6439 1004.36 58.6136L1005.05 61.8295C1004.83 61.9053 1004.52 61.9886 1004.11 62.0795C1003.71 62.1705 1003.22 62.2235 1002.63 62.2386C1001.6 62.2689 1000.68 62.1136 999.849 61.7727C999.024 61.4242 998.368 60.8864 997.884 60.1591C997.406 59.4318 997.171 58.5227 997.179 57.4318V40.3636ZM1021.14 62.3523C1020.03 62.3523 1019.03 62.1553 1018.15 61.7614C1017.27 61.3598 1016.57 60.7689 1016.06 59.9886C1015.55 59.2083 1015.3 58.2462 1015.3 57.1023C1015.3 56.1174 1015.48 55.303 1015.84 54.6591C1016.2 54.0152 1016.7 53.5 1017.33 53.1136C1017.96 52.7273 1018.67 52.4356 1019.45 52.2386C1020.25 52.0341 1021.07 51.8864 1021.92 51.7955C1022.94 51.6894 1023.77 51.5947 1024.41 51.5114C1025.05 51.4205 1025.51 51.2841 1025.8 51.1023C1026.09 50.9129 1026.24 50.6212 1026.24 50.2273V50.1591C1026.24 49.303 1025.98 48.6402 1025.48 48.1705C1024.97 47.7008 1024.24 47.4659 1023.28 47.4659C1022.28 47.4659 1021.48 47.6856 1020.89 48.125C1020.3 48.5644 1019.91 49.0833 1019.7 49.6818L1015.86 49.1364C1016.17 48.0758 1016.67 47.1894 1017.36 46.4773C1018.06 45.7576 1018.91 45.2197 1019.92 44.8636C1020.93 44.5 1022.04 44.3182 1023.26 44.3182C1024.1 44.3182 1024.94 44.4167 1025.77 44.6136C1026.61 44.8106 1027.37 45.1364 1028.06 45.5909C1028.75 46.0379 1029.3 46.6477 1029.72 47.4205C1030.14 48.1932 1030.35 49.1591 1030.35 50.3182V62H1026.4V59.6023H1026.26C1026.01 60.0871 1025.66 60.5417 1025.2 60.9659C1024.76 61.3826 1024.19 61.7197 1023.51 61.9773C1022.84 62.2273 1022.05 62.3523 1021.14 62.3523ZM1022.2 59.3295C1023.03 59.3295 1023.75 59.1667 1024.35 58.8409C1024.96 58.5076 1025.42 58.0682 1025.75 57.5227C1026.08 56.9773 1026.25 56.3826 1026.25 55.7386V53.6818C1026.12 53.7879 1025.9 53.8864 1025.59 53.9773C1025.29 54.0682 1024.95 54.1477 1024.57 54.2159C1024.19 54.2841 1023.81 54.3447 1023.44 54.3977C1023.07 54.4508 1022.75 54.4962 1022.48 54.5341C1021.86 54.6174 1021.31 54.7538 1020.83 54.9432C1020.34 55.1326 1019.96 55.3977 1019.68 55.7386C1019.4 56.072 1019.26 56.5038 1019.26 57.0341C1019.26 57.7917 1019.54 58.3636 1020.09 58.75C1020.64 59.1364 1021.35 59.3295 1022.2 59.3295ZM1040.97 62.3068C1039.59 62.3068 1038.37 61.9545 1037.28 61.25C1036.2 60.5455 1035.34 59.5227 1034.72 58.1818C1034.09 56.8409 1033.77 55.2121 1033.77 53.2955C1033.77 51.3561 1034.09 49.7197 1034.73 48.3864C1035.37 47.0455 1036.24 46.0341 1037.33 45.3523C1038.42 44.6629 1039.64 44.3182 1040.98 44.3182C1042 44.3182 1042.84 44.4924 1043.5 44.8409C1044.16 45.1818 1044.68 45.5947 1045.07 46.0795C1045.45 46.5568 1045.75 47.0076 1045.97 47.4318H1046.14V38.7273H1050.26V62H1046.22V59.25H1045.97C1045.75 59.6742 1045.45 60.125 1045.05 60.6023C1044.64 61.072 1044.11 61.4735 1043.45 61.8068C1042.8 62.1402 1041.97 62.3068 1040.97 62.3068ZM1042.11 58.9318C1042.98 58.9318 1043.73 58.697 1044.34 58.2273C1044.95 57.75 1045.42 57.0871 1045.74 56.2386C1046.06 55.3902 1046.22 54.4015 1046.22 53.2727C1046.22 52.1439 1046.06 51.1629 1045.74 50.3295C1045.43 49.4962 1044.97 48.8485 1044.35 48.3864C1043.75 47.9242 1043 47.6932 1042.11 47.6932C1041.2 47.6932 1040.43 47.9318 1039.82 48.4091C1039.2 48.8864 1038.74 49.5455 1038.43 50.3864C1038.12 51.2273 1037.97 52.1894 1037.97 53.2727C1037.97 54.3636 1038.12 55.3371 1038.43 56.1932C1038.75 57.0417 1039.22 57.7121 1039.83 58.2045C1040.45 58.6894 1041.21 58.9318 1042.11 58.9318ZM1061.12 62.3068C1059.75 62.3068 1058.52 61.9545 1057.44 61.25C1056.36 60.5455 1055.5 59.5227 1054.87 58.1818C1054.24 56.8409 1053.93 55.2121 1053.93 53.2955C1053.93 51.3561 1054.25 49.7197 1054.88 48.3864C1055.53 47.0455 1056.39 46.0341 1057.49 45.3523C1058.58 44.6629 1059.79 44.3182 1061.13 44.3182C1062.16 44.3182 1063 44.4924 1063.66 44.8409C1064.32 45.1818 1064.84 45.5947 1065.22 46.0795C1065.61 46.5568 1065.91 47.0076 1066.12 47.4318H1066.29V38.7273H1070.42V62H1066.37V59.25H1066.12C1065.91 59.6742 1065.6 60.125 1065.2 60.6023C1064.8 61.072 1064.27 61.4735 1063.61 61.8068C1062.95 62.1402 1062.12 62.3068 1061.12 62.3068ZM1062.27 58.9318C1063.14 58.9318 1063.88 58.697 1064.5 58.2273C1065.11 57.75 1065.58 57.0871 1065.89 56.2386C1066.21 55.3902 1066.37 54.4015 1066.37 53.2727C1066.37 52.1439 1066.21 51.1629 1065.89 50.3295C1065.58 49.4962 1065.12 48.8485 1064.51 48.3864C1063.9 47.9242 1063.16 47.6932 1062.27 47.6932C1061.35 47.6932 1060.59 47.9318 1059.97 48.4091C1059.36 48.8864 1058.9 49.5455 1058.59 50.3864C1058.28 51.2273 1058.12 52.1894 1058.12 53.2727C1058.12 54.3636 1058.28 55.3371 1058.59 56.1932C1058.91 57.0417 1059.37 57.7121 1059.99 58.2045C1060.61 58.6894 1061.37 58.9318 1062.27 58.9318ZM1082.53 62.3409C1080.78 62.3409 1079.27 61.9773 1077.99 61.25C1076.73 60.5152 1075.76 59.4773 1075.07 58.1364C1074.39 56.7879 1074.05 55.2008 1074.05 53.375C1074.05 51.5795 1074.39 50.0038 1075.07 48.6477C1075.76 47.2841 1076.73 46.2235 1077.96 45.4659C1079.2 44.7008 1080.65 44.3182 1082.31 44.3182C1083.39 44.3182 1084.4 44.4924 1085.36 44.8409C1086.32 45.1818 1087.17 45.7121 1087.9 46.4318C1088.65 47.1515 1089.23 48.0682 1089.65 49.1818C1090.08 50.2879 1090.29 51.6061 1090.29 53.1364V54.3977H1075.98V51.625H1086.35C1086.34 50.8371 1086.17 50.1364 1085.84 49.5227C1085.5 48.9015 1085.04 48.4129 1084.44 48.0568C1083.85 47.7008 1083.16 47.5227 1082.37 47.5227C1081.53 47.5227 1080.79 47.7273 1080.15 48.1364C1079.52 48.5379 1079.02 49.0682 1078.66 49.7273C1078.32 50.3788 1078.14 51.0947 1078.13 51.875V54.2955C1078.13 55.3106 1078.32 56.1818 1078.69 56.9091C1079.06 57.6288 1079.58 58.1818 1080.24 58.5682C1080.91 58.947 1081.69 59.1364 1082.59 59.1364C1083.18 59.1364 1083.73 59.053 1084.21 58.8864C1084.7 58.7121 1085.12 58.4583 1085.47 58.125C1085.83 57.7917 1086.1 57.3788 1086.28 56.8864L1090.12 57.3182C1089.88 58.3333 1089.41 59.2197 1088.73 59.9773C1088.06 60.7273 1087.2 61.3106 1086.14 61.7273C1085.09 62.1364 1083.88 62.3409 1082.53 62.3409ZM1100.25 62.3068C1098.88 62.3068 1097.65 61.9545 1096.57 61.25C1095.48 60.5455 1094.63 59.5227 1094 58.1818C1093.37 56.8409 1093.05 55.2121 1093.05 53.2955C1093.05 51.3561 1093.37 49.7197 1094.01 48.3864C1094.65 47.0455 1095.52 46.0341 1096.61 45.3523C1097.7 44.6629 1098.92 44.3182 1100.26 44.3182C1101.28 44.3182 1102.12 44.4924 1102.78 44.8409C1103.44 45.1818 1103.96 45.5947 1104.35 46.0795C1104.74 46.5568 1105.04 47.0076 1105.25 47.4318H1105.42V38.7273H1109.54V62H1105.5V59.25H1105.25C1105.04 59.6742 1104.73 60.125 1104.33 60.6023C1103.93 61.072 1103.39 61.4735 1102.74 61.8068C1102.08 62.1402 1101.25 62.3068 1100.25 62.3068ZM1101.39 58.9318C1102.27 58.9318 1103.01 58.697 1103.62 58.2273C1104.24 57.75 1104.7 57.0871 1105.02 56.2386C1105.34 55.3902 1105.5 54.4015 1105.5 53.2727C1105.5 52.1439 1105.34 51.1629 1105.02 50.3295C1104.71 49.4962 1104.25 48.8485 1103.63 48.3864C1103.03 47.9242 1102.28 47.6932 1101.39 47.6932C1100.48 47.6932 1099.71 47.9318 1099.1 48.4091C1098.49 48.8864 1098.02 49.5455 1097.71 50.3864C1097.4 51.2273 1097.25 52.1894 1097.25 53.2727C1097.25 54.3636 1097.4 55.3371 1097.71 56.1932C1098.03 57.0417 1098.5 57.7121 1099.11 58.2045C1099.73 58.6894 1100.49 58.9318 1101.39 58.9318Z" fill="#FBFBFB"/>
</svg>
