<svg width="1440" height="100" viewBox="0 0 1440 100" fill="none" xmlns="http://www.w3.org/2000/svg">
<path d="M0 14C0 6.26801 6.26801 0 14 0H1426C1433.73 0 1440 6.26801 1440 14V86C1440 93.732 1433.73 100 1426 100H14C6.26803 100 0 93.732 0 86V14Z" fill="black"/>
<path d="M37.2841 62H32.7841L40.9773 38.7273H46.1818L54.3864 62H49.8864L43.6705 43.5H43.4886L37.2841 62ZM37.4318 52.875H49.7045V56.2614H37.4318V52.875ZM64.3523 62.3409C62.6098 62.3409 61.1136 61.9583 59.8636 61.1932C58.6212 60.428 57.6629 59.3712 56.9886 58.0227C56.322 56.6667 55.9886 55.1061 55.9886 53.3409C55.9886 51.5682 56.3295 50.0038 57.0114 48.6477C57.6932 47.2841 58.6553 46.2235 59.8977 45.4659C61.1477 44.7008 62.625 44.3182 64.3295 44.3182C65.7462 44.3182 67 44.5795 68.0909 45.1023C69.1894 45.6174 70.0644 46.3485 70.7159 47.2955C71.3674 48.2348 71.7386 49.3333 71.8295 50.5909H67.8977C67.7386 49.75 67.3598 49.0492 66.7614 48.4886C66.1705 47.9205 65.3788 47.6364 64.3864 47.6364C63.5455 47.6364 62.8068 47.8636 62.1705 48.3182C61.5341 48.7652 61.0379 49.4091 60.6818 50.25C60.3333 51.0909 60.1591 52.0985 60.1591 53.2727C60.1591 54.4621 60.3333 55.4848 60.6818 56.3409C61.0303 57.1894 61.5189 57.8447 62.1477 58.3068C62.7841 58.7614 63.5303 58.9886 64.3864 58.9886C64.9924 58.9886 65.5341 58.875 66.0114 58.6477C66.4962 58.4129 66.9015 58.0758 67.2273 57.6364C67.553 57.197 67.7765 56.6629 67.8977 56.0341H71.8295C71.7311 57.2689 71.3674 58.3636 70.7386 59.3182C70.1098 60.2652 69.2538 61.0076 68.1705 61.5455C67.0871 62.0758 65.8144 62.3409 64.3523 62.3409ZM82.821 62.3409C81.0786 62.3409 79.5824 61.9583 78.3324 61.1932C77.09 60.428 76.1316 59.3712 75.4574 58.0227C74.7907 56.6667 74.4574 55.1061 74.4574 53.3409C74.4574 51.5682 74.7983 50.0038 75.4801 48.6477C76.1619 47.2841 77.1241 46.2235 78.3665 45.4659C79.6165 44.7008 81.0938 44.3182 82.7983 44.3182C84.215 44.3182 85.4688 44.5795 86.5597 45.1023C87.6581 45.6174 88.5331 46.3485 89.1847 47.2955C89.8362 48.2348 90.2074 49.3333 90.2983 50.5909H86.3665C86.2074 49.75 85.8286 49.0492 85.2301 48.4886C84.6392 47.9205 83.8475 47.6364 82.8551 47.6364C82.0142 47.6364 81.2756 47.8636 80.6392 48.3182C80.0028 48.7652 79.5066 49.4091 79.1506 50.25C78.8021 51.0909 78.6278 52.0985 78.6278 53.2727C78.6278 54.4621 78.8021 55.4848 79.1506 56.3409C79.4991 57.1894 79.9877 57.8447 80.6165 58.3068C81.2528 58.7614 81.9991 58.9886 82.8551 58.9886C83.4612 58.9886 84.0028 58.875 84.4801 58.6477C84.965 58.4129 85.3703 58.0758 85.696 57.6364C86.0218 57.197 86.2453 56.6629 86.3665 56.0341H90.2983C90.1998 57.2689 89.8362 58.3636 89.2074 59.3182C88.5786 60.2652 87.7225 61.0076 86.6392 61.5455C85.5559 62.0758 84.2831 62.3409 82.821 62.3409ZM101.29 62.3409C99.5852 62.3409 98.108 61.9659 96.858 61.2159C95.608 60.4659 94.6383 59.4167 93.9489 58.0682C93.267 56.7197 92.9261 55.1439 92.9261 53.3409C92.9261 51.5379 93.267 49.9583 93.9489 48.6023C94.6383 47.2462 95.608 46.1932 96.858 45.4432C98.108 44.6932 99.5852 44.3182 101.29 44.3182C102.994 44.3182 104.472 44.6932 105.722 45.4432C106.972 46.1932 107.938 47.2462 108.619 48.6023C109.309 49.9583 109.653 51.5379 109.653 53.3409C109.653 55.1439 109.309 56.7197 108.619 58.0682C107.938 59.4167 106.972 60.4659 105.722 61.2159C104.472 61.9659 102.994 62.3409 101.29 62.3409ZM101.312 59.0455C102.237 59.0455 103.009 58.7917 103.631 58.2841C104.252 57.7689 104.714 57.0795 105.017 56.2159C105.328 55.3523 105.483 54.3902 105.483 53.3295C105.483 52.2614 105.328 51.2955 105.017 50.4318C104.714 49.5606 104.252 48.8674 103.631 48.3523C103.009 47.8371 102.237 47.5795 101.312 47.5795C100.366 47.5795 99.5777 47.8371 98.9489 48.3523C98.3277 48.8674 97.8617 49.5606 97.5511 50.4318C97.2481 51.2955 97.0966 52.2614 97.0966 53.3295C97.0966 54.3902 97.2481 55.3523 97.5511 56.2159C97.8617 57.0795 98.3277 57.7689 98.9489 58.2841C99.5777 58.7917 100.366 59.0455 101.312 59.0455ZM124.27 54.6591V44.5455H128.384V62H124.395V58.8977H124.213C123.819 59.875 123.171 60.6742 122.27 61.2955C121.376 61.9167 120.274 62.2273 118.963 62.2273C117.819 62.2273 116.808 61.9735 115.929 61.4659C115.058 60.9508 114.376 60.2045 113.884 59.2273C113.391 58.2424 113.145 57.053 113.145 55.6591V44.5455H117.259V55.0227C117.259 56.1288 117.562 57.0076 118.168 57.6591C118.774 58.3106 119.569 58.6364 120.554 58.6364C121.16 58.6364 121.747 58.4886 122.315 58.1932C122.884 57.8977 123.349 57.4583 123.713 56.875C124.084 56.2841 124.27 55.5455 124.27 54.6591ZM136.727 51.7727V62H132.614V44.5455H136.545V47.5114H136.75C137.152 46.5341 137.792 45.7576 138.67 45.1818C139.557 44.6061 140.652 44.3182 141.955 44.3182C143.159 44.3182 144.208 44.5758 145.102 45.0909C146.004 45.6061 146.701 46.3523 147.193 47.3295C147.693 48.3068 147.939 49.4924 147.932 50.8864V62H143.818V51.5227C143.818 50.3561 143.515 49.4432 142.909 48.7841C142.311 48.125 141.481 47.7955 140.42 47.7955C139.701 47.7955 139.061 47.9545 138.5 48.2727C137.947 48.5833 137.511 49.0341 137.193 49.625C136.883 50.2159 136.727 50.9318 136.727 51.7727ZM160.83 44.5455V47.7273H150.795V44.5455H160.83ZM153.273 40.3636H157.386V56.75C157.386 57.303 157.47 57.7273 157.636 58.0227C157.811 58.3106 158.038 58.5076 158.318 58.6136C158.598 58.7197 158.909 58.7727 159.25 58.7727C159.508 58.7727 159.742 58.7538 159.955 58.7159C160.174 58.678 160.341 58.6439 160.455 58.6136L161.148 61.8295C160.928 61.9053 160.614 61.9886 160.205 62.0795C159.803 62.1705 159.311 62.2235 158.727 62.2386C157.697 62.2689 156.769 62.1136 155.943 61.7727C155.117 61.4242 154.462 60.8864 153.977 60.1591C153.5 59.4318 153.265 58.5227 153.273 57.4318V40.3636ZM186.003 49.1591L182.253 49.5682C182.147 49.1894 181.961 48.8333 181.696 48.5C181.438 48.1667 181.09 47.8977 180.651 47.6932C180.211 47.4886 179.673 47.3864 179.037 47.3864C178.181 47.3864 177.461 47.572 176.878 47.9432C176.302 48.3144 176.018 48.7955 176.026 49.3864C176.018 49.8939 176.204 50.3068 176.582 50.625C176.969 50.9432 177.605 51.2045 178.491 51.4091L181.469 52.0455C183.12 52.4015 184.348 52.9659 185.151 53.7386C185.961 54.5114 186.37 55.5227 186.378 56.7727C186.37 57.8712 186.048 58.8409 185.412 59.6818C184.783 60.5152 183.908 61.1667 182.787 61.6364C181.666 62.1061 180.378 62.3409 178.923 62.3409C176.787 62.3409 175.067 61.8939 173.764 61C172.461 60.0985 171.685 58.8447 171.435 57.2386L175.446 56.8523C175.628 57.6402 176.014 58.2348 176.605 58.6364C177.196 59.0379 177.965 59.2386 178.912 59.2386C179.889 59.2386 180.673 59.0379 181.264 58.6364C181.863 58.2348 182.162 57.7386 182.162 57.1477C182.162 56.6477 181.969 56.2348 181.582 55.9091C181.204 55.5833 180.613 55.3333 179.81 55.1591L176.832 54.5341C175.158 54.1856 173.92 53.5985 173.116 52.7727C172.313 51.9394 171.916 50.8864 171.923 49.6136C171.916 48.5379 172.207 47.6061 172.798 46.8182C173.397 46.0227 174.226 45.4091 175.287 44.9773C176.355 44.5379 177.586 44.3182 178.98 44.3182C181.026 44.3182 182.635 44.7538 183.81 45.625C184.991 46.4962 185.723 47.6742 186.003 49.1591ZM197.497 62.3409C195.747 62.3409 194.236 61.9773 192.963 61.25C191.698 60.5152 190.724 59.4773 190.043 58.1364C189.361 56.7879 189.02 55.2008 189.02 53.375C189.02 51.5795 189.361 50.0038 190.043 48.6477C190.732 47.2841 191.694 46.2235 192.929 45.4659C194.164 44.7008 195.615 44.3182 197.281 44.3182C198.357 44.3182 199.372 44.4924 200.327 44.8409C201.289 45.1818 202.137 45.7121 202.872 46.4318C203.615 47.1515 204.198 48.0682 204.622 49.1818C205.046 50.2879 205.259 51.6061 205.259 53.1364V54.3977H190.952V51.625H201.315C201.308 50.8371 201.137 50.1364 200.804 49.5227C200.471 48.9015 200.005 48.4129 199.406 48.0568C198.815 47.7008 198.126 47.5227 197.338 47.5227C196.497 47.5227 195.759 47.7273 195.122 48.1364C194.486 48.5379 193.99 49.0682 193.634 49.7273C193.285 50.3788 193.107 51.0947 193.099 51.875V54.2955C193.099 55.3106 193.285 56.1818 193.656 56.9091C194.027 57.6288 194.546 58.1818 195.213 58.5682C195.88 58.947 196.66 59.1364 197.554 59.1364C198.152 59.1364 198.694 59.053 199.179 58.8864C199.664 58.7121 200.084 58.4583 200.44 58.125C200.796 57.7917 201.065 57.3788 201.247 56.8864L205.088 57.3182C204.846 58.3333 204.384 59.2197 203.702 59.9773C203.027 60.7273 202.164 61.3106 201.111 61.7273C200.058 62.1364 198.853 62.3409 197.497 62.3409ZM217.455 44.5455V47.7273H207.42V44.5455H217.455ZM209.898 40.3636H214.011V56.75C214.011 57.303 214.095 57.7273 214.261 58.0227C214.436 58.3106 214.663 58.5076 214.943 58.6136C215.223 58.7197 215.534 58.7727 215.875 58.7727C216.133 58.7727 216.367 58.7538 216.58 58.7159C216.799 58.678 216.966 58.6439 217.08 58.6136L217.773 61.8295C217.553 61.9053 217.239 61.9886 216.83 62.0795C216.428 62.1705 215.936 62.2235 215.352 62.2386C214.322 62.2689 213.394 62.1136 212.568 61.7727C211.742 61.4242 211.087 60.8864 210.602 60.1591C210.125 59.4318 209.89 58.5227 209.898 57.4318V40.3636ZM229.611 44.5455V47.7273H219.577V44.5455H229.611ZM222.054 40.3636H226.168V56.75C226.168 57.303 226.251 57.7273 226.418 58.0227C226.592 58.3106 226.819 58.5076 227.099 58.6136C227.38 58.7197 227.69 58.7727 228.031 58.7727C228.289 58.7727 228.524 58.7538 228.736 58.7159C228.955 58.678 229.122 58.6439 229.236 58.6136L229.929 61.8295C229.709 61.9053 229.395 61.9886 228.986 62.0795C228.584 62.1705 228.092 62.2235 227.509 62.2386C226.478 62.2689 225.55 62.1136 224.724 61.7727C223.899 61.4242 223.243 60.8864 222.759 60.1591C222.281 59.4318 222.046 58.5227 222.054 57.4318V40.3636ZM233.051 62V44.5455H237.165V62H233.051ZM235.119 42.0682C234.468 42.0682 233.907 41.8523 233.438 41.4205C232.968 40.9811 232.733 40.4545 232.733 39.8409C232.733 39.2197 232.968 38.6932 233.438 38.2614C233.907 37.822 234.468 37.6023 235.119 37.6023C235.778 37.6023 236.339 37.822 236.801 38.2614C237.271 38.6932 237.506 39.2197 237.506 39.8409C237.506 40.4545 237.271 40.9811 236.801 41.4205C236.339 41.8523 235.778 42.0682 235.119 42.0682ZM245.509 51.7727V62H241.395V44.5455H245.327V47.5114H245.531C245.933 46.5341 246.573 45.7576 247.452 45.1818C248.338 44.6061 249.433 44.3182 250.736 44.3182C251.94 44.3182 252.99 44.5758 253.884 45.0909C254.785 45.6061 255.482 46.3523 255.974 47.3295C256.474 48.3068 256.721 49.4924 256.713 50.8864V62H252.599V51.5227C252.599 50.3561 252.296 49.4432 251.69 48.7841C251.092 48.125 250.262 47.7955 249.202 47.7955C248.482 47.7955 247.842 47.9545 247.281 48.2727C246.728 48.5833 246.293 49.0341 245.974 49.625C245.664 50.2159 245.509 50.9318 245.509 51.7727ZM268.486 68.9091C267.009 68.9091 265.74 68.7083 264.679 68.3068C263.618 67.9129 262.766 67.3826 262.122 66.7159C261.478 66.0492 261.031 65.3106 260.781 64.5L264.486 63.6023C264.652 63.9432 264.895 64.2803 265.213 64.6136C265.531 64.9545 265.959 65.2348 266.497 65.4545C267.043 65.6818 267.728 65.7955 268.554 65.7955C269.721 65.7955 270.687 65.5114 271.452 64.9432C272.217 64.3826 272.599 63.4583 272.599 62.1705V58.8636H272.395C272.183 59.2879 271.872 59.7235 271.463 60.1705C271.062 60.6174 270.527 60.9924 269.861 61.2955C269.202 61.5985 268.372 61.75 267.372 61.75C266.031 61.75 264.815 61.4356 263.724 60.8068C262.641 60.1705 261.777 59.2235 261.134 57.9659C260.497 56.7008 260.179 55.1174 260.179 53.2159C260.179 51.2992 260.497 49.6818 261.134 48.3636C261.777 47.0379 262.645 46.0341 263.736 45.3523C264.827 44.6629 266.043 44.3182 267.384 44.3182C268.406 44.3182 269.247 44.4924 269.906 44.8409C270.573 45.1818 271.103 45.5947 271.497 46.0795C271.891 46.5568 272.19 47.0076 272.395 47.4318H272.622V44.5455H276.679V62.2841C276.679 63.7765 276.323 65.0114 275.611 65.9886C274.899 66.9659 273.925 67.697 272.69 68.1818C271.455 68.6667 270.054 68.9091 268.486 68.9091ZM268.52 58.5227C269.391 58.5227 270.134 58.3106 270.747 57.8864C271.361 57.4621 271.827 56.8523 272.145 56.0568C272.463 55.2614 272.622 54.3068 272.622 53.1932C272.622 52.0947 272.463 51.1326 272.145 50.3068C271.834 49.4811 271.372 48.8409 270.759 48.3864C270.152 47.9242 269.406 47.6932 268.52 47.6932C267.603 47.6932 266.838 47.9318 266.224 48.4091C265.611 48.8864 265.149 49.5417 264.838 50.375C264.527 51.2008 264.372 52.1402 264.372 53.1932C264.372 54.2614 264.527 55.197 264.838 56C265.156 56.7955 265.622 57.4167 266.236 57.8636C266.857 58.303 267.618 58.5227 268.52 58.5227ZM294.69 49.1591L290.94 49.5682C290.834 49.1894 290.649 48.8333 290.384 48.5C290.126 48.1667 289.777 47.8977 289.338 47.6932C288.899 47.4886 288.361 47.3864 287.724 47.3864C286.868 47.3864 286.149 47.572 285.565 47.9432C284.99 48.3144 284.705 48.7955 284.713 49.3864C284.705 49.8939 284.891 50.3068 285.27 50.625C285.656 50.9432 286.293 51.2045 287.179 51.4091L290.156 52.0455C291.808 52.4015 293.035 52.9659 293.838 53.7386C294.649 54.5114 295.058 55.5227 295.065 56.7727C295.058 57.8712 294.736 58.8409 294.099 59.6818C293.471 60.5152 292.596 61.1667 291.474 61.6364C290.353 62.1061 289.065 62.3409 287.611 62.3409C285.474 62.3409 283.755 61.8939 282.452 61C281.149 60.0985 280.372 58.8447 280.122 57.2386L284.134 56.8523C284.315 57.6402 284.702 58.2348 285.293 58.6364C285.884 59.0379 286.652 59.2386 287.599 59.2386C288.577 59.2386 289.361 59.0379 289.952 58.6364C290.55 58.2348 290.849 57.7386 290.849 57.1477C290.849 56.6477 290.656 56.2348 290.27 55.9091C289.891 55.5833 289.3 55.3333 288.497 55.1591L285.52 54.5341C283.846 54.1856 282.607 53.5985 281.804 52.7727C281.001 51.9394 280.603 50.8864 280.611 49.6136C280.603 48.5379 280.895 47.6061 281.486 46.8182C282.084 46.0227 282.914 45.4091 283.974 44.9773C285.043 44.5379 286.274 44.3182 287.668 44.3182C289.713 44.3182 291.323 44.7538 292.497 45.625C293.679 46.4962 294.41 47.6742 294.69 49.1591ZM307.418 50.3636C307.418 47.5227 307.793 44.9129 308.543 42.5341C309.3 40.1477 310.425 37.9432 311.918 35.9205H315.793C315.217 36.6705 314.679 37.5909 314.179 38.6818C313.679 39.7652 313.243 40.9545 312.872 42.25C312.509 43.5379 312.221 44.875 312.009 46.2614C311.804 47.6477 311.702 49.0152 311.702 50.3636C311.702 52.1591 311.88 53.9773 312.236 55.8182C312.599 57.6591 313.088 59.3674 313.702 60.9432C314.323 62.5114 315.02 63.7955 315.793 64.7955H311.918C310.425 62.7727 309.3 60.572 308.543 58.1932C307.793 55.8068 307.418 53.197 307.418 50.3636ZM319.17 38.7273H324.33L331.239 55.5909H331.511L338.42 38.7273H343.58V62H339.534V46.0114H339.318L332.886 61.9318H329.864L323.432 45.9773H323.216V62H319.17V38.7273ZM368.966 50.3636C368.966 52.8712 368.496 55.0189 367.557 56.8068C366.625 58.5871 365.352 59.9508 363.739 60.8977C362.133 61.8447 360.311 62.3182 358.273 62.3182C356.235 62.3182 354.409 61.8447 352.795 60.8977C351.189 59.9432 349.917 58.5758 348.977 56.7955C348.045 55.0076 347.58 52.8636 347.58 50.3636C347.58 47.8561 348.045 45.7121 348.977 43.9318C349.917 42.1439 351.189 40.7765 352.795 39.8295C354.409 38.8826 356.235 38.4091 358.273 38.4091C360.311 38.4091 362.133 38.8826 363.739 39.8295C365.352 40.7765 366.625 42.1439 367.557 43.9318C368.496 45.7121 368.966 47.8561 368.966 50.3636ZM364.727 50.3636C364.727 48.5985 364.451 47.1098 363.898 45.8977C363.352 44.678 362.595 43.7576 361.625 43.1364C360.655 42.5076 359.538 42.1932 358.273 42.1932C357.008 42.1932 355.89 42.5076 354.92 43.1364C353.951 43.7576 353.189 44.678 352.636 45.8977C352.091 47.1098 351.818 48.5985 351.818 50.3636C351.818 52.1288 352.091 53.6212 352.636 54.8409C353.189 56.053 353.951 56.9735 354.92 57.6023C355.89 58.2235 357.008 58.5341 358.273 58.5341C359.538 58.5341 360.655 58.2235 361.625 57.6023C362.595 56.9735 363.352 56.053 363.898 54.8409C364.451 53.6212 364.727 52.1288 364.727 50.3636ZM372.952 62V38.7273H381.861C383.543 38.7273 384.94 38.9924 386.054 39.5227C387.175 40.0455 388.012 40.7614 388.565 41.6705C389.126 42.5795 389.406 43.6098 389.406 44.7614C389.406 45.7083 389.224 46.5189 388.861 47.1932C388.497 47.8598 388.009 48.4015 387.395 48.8182C386.781 49.2348 386.096 49.5341 385.338 49.7159V49.9432C386.164 49.9886 386.955 50.2424 387.713 50.7045C388.478 51.1591 389.103 51.803 389.588 52.6364C390.073 53.4697 390.315 54.4773 390.315 55.6591C390.315 56.8636 390.024 57.947 389.44 58.9091C388.857 59.8636 387.978 60.6174 386.804 61.1705C385.63 61.7235 384.152 62 382.372 62H372.952ZM377.168 58.4773H381.702C383.232 58.4773 384.334 58.1856 385.009 57.6023C385.69 57.0114 386.031 56.2538 386.031 55.3295C386.031 54.6402 385.861 54.0189 385.52 53.4659C385.179 52.9053 384.694 52.4659 384.065 52.1477C383.437 51.822 382.687 51.6591 381.815 51.6591H377.168V58.4773ZM377.168 48.625H381.338C382.065 48.625 382.721 48.4924 383.304 48.2273C383.887 47.9545 384.346 47.572 384.679 47.0795C385.02 46.5795 385.19 45.9886 385.19 45.3068C385.19 44.4053 384.872 43.6629 384.236 43.0795C383.607 42.4962 382.671 42.2045 381.429 42.2045H377.168V48.625ZM398.199 38.7273V62H393.983V38.7273H398.199ZM402.764 62V38.7273H406.98V58.4659H417.23V62H402.764ZM420.889 62V38.7273H436.026V42.2614H425.105V48.5795H435.241V52.1136H425.105V58.4659H436.116V62H420.889ZM467.389 38.7273V62H463.639L452.673 46.1477H452.48V62H448.264V38.7273H452.037L462.991 54.5909H463.196V38.7273H467.389ZM492.778 50.3636C492.778 52.8712 492.309 55.0189 491.369 56.8068C490.438 58.5871 489.165 59.9508 487.551 60.8977C485.945 61.8447 484.123 62.3182 482.085 62.3182C480.047 62.3182 478.222 61.8447 476.608 60.8977C475.002 59.9432 473.729 58.5758 472.79 56.7955C471.858 55.0076 471.392 52.8636 471.392 50.3636C471.392 47.8561 471.858 45.7121 472.79 43.9318C473.729 42.1439 475.002 40.7765 476.608 39.8295C478.222 38.8826 480.047 38.4091 482.085 38.4091C484.123 38.4091 485.945 38.8826 487.551 39.8295C489.165 40.7765 490.438 42.1439 491.369 43.9318C492.309 45.7121 492.778 47.8561 492.778 50.3636ZM488.54 50.3636C488.54 48.5985 488.263 47.1098 487.71 45.8977C487.165 44.678 486.407 43.7576 485.438 43.1364C484.468 42.5076 483.35 42.1932 482.085 42.1932C480.82 42.1932 479.703 42.5076 478.733 43.1364C477.763 43.7576 477.002 44.678 476.449 45.8977C475.903 47.1098 475.631 48.5985 475.631 50.3636C475.631 52.1288 475.903 53.6212 476.449 54.8409C477.002 56.053 477.763 56.9735 478.733 57.6023C479.703 58.2235 480.82 58.5341 482.085 58.5341C483.35 58.5341 484.468 58.2235 485.438 57.6023C486.407 56.9735 487.165 56.053 487.71 54.8409C488.263 53.6212 488.54 52.1288 488.54 50.3636ZM494.71 42.2614V38.7273H513.278V42.2614H506.085V62H501.903V42.2614H494.71ZM521.074 38.7273V62H516.858V38.7273H521.074ZM525.639 62V38.7273H540.548V42.2614H529.855V48.5795H539.526V52.1136H529.855V62H525.639ZM548.605 38.7273V62H544.389V38.7273H548.605ZM573.091 46.5795H568.841C568.72 45.8826 568.496 45.2652 568.17 44.7273C567.845 44.1818 567.439 43.7197 566.955 43.3409C566.47 42.9621 565.917 42.678 565.295 42.4886C564.682 42.2917 564.019 42.1932 563.307 42.1932C562.042 42.1932 560.92 42.5114 559.943 43.1477C558.966 43.7765 558.201 44.7008 557.648 45.9205C557.095 47.1326 556.818 48.6136 556.818 50.3636C556.818 52.1439 557.095 53.6439 557.648 54.8636C558.208 56.0758 558.973 56.9924 559.943 57.6136C560.92 58.2273 562.038 58.5341 563.295 58.5341C563.992 58.5341 564.644 58.4432 565.25 58.2614C565.864 58.072 566.413 57.7955 566.898 57.4318C567.39 57.0682 567.803 56.6212 568.136 56.0909C568.477 55.5606 568.712 54.9545 568.841 54.2727L573.091 54.2955C572.932 55.4015 572.587 56.4394 572.057 57.4091C571.534 58.3788 570.848 59.2348 570 59.9773C569.152 60.7121 568.159 61.2879 567.023 61.7045C565.886 62.1136 564.625 62.3182 563.239 62.3182C561.193 62.3182 559.367 61.8447 557.761 60.8977C556.155 59.9508 554.89 58.5833 553.966 56.7955C553.042 55.0076 552.58 52.8636 552.58 50.3636C552.58 47.8561 553.045 45.7121 553.977 43.9318C554.909 42.1439 556.178 40.7765 557.784 39.8295C559.39 38.8826 561.208 38.4091 563.239 38.4091C564.534 38.4091 565.739 38.5909 566.852 38.9545C567.966 39.3182 568.958 39.8523 569.83 40.5568C570.701 41.2538 571.417 42.1098 571.977 43.125C572.545 44.1326 572.917 45.2841 573.091 46.5795ZM579.659 62H575.159L583.352 38.7273H588.557L596.761 62H592.261L586.045 43.5H585.864L579.659 62ZM579.807 52.875H592.08V56.2614H579.807V52.875ZM595.991 42.2614V38.7273H614.56V42.2614H607.366V62H603.185V42.2614H595.991ZM622.355 38.7273V62H618.139V38.7273H622.355ZM647.716 50.3636C647.716 52.8712 647.246 55.0189 646.307 56.8068C645.375 58.5871 644.102 59.9508 642.489 60.8977C640.883 61.8447 639.061 62.3182 637.023 62.3182C634.985 62.3182 633.159 61.8447 631.545 60.8977C629.939 59.9432 628.667 58.5758 627.727 56.7955C626.795 55.0076 626.33 52.8636 626.33 50.3636C626.33 47.8561 626.795 45.7121 627.727 43.9318C628.667 42.1439 629.939 40.7765 631.545 39.8295C633.159 38.8826 634.985 38.4091 637.023 38.4091C639.061 38.4091 640.883 38.8826 642.489 39.8295C644.102 40.7765 645.375 42.1439 646.307 43.9318C647.246 45.7121 647.716 47.8561 647.716 50.3636ZM643.477 50.3636C643.477 48.5985 643.201 47.1098 642.648 45.8977C642.102 44.678 641.345 43.7576 640.375 43.1364C639.405 42.5076 638.288 42.1932 637.023 42.1932C635.758 42.1932 634.64 42.5076 633.67 43.1364C632.701 43.7576 631.939 44.678 631.386 45.8977C630.841 47.1098 630.568 48.5985 630.568 50.3636C630.568 52.1288 630.841 53.6212 631.386 54.8409C631.939 56.053 632.701 56.9735 633.67 57.6023C634.64 58.2235 635.758 58.5341 637.023 58.5341C638.288 58.5341 639.405 58.2235 640.375 57.6023C641.345 56.9735 642.102 56.053 642.648 54.8409C643.201 53.6212 643.477 52.1288 643.477 50.3636ZM670.827 38.7273V62H667.077L656.111 46.1477H655.918V62H651.702V38.7273H655.474L666.429 54.5909H666.634V38.7273H670.827ZM682.58 50.3636C682.58 53.197 682.201 55.8068 681.443 58.1932C680.693 60.572 679.572 62.7727 678.08 64.7955H674.205C674.788 64.0455 675.326 63.1288 675.818 62.0455C676.318 60.9621 676.75 59.7727 677.114 58.4773C677.485 57.1818 677.773 55.8409 677.977 54.4545C678.189 53.0682 678.295 51.7045 678.295 50.3636C678.295 48.5682 678.114 46.75 677.75 44.9091C677.394 43.0682 676.905 41.3598 676.284 39.7841C675.67 38.2083 674.977 36.9205 674.205 35.9205H678.08C679.572 37.9432 680.693 40.1477 681.443 42.5341C682.201 44.9129 682.58 47.5227 682.58 50.3636Z" fill="#FBFBFB"/>
<path d="M708.693 48.6705V52.0568H698.216V48.6705H708.693ZM741.06 46.5795H736.81C736.688 45.8826 736.465 45.2652 736.139 44.7273C735.813 44.1818 735.408 43.7197 734.923 43.3409C734.438 42.9621 733.885 42.678 733.264 42.4886C732.651 42.2917 731.988 42.1932 731.276 42.1932C730.01 42.1932 728.889 42.5114 727.912 43.1477C726.935 43.7765 726.17 44.7008 725.616 45.9205C725.063 47.1326 724.787 48.6136 724.787 50.3636C724.787 52.1439 725.063 53.6439 725.616 54.8636C726.177 56.0758 726.942 56.9924 727.912 57.6136C728.889 58.2273 730.007 58.5341 731.264 58.5341C731.961 58.5341 732.613 58.4432 733.219 58.2614C733.832 58.072 734.382 57.7955 734.866 57.4318C735.359 57.0682 735.772 56.6212 736.105 56.0909C736.446 55.5606 736.681 54.9545 736.81 54.2727L741.06 54.2955C740.901 55.4015 740.556 56.4394 740.026 57.4091C739.503 58.3788 738.817 59.2348 737.969 59.9773C737.12 60.7121 736.128 61.2879 734.991 61.7045C733.855 62.1136 732.594 62.3182 731.207 62.3182C729.162 62.3182 727.336 61.8447 725.73 60.8977C724.124 59.9508 722.859 58.5833 721.935 56.7955C721.01 55.0076 720.548 52.8636 720.548 50.3636C720.548 47.8561 721.014 45.7121 721.946 43.9318C722.878 42.1439 724.147 40.7765 725.753 39.8295C727.359 38.8826 729.177 38.4091 731.207 38.4091C732.503 38.4091 733.707 38.5909 734.821 38.9545C735.935 39.3182 736.927 39.8523 737.798 40.5568C738.67 41.2538 739.385 42.1098 739.946 43.125C740.514 44.1326 740.885 45.2841 741.06 46.5795ZM748.852 51.7727V62H744.739V38.7273H748.761V47.5114H748.966C749.375 46.5265 750.008 45.75 750.864 45.1818C751.727 44.6061 752.826 44.3182 754.159 44.3182C755.371 44.3182 756.428 44.572 757.33 45.0795C758.231 45.5871 758.928 46.3295 759.42 47.3068C759.92 48.2841 760.17 49.4773 760.17 50.8864V62H756.057V51.5227C756.057 50.3485 755.754 49.4356 755.148 48.7841C754.549 48.125 753.708 47.7955 752.625 47.7955C751.898 47.7955 751.246 47.9545 750.67 48.2727C750.102 48.5833 749.655 49.0341 749.33 49.625C749.011 50.2159 748.852 50.9318 748.852 51.7727ZM769.386 62.3523C768.28 62.3523 767.284 62.1553 766.398 61.7614C765.519 61.3598 764.822 60.7689 764.307 59.9886C763.799 59.2083 763.545 58.2462 763.545 57.1023C763.545 56.1174 763.727 55.303 764.091 54.6591C764.455 54.0152 764.951 53.5 765.58 53.1136C766.208 52.7273 766.917 52.4356 767.705 52.2386C768.5 52.0341 769.322 51.8864 770.17 51.7955C771.193 51.6894 772.023 51.5947 772.659 51.5114C773.295 51.4205 773.758 51.2841 774.045 51.1023C774.341 50.9129 774.489 50.6212 774.489 50.2273V50.1591C774.489 49.303 774.235 48.6402 773.727 48.1705C773.22 47.7008 772.489 47.4659 771.534 47.4659C770.527 47.4659 769.727 47.6856 769.136 48.125C768.553 48.5644 768.159 49.0833 767.955 49.6818L764.114 49.1364C764.417 48.0758 764.917 47.1894 765.614 46.4773C766.311 45.7576 767.163 45.2197 768.17 44.8636C769.178 44.5 770.292 44.3182 771.511 44.3182C772.352 44.3182 773.189 44.4167 774.023 44.6136C774.856 44.8106 775.617 45.1364 776.307 45.5909C776.996 46.0379 777.549 46.6477 777.966 47.4205C778.39 48.1932 778.602 49.1591 778.602 50.3182V62H774.648V59.6023H774.511C774.261 60.0871 773.909 60.5417 773.455 60.9659C773.008 61.3826 772.443 61.7197 771.761 61.9773C771.087 62.2273 770.295 62.3523 769.386 62.3523ZM770.455 59.3295C771.28 59.3295 771.996 59.1667 772.602 58.8409C773.208 58.5076 773.674 58.0682 774 57.5227C774.333 56.9773 774.5 56.3826 774.5 55.7386V53.6818C774.371 53.7879 774.152 53.8864 773.841 53.9773C773.538 54.0682 773.197 54.1477 772.818 54.2159C772.439 54.2841 772.064 54.3447 771.693 54.3977C771.322 54.4508 771 54.4962 770.727 54.5341C770.114 54.6174 769.564 54.7538 769.08 54.9432C768.595 55.1326 768.212 55.3977 767.932 55.7386C767.652 56.072 767.511 56.5038 767.511 57.0341C767.511 57.7917 767.788 58.3636 768.341 58.75C768.894 59.1364 769.598 59.3295 770.455 59.3295ZM786.852 51.7727V62H782.739V44.5455H786.67V47.5114H786.875C787.277 46.5341 787.917 45.7576 788.795 45.1818C789.682 44.6061 790.777 44.3182 792.08 44.3182C793.284 44.3182 794.333 44.5758 795.227 45.0909C796.129 45.6061 796.826 46.3523 797.318 47.3295C797.818 48.3068 798.064 49.4924 798.057 50.8864V62H793.943V51.5227C793.943 50.3561 793.64 49.4432 793.034 48.7841C792.436 48.125 791.606 47.7955 790.545 47.7955C789.826 47.7955 789.186 47.9545 788.625 48.2727C788.072 48.5833 787.636 49.0341 787.318 49.625C787.008 50.2159 786.852 50.9318 786.852 51.7727ZM809.83 68.9091C808.352 68.9091 807.083 68.7083 806.023 68.3068C804.962 67.9129 804.11 67.3826 803.466 66.7159C802.822 66.0492 802.375 65.3106 802.125 64.5L805.83 63.6023C805.996 63.9432 806.239 64.2803 806.557 64.6136C806.875 64.9545 807.303 65.2348 807.841 65.4545C808.386 65.6818 809.072 65.7955 809.898 65.7955C811.064 65.7955 812.03 65.5114 812.795 64.9432C813.561 64.3826 813.943 63.4583 813.943 62.1705V58.8636H813.739C813.527 59.2879 813.216 59.7235 812.807 60.1705C812.405 60.6174 811.871 60.9924 811.205 61.2955C810.545 61.5985 809.716 61.75 808.716 61.75C807.375 61.75 806.159 61.4356 805.068 60.8068C803.985 60.1705 803.121 59.2235 802.477 57.9659C801.841 56.7008 801.523 55.1174 801.523 53.2159C801.523 51.2992 801.841 49.6818 802.477 48.3636C803.121 47.0379 803.989 46.0341 805.08 45.3523C806.17 44.6629 807.386 44.3182 808.727 44.3182C809.75 44.3182 810.591 44.4924 811.25 44.8409C811.917 45.1818 812.447 45.5947 812.841 46.0795C813.235 46.5568 813.534 47.0076 813.739 47.4318H813.966V44.5455H818.023V62.2841C818.023 63.7765 817.667 65.0114 816.955 65.9886C816.242 66.9659 815.269 67.697 814.034 68.1818C812.799 68.6667 811.398 68.9091 809.83 68.9091ZM809.864 58.5227C810.735 58.5227 811.477 58.3106 812.091 57.8864C812.705 57.4621 813.17 56.8523 813.489 56.0568C813.807 55.2614 813.966 54.3068 813.966 53.1932C813.966 52.0947 813.807 51.1326 813.489 50.3068C813.178 49.4811 812.716 48.8409 812.102 48.3864C811.496 47.9242 810.75 47.6932 809.864 47.6932C808.947 47.6932 808.182 47.9318 807.568 48.4091C806.955 48.8864 806.492 49.5417 806.182 50.375C805.871 51.2008 805.716 52.1402 805.716 53.1932C805.716 54.2614 805.871 55.197 806.182 56C806.5 56.7955 806.966 57.4167 807.58 57.8636C808.201 58.303 808.962 58.5227 809.864 58.5227ZM829.966 62.3409C828.216 62.3409 826.705 61.9773 825.432 61.25C824.167 60.5152 823.193 59.4773 822.511 58.1364C821.83 56.7879 821.489 55.2008 821.489 53.375C821.489 51.5795 821.83 50.0038 822.511 48.6477C823.201 47.2841 824.163 46.2235 825.398 45.4659C826.633 44.7008 828.083 44.3182 829.75 44.3182C830.826 44.3182 831.841 44.4924 832.795 44.8409C833.758 45.1818 834.606 45.7121 835.341 46.4318C836.083 47.1515 836.667 48.0682 837.091 49.1818C837.515 50.2879 837.727 51.6061 837.727 53.1364V54.3977H823.42V51.625H833.784C833.777 50.8371 833.606 50.1364 833.273 49.5227C832.939 48.9015 832.473 48.4129 831.875 48.0568C831.284 47.7008 830.595 47.5227 829.807 47.5227C828.966 47.5227 828.227 47.7273 827.591 48.1364C826.955 48.5379 826.458 49.0682 826.102 49.7273C825.754 50.3788 825.576 51.0947 825.568 51.875V54.2955C825.568 55.3106 825.754 56.1818 826.125 56.9091C826.496 57.6288 827.015 58.1818 827.682 58.5682C828.348 58.947 829.129 59.1364 830.023 59.1364C830.621 59.1364 831.163 59.053 831.648 58.8864C832.133 58.7121 832.553 58.4583 832.909 58.125C833.265 57.7917 833.534 57.3788 833.716 56.8864L837.557 57.3182C837.314 58.3333 836.852 59.2197 836.17 59.9773C835.496 60.7273 834.633 61.3106 833.58 61.7273C832.527 62.1364 831.322 62.3409 829.966 62.3409ZM849.327 62V38.7273H858.054C859.842 38.7273 861.342 39.0606 862.554 39.7273C863.774 40.3939 864.694 41.3106 865.315 42.4773C865.944 43.6364 866.259 44.9545 866.259 46.4318C866.259 47.9242 865.944 49.25 865.315 50.4091C864.687 51.5682 863.759 52.4811 862.531 53.1477C861.304 53.8068 859.793 54.1364 857.997 54.1364H852.213V50.6705H857.429C858.474 50.6705 859.33 50.4886 859.997 50.125C860.664 49.7614 861.156 49.2614 861.474 48.625C861.8 47.9886 861.963 47.2576 861.963 46.4318C861.963 45.6061 861.8 44.8788 861.474 44.25C861.156 43.6212 860.66 43.1326 859.986 42.7841C859.319 42.428 858.459 42.25 857.406 42.25H853.543V62H849.327ZM873.852 51.7727V62H869.739V38.7273H873.761V47.5114H873.966C874.375 46.5265 875.008 45.75 875.864 45.1818C876.727 44.6061 877.826 44.3182 879.159 44.3182C880.371 44.3182 881.428 44.572 882.33 45.0795C883.231 45.5871 883.928 46.3295 884.42 47.3068C884.92 48.2841 885.17 49.4773 885.17 50.8864V62H881.057V51.5227C881.057 50.3485 880.754 49.4356 880.148 48.7841C879.549 48.125 878.708 47.7955 877.625 47.7955C876.898 47.7955 876.246 47.9545 875.67 48.2727C875.102 48.5833 874.655 49.0341 874.33 49.625C874.011 50.2159 873.852 50.9318 873.852 51.7727ZM896.977 62.3409C895.273 62.3409 893.795 61.9659 892.545 61.2159C891.295 60.4659 890.326 59.4167 889.636 58.0682C888.955 56.7197 888.614 55.1439 888.614 53.3409C888.614 51.5379 888.955 49.9583 889.636 48.6023C890.326 47.2462 891.295 46.1932 892.545 45.4432C893.795 44.6932 895.273 44.3182 896.977 44.3182C898.682 44.3182 900.159 44.6932 901.409 45.4432C902.659 46.1932 903.625 47.2462 904.307 48.6023C904.996 49.9583 905.341 51.5379 905.341 53.3409C905.341 55.1439 904.996 56.7197 904.307 58.0682C903.625 59.4167 902.659 60.4659 901.409 61.2159C900.159 61.9659 898.682 62.3409 896.977 62.3409ZM897 59.0455C897.924 59.0455 898.697 58.7917 899.318 58.2841C899.939 57.7689 900.402 57.0795 900.705 56.2159C901.015 55.3523 901.17 54.3902 901.17 53.3295C901.17 52.2614 901.015 51.2955 900.705 50.4318C900.402 49.5606 899.939 48.8674 899.318 48.3523C898.697 47.8371 897.924 47.5795 897 47.5795C896.053 47.5795 895.265 47.8371 894.636 48.3523C894.015 48.8674 893.549 49.5606 893.239 50.4318C892.936 51.2955 892.784 52.2614 892.784 53.3295C892.784 54.3902 892.936 55.3523 893.239 56.2159C893.549 57.0795 894.015 57.7689 894.636 58.2841C895.265 58.7917 896.053 59.0455 897 59.0455ZM912.946 51.7727V62H908.832V44.5455H912.764V47.5114H912.969C913.37 46.5341 914.01 45.7576 914.889 45.1818C915.776 44.6061 916.87 44.3182 918.173 44.3182C919.378 44.3182 920.427 44.5758 921.321 45.0909C922.223 45.6061 922.92 46.3523 923.412 47.3295C923.912 48.3068 924.158 49.4924 924.151 50.8864V62H920.037V51.5227C920.037 50.3561 919.734 49.4432 919.128 48.7841C918.529 48.125 917.7 47.7955 916.639 47.7955C915.92 47.7955 915.279 47.9545 914.719 48.2727C914.166 48.5833 913.73 49.0341 913.412 49.625C913.101 50.2159 912.946 50.9318 912.946 51.7727ZM936.06 62.3409C934.31 62.3409 932.798 61.9773 931.526 61.25C930.26 60.5152 929.287 59.4773 928.605 58.1364C927.923 56.7879 927.582 55.2008 927.582 53.375C927.582 51.5795 927.923 50.0038 928.605 48.6477C929.295 47.2841 930.257 46.2235 931.491 45.4659C932.726 44.7008 934.177 44.3182 935.844 44.3182C936.92 44.3182 937.935 44.4924 938.889 44.8409C939.851 45.1818 940.7 45.7121 941.435 46.4318C942.177 47.1515 942.76 48.0682 943.185 49.1818C943.609 50.2879 943.821 51.6061 943.821 53.1364V54.3977H929.514V51.625H939.878C939.87 50.8371 939.7 50.1364 939.366 49.5227C939.033 48.9015 938.567 48.4129 937.969 48.0568C937.378 47.7008 936.688 47.5227 935.901 47.5227C935.06 47.5227 934.321 47.7273 933.685 48.1364C933.048 48.5379 932.552 49.0682 932.196 49.7273C931.848 50.3788 931.67 51.0947 931.662 51.875V54.2955C931.662 55.3106 931.848 56.1818 932.219 56.9091C932.59 57.6288 933.109 58.1818 933.776 58.5682C934.442 58.947 935.223 59.1364 936.116 59.1364C936.715 59.1364 937.257 59.053 937.741 58.8864C938.226 58.7121 938.647 58.4583 939.003 58.125C939.359 57.7917 939.628 57.3788 939.81 56.8864L943.651 57.3182C943.408 58.3333 942.946 59.2197 942.264 59.9773C941.59 60.7273 940.726 61.3106 939.673 61.7273C938.62 62.1364 937.416 62.3409 936.06 62.3409ZM974.545 38.7273V62H970.795L959.83 46.1477H959.636V62H955.42V38.7273H959.193L970.148 54.5909H970.352V38.7273H974.545ZM990.082 54.6591V44.5455H994.196V62H990.207V58.8977H990.026C989.632 59.875 988.984 60.6742 988.082 61.2955C987.188 61.9167 986.086 62.2273 984.776 62.2273C983.632 62.2273 982.62 61.9735 981.741 61.4659C980.87 60.9508 980.188 60.2045 979.696 59.2273C979.204 58.2424 978.957 57.053 978.957 55.6591V44.5455H983.071V55.0227C983.071 56.1288 983.374 57.0076 983.98 57.6591C984.586 58.3106 985.382 58.6364 986.366 58.6364C986.973 58.6364 987.56 58.4886 988.128 58.1932C988.696 57.8977 989.162 57.4583 989.526 56.875C989.897 56.2841 990.082 55.5455 990.082 54.6591ZM998.426 62V44.5455H1002.36V47.5114H1002.56C1002.93 46.5114 1003.53 45.7311 1004.37 45.1705C1005.21 44.6023 1006.21 44.3182 1007.38 44.3182C1008.56 44.3182 1009.56 44.6061 1010.37 45.1818C1011.19 45.75 1011.76 46.5265 1012.1 47.5114H1012.28C1012.66 46.5417 1013.32 45.7689 1014.23 45.1932C1015.16 44.6098 1016.25 44.3182 1017.52 44.3182C1019.12 44.3182 1020.43 44.8258 1021.45 45.8409C1022.46 46.8561 1022.97 48.3371 1022.97 50.2841V62H1018.85V50.9205C1018.85 49.8371 1018.56 49.0455 1017.98 48.5455C1017.41 48.0379 1016.7 47.7841 1015.87 47.7841C1014.88 47.7841 1014.1 48.0947 1013.54 48.7159C1012.99 49.3295 1012.71 50.1288 1012.71 51.1136V62H1008.68V50.75C1008.68 49.8485 1008.4 49.1288 1007.86 48.5909C1007.32 48.053 1006.62 47.7841 1005.74 47.7841C1005.15 47.7841 1004.62 47.9356 1004.13 48.2386C1003.65 48.5341 1003.26 48.9545 1002.97 49.5C1002.68 50.0379 1002.54 50.6667 1002.54 51.3864V62H998.426ZM1027.33 62V38.7273H1031.44V47.4318H1031.61C1031.82 47.0076 1032.12 46.5568 1032.51 46.0795C1032.89 45.5947 1033.42 45.1818 1034.08 44.8409C1034.74 44.4924 1035.58 44.3182 1036.6 44.3182C1037.95 44.3182 1039.16 44.6629 1040.25 45.3523C1041.34 46.0341 1042.2 47.0455 1042.84 48.3864C1043.48 49.7197 1043.8 51.3561 1043.8 53.2955C1043.8 55.2121 1043.49 56.8409 1042.86 58.1818C1042.23 59.5227 1041.38 60.5455 1040.29 61.25C1039.21 61.9545 1037.98 62.3068 1036.61 62.3068C1035.61 62.3068 1034.78 62.1402 1034.12 61.8068C1033.46 61.4735 1032.93 61.072 1032.53 60.6023C1032.14 60.125 1031.83 59.6742 1031.61 59.25H1031.37V62H1027.33ZM1031.36 53.2727C1031.36 54.4015 1031.52 55.3902 1031.84 56.2386C1032.16 57.0871 1032.63 57.75 1033.24 58.2273C1033.85 58.697 1034.59 58.9318 1035.46 58.9318C1036.37 58.9318 1037.13 58.6894 1037.75 58.2045C1038.36 57.7121 1038.82 57.0417 1039.13 56.1932C1039.45 55.3371 1039.61 54.3636 1039.61 53.2727C1039.61 52.1894 1039.46 51.2273 1039.14 50.3864C1038.83 49.5455 1038.37 48.8864 1037.76 48.4091C1037.14 47.9318 1036.38 47.6932 1035.46 47.6932C1034.58 47.6932 1033.84 47.9242 1033.22 48.3864C1032.61 48.8485 1032.14 49.4962 1031.83 50.3295C1031.52 51.1629 1031.36 52.1439 1031.36 53.2727ZM1055.03 62.3409C1053.28 62.3409 1051.77 61.9773 1050.49 61.25C1049.23 60.5152 1048.26 59.4773 1047.57 58.1364C1046.89 56.7879 1046.55 55.2008 1046.55 53.375C1046.55 51.5795 1046.89 50.0038 1047.57 48.6477C1048.26 47.2841 1049.23 46.2235 1050.46 45.4659C1051.7 44.7008 1053.15 44.3182 1054.81 44.3182C1055.89 44.3182 1056.9 44.4924 1057.86 44.8409C1058.82 45.1818 1059.67 45.7121 1060.4 46.4318C1061.15 47.1515 1061.73 48.0682 1062.15 49.1818C1062.58 50.2879 1062.79 51.6061 1062.79 53.1364V54.3977H1048.48V51.625H1058.85C1058.84 50.8371 1058.67 50.1364 1058.34 49.5227C1058 48.9015 1057.54 48.4129 1056.94 48.0568C1056.35 47.7008 1055.66 47.5227 1054.87 47.5227C1054.03 47.5227 1053.29 47.7273 1052.65 48.1364C1052.02 48.5379 1051.52 49.0682 1051.16 49.7273C1050.82 50.3788 1050.64 51.0947 1050.63 51.875V54.2955C1050.63 55.3106 1050.82 56.1818 1051.19 56.9091C1051.56 57.6288 1052.08 58.1818 1052.74 58.5682C1053.41 58.947 1054.19 59.1364 1055.09 59.1364C1055.68 59.1364 1056.23 59.053 1056.71 58.8864C1057.2 58.7121 1057.62 58.4583 1057.97 58.125C1058.33 57.7917 1058.6 57.3788 1058.78 56.8864L1062.62 57.3182C1062.38 58.3333 1061.91 59.2197 1061.23 59.9773C1060.56 60.7273 1059.7 61.3106 1058.64 61.7273C1057.59 62.1364 1056.38 62.3409 1055.03 62.3409ZM1066.27 62V44.5455H1070.26V47.4545H1070.44C1070.76 46.447 1071.3 45.6705 1072.08 45.125C1072.86 44.572 1073.75 44.2955 1074.75 44.2955C1074.97 44.2955 1075.23 44.3068 1075.51 44.3295C1075.8 44.3447 1076.04 44.3712 1076.22 44.4091V48.1932C1076.05 48.1326 1075.77 48.0795 1075.39 48.0341C1075.02 47.9811 1074.66 47.9545 1074.32 47.9545C1073.57 47.9545 1072.89 48.1174 1072.29 48.4432C1071.7 48.7614 1071.24 49.2045 1070.89 49.7727C1070.55 50.3409 1070.38 50.9962 1070.38 51.7386V62H1066.27Z" fill="#FBFBFB"/>
</svg>
