<svg width="1440" height="100" viewBox="0 0 1440 100" fill="none" xmlns="http://www.w3.org/2000/svg">
<path d="M0 14C0 6.26801 6.26801 0 14 0H1426C1433.73 0 1440 6.26801 1440 14V86C1440 93.732 1433.73 100 1426 100H14C6.26803 100 0 93.732 0 86V14Z" fill="black"/>
<path d="M37.2841 62H32.7841L40.9773 38.7273H46.1818L54.3864 62H49.8864L43.6705 43.5H43.4886L37.2841 62ZM37.4318 52.875H49.7045V56.2614H37.4318V52.875ZM64.3523 62.3409C62.6098 62.3409 61.1136 61.9583 59.8636 61.1932C58.6212 60.428 57.6629 59.3712 56.9886 58.0227C56.322 56.6667 55.9886 55.1061 55.9886 53.3409C55.9886 51.5682 56.3295 50.0038 57.0114 48.6477C57.6932 47.2841 58.6553 46.2235 59.8977 45.4659C61.1477 44.7008 62.625 44.3182 64.3295 44.3182C65.7462 44.3182 67 44.5795 68.0909 45.1023C69.1894 45.6174 70.0644 46.3485 70.7159 47.2955C71.3674 48.2348 71.7386 49.3333 71.8295 50.5909H67.8977C67.7386 49.75 67.3598 49.0492 66.7614 48.4886C66.1705 47.9205 65.3788 47.6364 64.3864 47.6364C63.5455 47.6364 62.8068 47.8636 62.1705 48.3182C61.5341 48.7652 61.0379 49.4091 60.6818 50.25C60.3333 51.0909 60.1591 52.0985 60.1591 53.2727C60.1591 54.4621 60.3333 55.4848 60.6818 56.3409C61.0303 57.1894 61.5189 57.8447 62.1477 58.3068C62.7841 58.7614 63.5303 58.9886 64.3864 58.9886C64.9924 58.9886 65.5341 58.875 66.0114 58.6477C66.4962 58.4129 66.9015 58.0758 67.2273 57.6364C67.553 57.197 67.7765 56.6629 67.8977 56.0341H71.8295C71.7311 57.2689 71.3674 58.3636 70.7386 59.3182C70.1098 60.2652 69.2538 61.0076 68.1705 61.5455C67.0871 62.0758 65.8144 62.3409 64.3523 62.3409ZM82.821 62.3409C81.0786 62.3409 79.5824 61.9583 78.3324 61.1932C77.09 60.428 76.1316 59.3712 75.4574 58.0227C74.7907 56.6667 74.4574 55.1061 74.4574 53.3409C74.4574 51.5682 74.7983 50.0038 75.4801 48.6477C76.1619 47.2841 77.1241 46.2235 78.3665 45.4659C79.6165 44.7008 81.0938 44.3182 82.7983 44.3182C84.215 44.3182 85.4688 44.5795 86.5597 45.1023C87.6581 45.6174 88.5331 46.3485 89.1847 47.2955C89.8362 48.2348 90.2074 49.3333 90.2983 50.5909H86.3665C86.2074 49.75 85.8286 49.0492 85.2301 48.4886C84.6392 47.9205 83.8475 47.6364 82.8551 47.6364C82.0142 47.6364 81.2756 47.8636 80.6392 48.3182C80.0028 48.7652 79.5066 49.4091 79.1506 50.25C78.8021 51.0909 78.6278 52.0985 78.6278 53.2727C78.6278 54.4621 78.8021 55.4848 79.1506 56.3409C79.4991 57.1894 79.9877 57.8447 80.6165 58.3068C81.2528 58.7614 81.9991 58.9886 82.8551 58.9886C83.4612 58.9886 84.0028 58.875 84.4801 58.6477C84.965 58.4129 85.3703 58.0758 85.696 57.6364C86.0218 57.197 86.2453 56.6629 86.3665 56.0341H90.2983C90.1998 57.2689 89.8362 58.3636 89.2074 59.3182C88.5786 60.2652 87.7225 61.0076 86.6392 61.5455C85.5559 62.0758 84.2831 62.3409 82.821 62.3409ZM101.29 62.3409C99.5852 62.3409 98.108 61.9659 96.858 61.2159C95.608 60.4659 94.6383 59.4167 93.9489 58.0682C93.267 56.7197 92.9261 55.1439 92.9261 53.3409C92.9261 51.5379 93.267 49.9583 93.9489 48.6023C94.6383 47.2462 95.608 46.1932 96.858 45.4432C98.108 44.6932 99.5852 44.3182 101.29 44.3182C102.994 44.3182 104.472 44.6932 105.722 45.4432C106.972 46.1932 107.938 47.2462 108.619 48.6023C109.309 49.9583 109.653 51.5379 109.653 53.3409C109.653 55.1439 109.309 56.7197 108.619 58.0682C107.938 59.4167 106.972 60.4659 105.722 61.2159C104.472 61.9659 102.994 62.3409 101.29 62.3409ZM101.312 59.0455C102.237 59.0455 103.009 58.7917 103.631 58.2841C104.252 57.7689 104.714 57.0795 105.017 56.2159C105.328 55.3523 105.483 54.3902 105.483 53.3295C105.483 52.2614 105.328 51.2955 105.017 50.4318C104.714 49.5606 104.252 48.8674 103.631 48.3523C103.009 47.8371 102.237 47.5795 101.312 47.5795C100.366 47.5795 99.5777 47.8371 98.9489 48.3523C98.3277 48.8674 97.8617 49.5606 97.5511 50.4318C97.2481 51.2955 97.0966 52.2614 97.0966 53.3295C97.0966 54.3902 97.2481 55.3523 97.5511 56.2159C97.8617 57.0795 98.3277 57.7689 98.9489 58.2841C99.5777 58.7917 100.366 59.0455 101.312 59.0455ZM124.27 54.6591V44.5455H128.384V62H124.395V58.8977H124.213C123.819 59.875 123.171 60.6742 122.27 61.2955C121.376 61.9167 120.274 62.2273 118.963 62.2273C117.819 62.2273 116.808 61.9735 115.929 61.4659C115.058 60.9508 114.376 60.2045 113.884 59.2273C113.391 58.2424 113.145 57.053 113.145 55.6591V44.5455H117.259V55.0227C117.259 56.1288 117.562 57.0076 118.168 57.6591C118.774 58.3106 119.569 58.6364 120.554 58.6364C121.16 58.6364 121.747 58.4886 122.315 58.1932C122.884 57.8977 123.349 57.4583 123.713 56.875C124.084 56.2841 124.27 55.5455 124.27 54.6591ZM136.727 51.7727V62H132.614V44.5455H136.545V47.5114H136.75C137.152 46.5341 137.792 45.7576 138.67 45.1818C139.557 44.6061 140.652 44.3182 141.955 44.3182C143.159 44.3182 144.208 44.5758 145.102 45.0909C146.004 45.6061 146.701 46.3523 147.193 47.3295C147.693 48.3068 147.939 49.4924 147.932 50.8864V62H143.818V51.5227C143.818 50.3561 143.515 49.4432 142.909 48.7841C142.311 48.125 141.481 47.7955 140.42 47.7955C139.701 47.7955 139.061 47.9545 138.5 48.2727C137.947 48.5833 137.511 49.0341 137.193 49.625C136.883 50.2159 136.727 50.9318 136.727 51.7727ZM160.83 44.5455V47.7273H150.795V44.5455H160.83ZM153.273 40.3636H157.386V56.75C157.386 57.303 157.47 57.7273 157.636 58.0227C157.811 58.3106 158.038 58.5076 158.318 58.6136C158.598 58.7197 158.909 58.7727 159.25 58.7727C159.508 58.7727 159.742 58.7538 159.955 58.7159C160.174 58.678 160.341 58.6439 160.455 58.6136L161.148 61.8295C160.928 61.9053 160.614 61.9886 160.205 62.0795C159.803 62.1705 159.311 62.2235 158.727 62.2386C157.697 62.2689 156.769 62.1136 155.943 61.7727C155.117 61.4242 154.462 60.8864 153.977 60.1591C153.5 59.4318 153.265 58.5227 153.273 57.4318V40.3636ZM186.003 49.1591L182.253 49.5682C182.147 49.1894 181.961 48.8333 181.696 48.5C181.438 48.1667 181.09 47.8977 180.651 47.6932C180.211 47.4886 179.673 47.3864 179.037 47.3864C178.181 47.3864 177.461 47.572 176.878 47.9432C176.302 48.3144 176.018 48.7955 176.026 49.3864C176.018 49.8939 176.204 50.3068 176.582 50.625C176.969 50.9432 177.605 51.2045 178.491 51.4091L181.469 52.0455C183.12 52.4015 184.348 52.9659 185.151 53.7386C185.961 54.5114 186.37 55.5227 186.378 56.7727C186.37 57.8712 186.048 58.8409 185.412 59.6818C184.783 60.5152 183.908 61.1667 182.787 61.6364C181.666 62.1061 180.378 62.3409 178.923 62.3409C176.787 62.3409 175.067 61.8939 173.764 61C172.461 60.0985 171.685 58.8447 171.435 57.2386L175.446 56.8523C175.628 57.6402 176.014 58.2348 176.605 58.6364C177.196 59.0379 177.965 59.2386 178.912 59.2386C179.889 59.2386 180.673 59.0379 181.264 58.6364C181.863 58.2348 182.162 57.7386 182.162 57.1477C182.162 56.6477 181.969 56.2348 181.582 55.9091C181.204 55.5833 180.613 55.3333 179.81 55.1591L176.832 54.5341C175.158 54.1856 173.92 53.5985 173.116 52.7727C172.313 51.9394 171.916 50.8864 171.923 49.6136C171.916 48.5379 172.207 47.6061 172.798 46.8182C173.397 46.0227 174.226 45.4091 175.287 44.9773C176.355 44.5379 177.586 44.3182 178.98 44.3182C181.026 44.3182 182.635 44.7538 183.81 45.625C184.991 46.4962 185.723 47.6742 186.003 49.1591ZM197.497 62.3409C195.747 62.3409 194.236 61.9773 192.963 61.25C191.698 60.5152 190.724 59.4773 190.043 58.1364C189.361 56.7879 189.02 55.2008 189.02 53.375C189.02 51.5795 189.361 50.0038 190.043 48.6477C190.732 47.2841 191.694 46.2235 192.929 45.4659C194.164 44.7008 195.615 44.3182 197.281 44.3182C198.357 44.3182 199.372 44.4924 200.327 44.8409C201.289 45.1818 202.137 45.7121 202.872 46.4318C203.615 47.1515 204.198 48.0682 204.622 49.1818C205.046 50.2879 205.259 51.6061 205.259 53.1364V54.3977H190.952V51.625H201.315C201.308 50.8371 201.137 50.1364 200.804 49.5227C200.471 48.9015 200.005 48.4129 199.406 48.0568C198.815 47.7008 198.126 47.5227 197.338 47.5227C196.497 47.5227 195.759 47.7273 195.122 48.1364C194.486 48.5379 193.99 49.0682 193.634 49.7273C193.285 50.3788 193.107 51.0947 193.099 51.875V54.2955C193.099 55.3106 193.285 56.1818 193.656 56.9091C194.027 57.6288 194.546 58.1818 195.213 58.5682C195.88 58.947 196.66 59.1364 197.554 59.1364C198.152 59.1364 198.694 59.053 199.179 58.8864C199.664 58.7121 200.084 58.4583 200.44 58.125C200.796 57.7917 201.065 57.3788 201.247 56.8864L205.088 57.3182C204.846 58.3333 204.384 59.2197 203.702 59.9773C203.027 60.7273 202.164 61.3106 201.111 61.7273C200.058 62.1364 198.853 62.3409 197.497 62.3409ZM217.455 44.5455V47.7273H207.42V44.5455H217.455ZM209.898 40.3636H214.011V56.75C214.011 57.303 214.095 57.7273 214.261 58.0227C214.436 58.3106 214.663 58.5076 214.943 58.6136C215.223 58.7197 215.534 58.7727 215.875 58.7727C216.133 58.7727 216.367 58.7538 216.58 58.7159C216.799 58.678 216.966 58.6439 217.08 58.6136L217.773 61.8295C217.553 61.9053 217.239 61.9886 216.83 62.0795C216.428 62.1705 215.936 62.2235 215.352 62.2386C214.322 62.2689 213.394 62.1136 212.568 61.7727C211.742 61.4242 211.087 60.8864 210.602 60.1591C210.125 59.4318 209.89 58.5227 209.898 57.4318V40.3636ZM229.611 44.5455V47.7273H219.577V44.5455H229.611ZM222.054 40.3636H226.168V56.75C226.168 57.303 226.251 57.7273 226.418 58.0227C226.592 58.3106 226.819 58.5076 227.099 58.6136C227.38 58.7197 227.69 58.7727 228.031 58.7727C228.289 58.7727 228.524 58.7538 228.736 58.7159C228.955 58.678 229.122 58.6439 229.236 58.6136L229.929 61.8295C229.709 61.9053 229.395 61.9886 228.986 62.0795C228.584 62.1705 228.092 62.2235 227.509 62.2386C226.478 62.2689 225.55 62.1136 224.724 61.7727C223.899 61.4242 223.243 60.8864 222.759 60.1591C222.281 59.4318 222.046 58.5227 222.054 57.4318V40.3636ZM233.051 62V44.5455H237.165V62H233.051ZM235.119 42.0682C234.468 42.0682 233.907 41.8523 233.438 41.4205C232.968 40.9811 232.733 40.4545 232.733 39.8409C232.733 39.2197 232.968 38.6932 233.438 38.2614C233.907 37.822 234.468 37.6023 235.119 37.6023C235.778 37.6023 236.339 37.822 236.801 38.2614C237.271 38.6932 237.506 39.2197 237.506 39.8409C237.506 40.4545 237.271 40.9811 236.801 41.4205C236.339 41.8523 235.778 42.0682 235.119 42.0682ZM245.509 51.7727V62H241.395V44.5455H245.327V47.5114H245.531C245.933 46.5341 246.573 45.7576 247.452 45.1818C248.338 44.6061 249.433 44.3182 250.736 44.3182C251.94 44.3182 252.99 44.5758 253.884 45.0909C254.785 45.6061 255.482 46.3523 255.974 47.3295C256.474 48.3068 256.721 49.4924 256.713 50.8864V62H252.599V51.5227C252.599 50.3561 252.296 49.4432 251.69 48.7841C251.092 48.125 250.262 47.7955 249.202 47.7955C248.482 47.7955 247.842 47.9545 247.281 48.2727C246.728 48.5833 246.293 49.0341 245.974 49.625C245.664 50.2159 245.509 50.9318 245.509 51.7727ZM268.486 68.9091C267.009 68.9091 265.74 68.7083 264.679 68.3068C263.618 67.9129 262.766 67.3826 262.122 66.7159C261.478 66.0492 261.031 65.3106 260.781 64.5L264.486 63.6023C264.652 63.9432 264.895 64.2803 265.213 64.6136C265.531 64.9545 265.959 65.2348 266.497 65.4545C267.043 65.6818 267.728 65.7955 268.554 65.7955C269.721 65.7955 270.687 65.5114 271.452 64.9432C272.217 64.3826 272.599 63.4583 272.599 62.1705V58.8636H272.395C272.183 59.2879 271.872 59.7235 271.463 60.1705C271.062 60.6174 270.527 60.9924 269.861 61.2955C269.202 61.5985 268.372 61.75 267.372 61.75C266.031 61.75 264.815 61.4356 263.724 60.8068C262.641 60.1705 261.777 59.2235 261.134 57.9659C260.497 56.7008 260.179 55.1174 260.179 53.2159C260.179 51.2992 260.497 49.6818 261.134 48.3636C261.777 47.0379 262.645 46.0341 263.736 45.3523C264.827 44.6629 266.043 44.3182 267.384 44.3182C268.406 44.3182 269.247 44.4924 269.906 44.8409C270.573 45.1818 271.103 45.5947 271.497 46.0795C271.891 46.5568 272.19 47.0076 272.395 47.4318H272.622V44.5455H276.679V62.2841C276.679 63.7765 276.323 65.0114 275.611 65.9886C274.899 66.9659 273.925 67.697 272.69 68.1818C271.455 68.6667 270.054 68.9091 268.486 68.9091ZM268.52 58.5227C269.391 58.5227 270.134 58.3106 270.747 57.8864C271.361 57.4621 271.827 56.8523 272.145 56.0568C272.463 55.2614 272.622 54.3068 272.622 53.1932C272.622 52.0947 272.463 51.1326 272.145 50.3068C271.834 49.4811 271.372 48.8409 270.759 48.3864C270.152 47.9242 269.406 47.6932 268.52 47.6932C267.603 47.6932 266.838 47.9318 266.224 48.4091C265.611 48.8864 265.149 49.5417 264.838 50.375C264.527 51.2008 264.372 52.1402 264.372 53.1932C264.372 54.2614 264.527 55.197 264.838 56C265.156 56.7955 265.622 57.4167 266.236 57.8636C266.857 58.303 267.618 58.5227 268.52 58.5227ZM294.69 49.1591L290.94 49.5682C290.834 49.1894 290.649 48.8333 290.384 48.5C290.126 48.1667 289.777 47.8977 289.338 47.6932C288.899 47.4886 288.361 47.3864 287.724 47.3864C286.868 47.3864 286.149 47.572 285.565 47.9432C284.99 48.3144 284.705 48.7955 284.713 49.3864C284.705 49.8939 284.891 50.3068 285.27 50.625C285.656 50.9432 286.293 51.2045 287.179 51.4091L290.156 52.0455C291.808 52.4015 293.035 52.9659 293.838 53.7386C294.649 54.5114 295.058 55.5227 295.065 56.7727C295.058 57.8712 294.736 58.8409 294.099 59.6818C293.471 60.5152 292.596 61.1667 291.474 61.6364C290.353 62.1061 289.065 62.3409 287.611 62.3409C285.474 62.3409 283.755 61.8939 282.452 61C281.149 60.0985 280.372 58.8447 280.122 57.2386L284.134 56.8523C284.315 57.6402 284.702 58.2348 285.293 58.6364C285.884 59.0379 286.652 59.2386 287.599 59.2386C288.577 59.2386 289.361 59.0379 289.952 58.6364C290.55 58.2348 290.849 57.7386 290.849 57.1477C290.849 56.6477 290.656 56.2348 290.27 55.9091C289.891 55.5833 289.3 55.3333 288.497 55.1591L285.52 54.5341C283.846 54.1856 282.607 53.5985 281.804 52.7727C281.001 51.9394 280.603 50.8864 280.611 49.6136C280.603 48.5379 280.895 47.6061 281.486 46.8182C282.084 46.0227 282.914 45.4091 283.974 44.9773C285.043 44.5379 286.274 44.3182 287.668 44.3182C289.713 44.3182 291.323 44.7538 292.497 45.625C293.679 46.4962 294.41 47.6742 294.69 49.1591ZM307.418 50.3636C307.418 47.5227 307.793 44.9129 308.543 42.5341C309.3 40.1477 310.425 37.9432 311.918 35.9205H315.793C315.217 36.6705 314.679 37.5909 314.179 38.6818C313.679 39.7652 313.243 40.9545 312.872 42.25C312.509 43.5379 312.221 44.875 312.009 46.2614C311.804 47.6477 311.702 49.0152 311.702 50.3636C311.702 52.1591 311.88 53.9773 312.236 55.8182C312.599 57.6591 313.088 59.3674 313.702 60.9432C314.323 62.5114 315.02 63.7955 315.793 64.7955H311.918C310.425 62.7727 309.3 60.572 308.543 58.1932C307.793 55.8068 307.418 53.197 307.418 50.3636ZM331.818 45.125C331.712 44.1326 331.265 43.3598 330.477 42.8068C329.697 42.2538 328.682 41.9773 327.432 41.9773C326.553 41.9773 325.799 42.1098 325.17 42.375C324.542 42.6402 324.061 43 323.727 43.4545C323.394 43.9091 323.223 44.428 323.216 45.0114C323.216 45.4962 323.326 45.9167 323.545 46.2727C323.773 46.6288 324.08 46.9318 324.466 47.1818C324.852 47.4242 325.28 47.6288 325.75 47.7955C326.22 47.9621 326.693 48.1023 327.17 48.2159L329.352 48.7614C330.231 48.9659 331.076 49.2424 331.886 49.5909C332.705 49.9394 333.436 50.3788 334.08 50.9091C334.731 51.4394 335.246 52.0795 335.625 52.8295C336.004 53.5795 336.193 54.4583 336.193 55.4659C336.193 56.8295 335.845 58.0303 335.148 59.0682C334.451 60.0985 333.443 60.9053 332.125 61.4886C330.814 62.0644 329.227 62.3523 327.364 62.3523C325.553 62.3523 323.981 62.072 322.648 61.5114C321.322 60.9508 320.284 60.1326 319.534 59.0568C318.792 57.9811 318.39 56.6705 318.33 55.125H322.477C322.538 55.9356 322.788 56.6098 323.227 57.1477C323.667 57.6856 324.239 58.0871 324.943 58.3523C325.655 58.6174 326.451 58.75 327.33 58.75C328.246 58.75 329.049 58.6136 329.739 58.3409C330.436 58.0606 330.981 57.6742 331.375 57.1818C331.769 56.6818 331.97 56.0985 331.977 55.4318C331.97 54.8258 331.792 54.3258 331.443 53.9318C331.095 53.5303 330.606 53.197 329.977 52.9318C329.356 52.6591 328.629 52.4167 327.795 52.2045L325.148 51.5227C323.231 51.0303 321.716 50.2841 320.602 49.2841C319.496 48.2765 318.943 46.9394 318.943 45.2727C318.943 43.9015 319.314 42.7008 320.057 41.6705C320.807 40.6402 321.826 39.8409 323.114 39.2727C324.402 38.697 325.86 38.4091 327.489 38.4091C329.14 38.4091 330.587 38.697 331.83 39.2727C333.08 39.8409 334.061 40.6326 334.773 41.6477C335.485 42.6553 335.852 43.8144 335.875 45.125H331.818ZM339.952 62V38.7273H355.088V42.2614H344.168V48.5795H354.304V52.1136H344.168V58.4659H355.179V62H339.952ZM379.31 46.5795H375.06C374.938 45.8826 374.715 45.2652 374.389 44.7273C374.063 44.1818 373.658 43.7197 373.173 43.3409C372.688 42.9621 372.135 42.678 371.514 42.4886C370.901 42.2917 370.238 42.1932 369.526 42.1932C368.26 42.1932 367.139 42.5114 366.162 43.1477C365.185 43.7765 364.42 44.7008 363.866 45.9205C363.313 47.1326 363.037 48.6136 363.037 50.3636C363.037 52.1439 363.313 53.6439 363.866 54.8636C364.427 56.0758 365.192 56.9924 366.162 57.6136C367.139 58.2273 368.257 58.5341 369.514 58.5341C370.211 58.5341 370.863 58.4432 371.469 58.2614C372.082 58.072 372.632 57.7955 373.116 57.4318C373.609 57.0682 374.022 56.6212 374.355 56.0909C374.696 55.5606 374.931 54.9545 375.06 54.2727L379.31 54.2955C379.151 55.4015 378.806 56.4394 378.276 57.4091C377.753 58.3788 377.067 59.2348 376.219 59.9773C375.37 60.7121 374.378 61.2879 373.241 61.7045C372.105 62.1136 370.844 62.3182 369.457 62.3182C367.412 62.3182 365.586 61.8447 363.98 60.8977C362.374 59.9508 361.109 58.5833 360.185 56.7955C359.26 55.0076 358.798 52.8636 358.798 50.3636C358.798 47.8561 359.264 45.7121 360.196 43.9318C361.128 42.1439 362.397 40.7765 364.003 39.8295C365.609 38.8826 367.427 38.4091 369.457 38.4091C370.753 38.4091 371.957 38.5909 373.071 38.9545C374.185 39.3182 375.177 39.8523 376.048 40.5568C376.92 41.2538 377.635 42.1098 378.196 43.125C378.764 44.1326 379.135 45.2841 379.31 46.5795ZM397.841 38.7273H402.057V53.9318C402.057 55.5985 401.663 57.0644 400.875 58.3295C400.095 59.5947 398.996 60.5833 397.58 61.2955C396.163 62 394.508 62.3523 392.614 62.3523C390.712 62.3523 389.053 62 387.636 61.2955C386.22 60.5833 385.121 59.5947 384.341 58.3295C383.561 57.0644 383.17 55.5985 383.17 53.9318V38.7273H387.386V53.5795C387.386 54.5492 387.598 55.4129 388.023 56.1705C388.455 56.928 389.061 57.5227 389.841 57.9545C390.621 58.3788 391.545 58.5909 392.614 58.5909C393.682 58.5909 394.606 58.3788 395.386 57.9545C396.174 57.5227 396.78 56.928 397.205 56.1705C397.629 55.4129 397.841 54.5492 397.841 53.5795V38.7273ZM406.639 62V38.7273H415.366C417.154 38.7273 418.654 39.0379 419.866 39.6591C421.086 40.2803 422.007 41.1515 422.628 42.2727C423.257 43.3864 423.571 44.6856 423.571 46.1705C423.571 47.6629 423.253 48.9583 422.616 50.0568C421.988 51.1477 421.06 51.9924 419.832 52.5909C418.605 53.1818 417.098 53.4773 415.31 53.4773H409.094V49.9773H414.741C415.787 49.9773 416.643 49.8333 417.31 49.5455C417.976 49.25 418.469 48.822 418.787 48.2614C419.113 47.6932 419.276 46.9962 419.276 46.1705C419.276 45.3447 419.113 44.6402 418.787 44.0568C418.461 43.4659 417.965 43.0189 417.298 42.7159C416.632 42.4053 415.772 42.25 414.719 42.25H410.855V62H406.639ZM418.662 51.4545L424.423 62H419.719L414.06 51.4545H418.662ZM431.668 38.7273V62H427.452V38.7273H431.668ZM435.21 42.2614V38.7273H453.778V42.2614H446.585V62H442.403V42.2614H435.21ZM455.767 38.7273H460.528L466.222 49.0227H466.449L472.142 38.7273H476.903L468.438 53.3182V62H464.233V53.3182L455.767 38.7273ZM487.048 50.3636C487.048 53.197 486.67 55.8068 485.912 58.1932C485.162 60.572 484.041 62.7727 482.548 64.7955H478.673C479.257 64.0455 479.795 63.1288 480.287 62.0455C480.787 60.9621 481.219 59.7727 481.582 58.4773C481.954 57.1818 482.241 55.8409 482.446 54.4545C482.658 53.0682 482.764 51.7045 482.764 50.3636C482.764 48.5682 482.582 46.75 482.219 44.9091C481.863 43.0682 481.374 41.3598 480.753 39.7841C480.139 38.2083 479.446 36.9205 478.673 35.9205H482.548C484.041 37.9432 485.162 40.1477 485.912 42.5341C486.67 44.9129 487.048 47.5227 487.048 50.3636Z" fill="#FBFBFB"/>
</svg>
