<svg width="2920" height="100" viewBox="0 0 2920 100" fill="none" xmlns="http://www.w3.org/2000/svg">
<path d="M0 14C0 6.26801 6.26801 0 14 0H2906C2913.73 0 2920 6.26801 2920 14V86C2920 93.732 2913.73 100 2906 100H14.0001C6.26806 100 0 93.732 0 86V14Z" fill="black"/>
<path d="M37.2841 62H32.7841L40.9773 38.7273H46.1818L54.3864 62H49.8864L43.6705 43.5H43.4886L37.2841 62ZM37.4318 52.875H49.7045V56.2614H37.4318V52.875ZM64.3523 62.3409C62.6098 62.3409 61.1136 61.9583 59.8636 61.1932C58.6212 60.428 57.6629 59.3712 56.9886 58.0227C56.322 56.6667 55.9886 55.1061 55.9886 53.3409C55.9886 51.5682 56.3295 50.0038 57.0114 48.6477C57.6932 47.2841 58.6553 46.2235 59.8977 45.4659C61.1477 44.7008 62.625 44.3182 64.3295 44.3182C65.7462 44.3182 67 44.5795 68.0909 45.1023C69.1894 45.6174 70.0644 46.3485 70.7159 47.2955C71.3674 48.2348 71.7386 49.3333 71.8295 50.5909H67.8977C67.7386 49.75 67.3598 49.0492 66.7614 48.4886C66.1705 47.9205 65.3788 47.6364 64.3864 47.6364C63.5455 47.6364 62.8068 47.8636 62.1705 48.3182C61.5341 48.7652 61.0379 49.4091 60.6818 50.25C60.3333 51.0909 60.1591 52.0985 60.1591 53.2727C60.1591 54.4621 60.3333 55.4848 60.6818 56.3409C61.0303 57.1894 61.5189 57.8447 62.1477 58.3068C62.7841 58.7614 63.5303 58.9886 64.3864 58.9886C64.9924 58.9886 65.5341 58.875 66.0114 58.6477C66.4962 58.4129 66.9015 58.0758 67.2273 57.6364C67.553 57.197 67.7765 56.6629 67.8977 56.0341H71.8295C71.7311 57.2689 71.3674 58.3636 70.7386 59.3182C70.1098 60.2652 69.2538 61.0076 68.1705 61.5455C67.0871 62.0758 65.8144 62.3409 64.3523 62.3409ZM82.821 62.3409C81.0786 62.3409 79.5824 61.9583 78.3324 61.1932C77.09 60.428 76.1316 59.3712 75.4574 58.0227C74.7907 56.6667 74.4574 55.1061 74.4574 53.3409C74.4574 51.5682 74.7983 50.0038 75.4801 48.6477C76.1619 47.2841 77.1241 46.2235 78.3665 45.4659C79.6165 44.7008 81.0938 44.3182 82.7983 44.3182C84.215 44.3182 85.4688 44.5795 86.5597 45.1023C87.6581 45.6174 88.5331 46.3485 89.1847 47.2955C89.8362 48.2348 90.2074 49.3333 90.2983 50.5909H86.3665C86.2074 49.75 85.8286 49.0492 85.2301 48.4886C84.6392 47.9205 83.8475 47.6364 82.8551 47.6364C82.0142 47.6364 81.2756 47.8636 80.6392 48.3182C80.0028 48.7652 79.5066 49.4091 79.1506 50.25C78.8021 51.0909 78.6278 52.0985 78.6278 53.2727C78.6278 54.4621 78.8021 55.4848 79.1506 56.3409C79.4991 57.1894 79.9877 57.8447 80.6165 58.3068C81.2528 58.7614 81.9991 58.9886 82.8551 58.9886C83.4612 58.9886 84.0028 58.875 84.4801 58.6477C84.965 58.4129 85.3703 58.0758 85.696 57.6364C86.0218 57.197 86.2453 56.6629 86.3665 56.0341H90.2983C90.1998 57.2689 89.8362 58.3636 89.2074 59.3182C88.5786 60.2652 87.7225 61.0076 86.6392 61.5455C85.5559 62.0758 84.2831 62.3409 82.821 62.3409ZM101.29 62.3409C99.5852 62.3409 98.108 61.9659 96.858 61.2159C95.608 60.4659 94.6383 59.4167 93.9489 58.0682C93.267 56.7197 92.9261 55.1439 92.9261 53.3409C92.9261 51.5379 93.267 49.9583 93.9489 48.6023C94.6383 47.2462 95.608 46.1932 96.858 45.4432C98.108 44.6932 99.5852 44.3182 101.29 44.3182C102.994 44.3182 104.472 44.6932 105.722 45.4432C106.972 46.1932 107.938 47.2462 108.619 48.6023C109.309 49.9583 109.653 51.5379 109.653 53.3409C109.653 55.1439 109.309 56.7197 108.619 58.0682C107.938 59.4167 106.972 60.4659 105.722 61.2159C104.472 61.9659 102.994 62.3409 101.29 62.3409ZM101.312 59.0455C102.237 59.0455 103.009 58.7917 103.631 58.2841C104.252 57.7689 104.714 57.0795 105.017 56.2159C105.328 55.3523 105.483 54.3902 105.483 53.3295C105.483 52.2614 105.328 51.2955 105.017 50.4318C104.714 49.5606 104.252 48.8674 103.631 48.3523C103.009 47.8371 102.237 47.5795 101.312 47.5795C100.366 47.5795 99.5777 47.8371 98.9489 48.3523C98.3277 48.8674 97.8617 49.5606 97.5511 50.4318C97.2481 51.2955 97.0966 52.2614 97.0966 53.3295C97.0966 54.3902 97.2481 55.3523 97.5511 56.2159C97.8617 57.0795 98.3277 57.7689 98.9489 58.2841C99.5777 58.7917 100.366 59.0455 101.312 59.0455ZM124.27 54.6591V44.5455H128.384V62H124.395V58.8977H124.213C123.819 59.875 123.171 60.6742 122.27 61.2955C121.376 61.9167 120.274 62.2273 118.963 62.2273C117.819 62.2273 116.808 61.9735 115.929 61.4659C115.058 60.9508 114.376 60.2045 113.884 59.2273C113.391 58.2424 113.145 57.053 113.145 55.6591V44.5455H117.259V55.0227C117.259 56.1288 117.562 57.0076 118.168 57.6591C118.774 58.3106 119.569 58.6364 120.554 58.6364C121.16 58.6364 121.747 58.4886 122.315 58.1932C122.884 57.8977 123.349 57.4583 123.713 56.875C124.084 56.2841 124.27 55.5455 124.27 54.6591ZM136.727 51.7727V62H132.614V44.5455H136.545V47.5114H136.75C137.152 46.5341 137.792 45.7576 138.67 45.1818C139.557 44.6061 140.652 44.3182 141.955 44.3182C143.159 44.3182 144.208 44.5758 145.102 45.0909C146.004 45.6061 146.701 46.3523 147.193 47.3295C147.693 48.3068 147.939 49.4924 147.932 50.8864V62H143.818V51.5227C143.818 50.3561 143.515 49.4432 142.909 48.7841C142.311 48.125 141.481 47.7955 140.42 47.7955C139.701 47.7955 139.061 47.9545 138.5 48.2727C137.947 48.5833 137.511 49.0341 137.193 49.625C136.883 50.2159 136.727 50.9318 136.727 51.7727ZM160.83 44.5455V47.7273H150.795V44.5455H160.83ZM153.273 40.3636H157.386V56.75C157.386 57.303 157.47 57.7273 157.636 58.0227C157.811 58.3106 158.038 58.5076 158.318 58.6136C158.598 58.7197 158.909 58.7727 159.25 58.7727C159.508 58.7727 159.742 58.7538 159.955 58.7159C160.174 58.678 160.341 58.6439 160.455 58.6136L161.148 61.8295C160.928 61.9053 160.614 61.9886 160.205 62.0795C159.803 62.1705 159.311 62.2235 158.727 62.2386C157.697 62.2689 156.769 62.1136 155.943 61.7727C155.117 61.4242 154.462 60.8864 153.977 60.1591C153.5 59.4318 153.265 58.5227 153.273 57.4318V40.3636ZM186.003 49.1591L182.253 49.5682C182.147 49.1894 181.961 48.8333 181.696 48.5C181.438 48.1667 181.09 47.8977 180.651 47.6932C180.211 47.4886 179.673 47.3864 179.037 47.3864C178.181 47.3864 177.461 47.572 176.878 47.9432C176.302 48.3144 176.018 48.7955 176.026 49.3864C176.018 49.8939 176.204 50.3068 176.582 50.625C176.969 50.9432 177.605 51.2045 178.491 51.4091L181.469 52.0455C183.12 52.4015 184.348 52.9659 185.151 53.7386C185.961 54.5114 186.37 55.5227 186.378 56.7727C186.37 57.8712 186.048 58.8409 185.412 59.6818C184.783 60.5152 183.908 61.1667 182.787 61.6364C181.666 62.1061 180.378 62.3409 178.923 62.3409C176.787 62.3409 175.067 61.8939 173.764 61C172.461 60.0985 171.685 58.8447 171.435 57.2386L175.446 56.8523C175.628 57.6402 176.014 58.2348 176.605 58.6364C177.196 59.0379 177.965 59.2386 178.912 59.2386C179.889 59.2386 180.673 59.0379 181.264 58.6364C181.863 58.2348 182.162 57.7386 182.162 57.1477C182.162 56.6477 181.969 56.2348 181.582 55.9091C181.204 55.5833 180.613 55.3333 179.81 55.1591L176.832 54.5341C175.158 54.1856 173.92 53.5985 173.116 52.7727C172.313 51.9394 171.916 50.8864 171.923 49.6136C171.916 48.5379 172.207 47.6061 172.798 46.8182C173.397 46.0227 174.226 45.4091 175.287 44.9773C176.355 44.5379 177.586 44.3182 178.98 44.3182C181.026 44.3182 182.635 44.7538 183.81 45.625C184.991 46.4962 185.723 47.6742 186.003 49.1591ZM197.497 62.3409C195.747 62.3409 194.236 61.9773 192.963 61.25C191.698 60.5152 190.724 59.4773 190.043 58.1364C189.361 56.7879 189.02 55.2008 189.02 53.375C189.02 51.5795 189.361 50.0038 190.043 48.6477C190.732 47.2841 191.694 46.2235 192.929 45.4659C194.164 44.7008 195.615 44.3182 197.281 44.3182C198.357 44.3182 199.372 44.4924 200.327 44.8409C201.289 45.1818 202.137 45.7121 202.872 46.4318C203.615 47.1515 204.198 48.0682 204.622 49.1818C205.046 50.2879 205.259 51.6061 205.259 53.1364V54.3977H190.952V51.625H201.315C201.308 50.8371 201.137 50.1364 200.804 49.5227C200.471 48.9015 200.005 48.4129 199.406 48.0568C198.815 47.7008 198.126 47.5227 197.338 47.5227C196.497 47.5227 195.759 47.7273 195.122 48.1364C194.486 48.5379 193.99 49.0682 193.634 49.7273C193.285 50.3788 193.107 51.0947 193.099 51.875V54.2955C193.099 55.3106 193.285 56.1818 193.656 56.9091C194.027 57.6288 194.546 58.1818 195.213 58.5682C195.88 58.947 196.66 59.1364 197.554 59.1364C198.152 59.1364 198.694 59.053 199.179 58.8864C199.664 58.7121 200.084 58.4583 200.44 58.125C200.796 57.7917 201.065 57.3788 201.247 56.8864L205.088 57.3182C204.846 58.3333 204.384 59.2197 203.702 59.9773C203.027 60.7273 202.164 61.3106 201.111 61.7273C200.058 62.1364 198.853 62.3409 197.497 62.3409ZM217.455 44.5455V47.7273H207.42V44.5455H217.455ZM209.898 40.3636H214.011V56.75C214.011 57.303 214.095 57.7273 214.261 58.0227C214.436 58.3106 214.663 58.5076 214.943 58.6136C215.223 58.7197 215.534 58.7727 215.875 58.7727C216.133 58.7727 216.367 58.7538 216.58 58.7159C216.799 58.678 216.966 58.6439 217.08 58.6136L217.773 61.8295C217.553 61.9053 217.239 61.9886 216.83 62.0795C216.428 62.1705 215.936 62.2235 215.352 62.2386C214.322 62.2689 213.394 62.1136 212.568 61.7727C211.742 61.4242 211.087 60.8864 210.602 60.1591C210.125 59.4318 209.89 58.5227 209.898 57.4318V40.3636ZM229.611 44.5455V47.7273H219.577V44.5455H229.611ZM222.054 40.3636H226.168V56.75C226.168 57.303 226.251 57.7273 226.418 58.0227C226.592 58.3106 226.819 58.5076 227.099 58.6136C227.38 58.7197 227.69 58.7727 228.031 58.7727C228.289 58.7727 228.524 58.7538 228.736 58.7159C228.955 58.678 229.122 58.6439 229.236 58.6136L229.929 61.8295C229.709 61.9053 229.395 61.9886 228.986 62.0795C228.584 62.1705 228.092 62.2235 227.509 62.2386C226.478 62.2689 225.55 62.1136 224.724 61.7727C223.899 61.4242 223.243 60.8864 222.759 60.1591C222.281 59.4318 222.046 58.5227 222.054 57.4318V40.3636ZM233.051 62V44.5455H237.165V62H233.051ZM235.119 42.0682C234.468 42.0682 233.907 41.8523 233.438 41.4205C232.968 40.9811 232.733 40.4545 232.733 39.8409C232.733 39.2197 232.968 38.6932 233.438 38.2614C233.907 37.822 234.468 37.6023 235.119 37.6023C235.778 37.6023 236.339 37.822 236.801 38.2614C237.271 38.6932 237.506 39.2197 237.506 39.8409C237.506 40.4545 237.271 40.9811 236.801 41.4205C236.339 41.8523 235.778 42.0682 235.119 42.0682ZM245.509 51.7727V62H241.395V44.5455H245.327V47.5114H245.531C245.933 46.5341 246.573 45.7576 247.452 45.1818C248.338 44.6061 249.433 44.3182 250.736 44.3182C251.94 44.3182 252.99 44.5758 253.884 45.0909C254.785 45.6061 255.482 46.3523 255.974 47.3295C256.474 48.3068 256.721 49.4924 256.713 50.8864V62H252.599V51.5227C252.599 50.3561 252.296 49.4432 251.69 48.7841C251.092 48.125 250.262 47.7955 249.202 47.7955C248.482 47.7955 247.842 47.9545 247.281 48.2727C246.728 48.5833 246.293 49.0341 245.974 49.625C245.664 50.2159 245.509 50.9318 245.509 51.7727ZM268.486 68.9091C267.009 68.9091 265.74 68.7083 264.679 68.3068C263.618 67.9129 262.766 67.3826 262.122 66.7159C261.478 66.0492 261.031 65.3106 260.781 64.5L264.486 63.6023C264.652 63.9432 264.895 64.2803 265.213 64.6136C265.531 64.9545 265.959 65.2348 266.497 65.4545C267.043 65.6818 267.728 65.7955 268.554 65.7955C269.721 65.7955 270.687 65.5114 271.452 64.9432C272.217 64.3826 272.599 63.4583 272.599 62.1705V58.8636H272.395C272.183 59.2879 271.872 59.7235 271.463 60.1705C271.062 60.6174 270.527 60.9924 269.861 61.2955C269.202 61.5985 268.372 61.75 267.372 61.75C266.031 61.75 264.815 61.4356 263.724 60.8068C262.641 60.1705 261.777 59.2235 261.134 57.9659C260.497 56.7008 260.179 55.1174 260.179 53.2159C260.179 51.2992 260.497 49.6818 261.134 48.3636C261.777 47.0379 262.645 46.0341 263.736 45.3523C264.827 44.6629 266.043 44.3182 267.384 44.3182C268.406 44.3182 269.247 44.4924 269.906 44.8409C270.573 45.1818 271.103 45.5947 271.497 46.0795C271.891 46.5568 272.19 47.0076 272.395 47.4318H272.622V44.5455H276.679V62.2841C276.679 63.7765 276.323 65.0114 275.611 65.9886C274.899 66.9659 273.925 67.697 272.69 68.1818C271.455 68.6667 270.054 68.9091 268.486 68.9091ZM268.52 58.5227C269.391 58.5227 270.134 58.3106 270.747 57.8864C271.361 57.4621 271.827 56.8523 272.145 56.0568C272.463 55.2614 272.622 54.3068 272.622 53.1932C272.622 52.0947 272.463 51.1326 272.145 50.3068C271.834 49.4811 271.372 48.8409 270.759 48.3864C270.152 47.9242 269.406 47.6932 268.52 47.6932C267.603 47.6932 266.838 47.9318 266.224 48.4091C265.611 48.8864 265.149 49.5417 264.838 50.375C264.527 51.2008 264.372 52.1402 264.372 53.1932C264.372 54.2614 264.527 55.197 264.838 56C265.156 56.7955 265.622 57.4167 266.236 57.8636C266.857 58.303 267.618 58.5227 268.52 58.5227ZM294.69 49.1591L290.94 49.5682C290.834 49.1894 290.649 48.8333 290.384 48.5C290.126 48.1667 289.777 47.8977 289.338 47.6932C288.899 47.4886 288.361 47.3864 287.724 47.3864C286.868 47.3864 286.149 47.572 285.565 47.9432C284.99 48.3144 284.705 48.7955 284.713 49.3864C284.705 49.8939 284.891 50.3068 285.27 50.625C285.656 50.9432 286.293 51.2045 287.179 51.4091L290.156 52.0455C291.808 52.4015 293.035 52.9659 293.838 53.7386C294.649 54.5114 295.058 55.5227 295.065 56.7727C295.058 57.8712 294.736 58.8409 294.099 59.6818C293.471 60.5152 292.596 61.1667 291.474 61.6364C290.353 62.1061 289.065 62.3409 287.611 62.3409C285.474 62.3409 283.755 61.8939 282.452 61C281.149 60.0985 280.372 58.8447 280.122 57.2386L284.134 56.8523C284.315 57.6402 284.702 58.2348 285.293 58.6364C285.884 59.0379 286.652 59.2386 287.599 59.2386C288.577 59.2386 289.361 59.0379 289.952 58.6364C290.55 58.2348 290.849 57.7386 290.849 57.1477C290.849 56.6477 290.656 56.2348 290.27 55.9091C289.891 55.5833 289.3 55.3333 288.497 55.1591L285.52 54.5341C283.846 54.1856 282.607 53.5985 281.804 52.7727C281.001 51.9394 280.603 50.8864 280.611 49.6136C280.603 48.5379 280.895 47.6061 281.486 46.8182C282.084 46.0227 282.914 45.4091 283.974 44.9773C285.043 44.5379 286.274 44.3182 287.668 44.3182C289.713 44.3182 291.323 44.7538 292.497 45.625C293.679 46.4962 294.41 47.6742 294.69 49.1591ZM307.418 50.3636C307.418 47.5227 307.793 44.9129 308.543 42.5341C309.3 40.1477 310.425 37.9432 311.918 35.9205H315.793C315.217 36.6705 314.679 37.5909 314.179 38.6818C313.679 39.7652 313.243 40.9545 312.872 42.25C312.509 43.5379 312.221 44.875 312.009 46.2614C311.804 47.6477 311.702 49.0152 311.702 50.3636C311.702 52.1591 311.88 53.9773 312.236 55.8182C312.599 57.6591 313.088 59.3674 313.702 60.9432C314.323 62.5114 315.02 63.7955 315.793 64.7955H311.918C310.425 62.7727 309.3 60.572 308.543 58.1932C307.793 55.8068 307.418 53.197 307.418 50.3636ZM319.17 38.7273H324.33L331.239 55.5909H331.511L338.42 38.7273H343.58V62H339.534V46.0114H339.318L332.886 61.9318H329.864L323.432 45.9773H323.216V62H319.17V38.7273ZM368.966 50.3636C368.966 52.8712 368.496 55.0189 367.557 56.8068C366.625 58.5871 365.352 59.9508 363.739 60.8977C362.133 61.8447 360.311 62.3182 358.273 62.3182C356.235 62.3182 354.409 61.8447 352.795 60.8977C351.189 59.9432 349.917 58.5758 348.977 56.7955C348.045 55.0076 347.58 52.8636 347.58 50.3636C347.58 47.8561 348.045 45.7121 348.977 43.9318C349.917 42.1439 351.189 40.7765 352.795 39.8295C354.409 38.8826 356.235 38.4091 358.273 38.4091C360.311 38.4091 362.133 38.8826 363.739 39.8295C365.352 40.7765 366.625 42.1439 367.557 43.9318C368.496 45.7121 368.966 47.8561 368.966 50.3636ZM364.727 50.3636C364.727 48.5985 364.451 47.1098 363.898 45.8977C363.352 44.678 362.595 43.7576 361.625 43.1364C360.655 42.5076 359.538 42.1932 358.273 42.1932C357.008 42.1932 355.89 42.5076 354.92 43.1364C353.951 43.7576 353.189 44.678 352.636 45.8977C352.091 47.1098 351.818 48.5985 351.818 50.3636C351.818 52.1288 352.091 53.6212 352.636 54.8409C353.189 56.053 353.951 56.9735 354.92 57.6023C355.89 58.2235 357.008 58.5341 358.273 58.5341C359.538 58.5341 360.655 58.2235 361.625 57.6023C362.595 56.9735 363.352 56.053 363.898 54.8409C364.451 53.6212 364.727 52.1288 364.727 50.3636ZM372.952 62V38.7273H381.861C383.543 38.7273 384.94 38.9924 386.054 39.5227C387.175 40.0455 388.012 40.7614 388.565 41.6705C389.126 42.5795 389.406 43.6098 389.406 44.7614C389.406 45.7083 389.224 46.5189 388.861 47.1932C388.497 47.8598 388.009 48.4015 387.395 48.8182C386.781 49.2348 386.096 49.5341 385.338 49.7159V49.9432C386.164 49.9886 386.955 50.2424 387.713 50.7045C388.478 51.1591 389.103 51.803 389.588 52.6364C390.073 53.4697 390.315 54.4773 390.315 55.6591C390.315 56.8636 390.024 57.947 389.44 58.9091C388.857 59.8636 387.978 60.6174 386.804 61.1705C385.63 61.7235 384.152 62 382.372 62H372.952ZM377.168 58.4773H381.702C383.232 58.4773 384.334 58.1856 385.009 57.6023C385.69 57.0114 386.031 56.2538 386.031 55.3295C386.031 54.6402 385.861 54.0189 385.52 53.4659C385.179 52.9053 384.694 52.4659 384.065 52.1477C383.437 51.822 382.687 51.6591 381.815 51.6591H377.168V58.4773ZM377.168 48.625H381.338C382.065 48.625 382.721 48.4924 383.304 48.2273C383.887 47.9545 384.346 47.572 384.679 47.0795C385.02 46.5795 385.19 45.9886 385.19 45.3068C385.19 44.4053 384.872 43.6629 384.236 43.0795C383.607 42.4962 382.671 42.2045 381.429 42.2045H377.168V48.625ZM398.199 38.7273V62H393.983V38.7273H398.199ZM402.764 62V38.7273H406.98V58.4659H417.23V62H402.764ZM420.889 62V38.7273H436.026V42.2614H425.105V48.5795H435.241V52.1136H425.105V58.4659H436.116V62H420.889ZM467.389 38.7273V62H463.639L452.673 46.1477H452.48V62H448.264V38.7273H452.037L462.991 54.5909H463.196V38.7273H467.389ZM492.778 50.3636C492.778 52.8712 492.309 55.0189 491.369 56.8068C490.438 58.5871 489.165 59.9508 487.551 60.8977C485.945 61.8447 484.123 62.3182 482.085 62.3182C480.047 62.3182 478.222 61.8447 476.608 60.8977C475.002 59.9432 473.729 58.5758 472.79 56.7955C471.858 55.0076 471.392 52.8636 471.392 50.3636C471.392 47.8561 471.858 45.7121 472.79 43.9318C473.729 42.1439 475.002 40.7765 476.608 39.8295C478.222 38.8826 480.047 38.4091 482.085 38.4091C484.123 38.4091 485.945 38.8826 487.551 39.8295C489.165 40.7765 490.438 42.1439 491.369 43.9318C492.309 45.7121 492.778 47.8561 492.778 50.3636ZM488.54 50.3636C488.54 48.5985 488.263 47.1098 487.71 45.8977C487.165 44.678 486.407 43.7576 485.438 43.1364C484.468 42.5076 483.35 42.1932 482.085 42.1932C480.82 42.1932 479.703 42.5076 478.733 43.1364C477.763 43.7576 477.002 44.678 476.449 45.8977C475.903 47.1098 475.631 48.5985 475.631 50.3636C475.631 52.1288 475.903 53.6212 476.449 54.8409C477.002 56.053 477.763 56.9735 478.733 57.6023C479.703 58.2235 480.82 58.5341 482.085 58.5341C483.35 58.5341 484.468 58.2235 485.438 57.6023C486.407 56.9735 487.165 56.053 487.71 54.8409C488.263 53.6212 488.54 52.1288 488.54 50.3636ZM494.71 42.2614V38.7273H513.278V42.2614H506.085V62H501.903V42.2614H494.71ZM521.074 38.7273V62H516.858V38.7273H521.074ZM525.639 62V38.7273H540.548V42.2614H529.855V48.5795H539.526V52.1136H529.855V62H525.639ZM548.605 38.7273V62H544.389V38.7273H548.605ZM573.091 46.5795H568.841C568.72 45.8826 568.496 45.2652 568.17 44.7273C567.845 44.1818 567.439 43.7197 566.955 43.3409C566.47 42.9621 565.917 42.678 565.295 42.4886C564.682 42.2917 564.019 42.1932 563.307 42.1932C562.042 42.1932 560.92 42.5114 559.943 43.1477C558.966 43.7765 558.201 44.7008 557.648 45.9205C557.095 47.1326 556.818 48.6136 556.818 50.3636C556.818 52.1439 557.095 53.6439 557.648 54.8636C558.208 56.0758 558.973 56.9924 559.943 57.6136C560.92 58.2273 562.038 58.5341 563.295 58.5341C563.992 58.5341 564.644 58.4432 565.25 58.2614C565.864 58.072 566.413 57.7955 566.898 57.4318C567.39 57.0682 567.803 56.6212 568.136 56.0909C568.477 55.5606 568.712 54.9545 568.841 54.2727L573.091 54.2955C572.932 55.4015 572.587 56.4394 572.057 57.4091C571.534 58.3788 570.848 59.2348 570 59.9773C569.152 60.7121 568.159 61.2879 567.023 61.7045C565.886 62.1136 564.625 62.3182 563.239 62.3182C561.193 62.3182 559.367 61.8447 557.761 60.8977C556.155 59.9508 554.89 58.5833 553.966 56.7955C553.042 55.0076 552.58 52.8636 552.58 50.3636C552.58 47.8561 553.045 45.7121 553.977 43.9318C554.909 42.1439 556.178 40.7765 557.784 39.8295C559.39 38.8826 561.208 38.4091 563.239 38.4091C564.534 38.4091 565.739 38.5909 566.852 38.9545C567.966 39.3182 568.958 39.8523 569.83 40.5568C570.701 41.2538 571.417 42.1098 571.977 43.125C572.545 44.1326 572.917 45.2841 573.091 46.5795ZM579.659 62H575.159L583.352 38.7273H588.557L596.761 62H592.261L586.045 43.5H585.864L579.659 62ZM579.807 52.875H592.08V56.2614H579.807V52.875ZM595.991 42.2614V38.7273H614.56V42.2614H607.366V62H603.185V42.2614H595.991ZM622.355 38.7273V62H618.139V38.7273H622.355ZM647.716 50.3636C647.716 52.8712 647.246 55.0189 646.307 56.8068C645.375 58.5871 644.102 59.9508 642.489 60.8977C640.883 61.8447 639.061 62.3182 637.023 62.3182C634.985 62.3182 633.159 61.8447 631.545 60.8977C629.939 59.9432 628.667 58.5758 627.727 56.7955C626.795 55.0076 626.33 52.8636 626.33 50.3636C626.33 47.8561 626.795 45.7121 627.727 43.9318C628.667 42.1439 629.939 40.7765 631.545 39.8295C633.159 38.8826 634.985 38.4091 637.023 38.4091C639.061 38.4091 640.883 38.8826 642.489 39.8295C644.102 40.7765 645.375 42.1439 646.307 43.9318C647.246 45.7121 647.716 47.8561 647.716 50.3636ZM643.477 50.3636C643.477 48.5985 643.201 47.1098 642.648 45.8977C642.102 44.678 641.345 43.7576 640.375 43.1364C639.405 42.5076 638.288 42.1932 637.023 42.1932C635.758 42.1932 634.64 42.5076 633.67 43.1364C632.701 43.7576 631.939 44.678 631.386 45.8977C630.841 47.1098 630.568 48.5985 630.568 50.3636C630.568 52.1288 630.841 53.6212 631.386 54.8409C631.939 56.053 632.701 56.9735 633.67 57.6023C634.64 58.2235 635.758 58.5341 637.023 58.5341C638.288 58.5341 639.405 58.2235 640.375 57.6023C641.345 56.9735 642.102 56.053 642.648 54.8409C643.201 53.6212 643.477 52.1288 643.477 50.3636ZM670.827 38.7273V62H667.077L656.111 46.1477H655.918V62H651.702V38.7273H655.474L666.429 54.5909H666.634V38.7273H670.827ZM682.58 50.3636C682.58 53.197 682.201 55.8068 681.443 58.1932C680.693 60.572 679.572 62.7727 678.08 64.7955H674.205C674.788 64.0455 675.326 63.1288 675.818 62.0455C676.318 60.9621 676.75 59.7727 677.114 58.4773C677.485 57.1818 677.773 55.8409 677.977 54.4545C678.189 53.0682 678.295 51.7045 678.295 50.3636C678.295 48.5682 678.114 46.75 677.75 44.9091C677.394 43.0682 676.905 41.3598 676.284 39.7841C675.67 38.2083 674.977 36.9205 674.205 35.9205H678.08C679.572 37.9432 680.693 40.1477 681.443 42.5341C682.201 44.9129 682.58 47.5227 682.58 50.3636Z" fill="#FBFBFB"/>
<path d="M708.693 48.6705V52.0568H698.216V48.6705H708.693ZM724.128 62H719.628L727.821 38.7273H733.026L741.23 62H736.73L730.514 43.5H730.332L724.128 62ZM724.276 52.875H736.548V56.2614H724.276V52.875ZM750.06 62.3068C748.688 62.3068 747.461 61.9545 746.378 61.25C745.295 60.5455 744.438 59.5227 743.81 58.1818C743.181 56.8409 742.866 55.2121 742.866 53.2955C742.866 51.3561 743.185 49.7197 743.821 48.3864C744.465 47.0455 745.332 46.0341 746.423 45.3523C747.514 44.6629 748.73 44.3182 750.071 44.3182C751.094 44.3182 751.935 44.4924 752.594 44.8409C753.253 45.1818 753.776 45.5947 754.162 46.0795C754.548 46.5568 754.848 47.0076 755.06 47.4318H755.23V38.7273H759.355V62H755.31V59.25H755.06C754.848 59.6742 754.541 60.125 754.139 60.6023C753.738 61.072 753.207 61.4735 752.548 61.8068C751.889 62.1402 751.06 62.3068 750.06 62.3068ZM751.207 58.9318C752.079 58.9318 752.821 58.697 753.435 58.2273C754.048 57.75 754.514 57.0871 754.832 56.2386C755.151 55.3902 755.31 54.4015 755.31 53.2727C755.31 52.1439 755.151 51.1629 754.832 50.3295C754.522 49.4962 754.06 48.8485 753.446 48.3864C752.84 47.9242 752.094 47.6932 751.207 47.6932C750.291 47.6932 749.526 47.9318 748.912 48.4091C748.298 48.8864 747.836 49.5455 747.526 50.3864C747.215 51.2273 747.06 52.1894 747.06 53.2727C747.06 54.3636 747.215 55.3371 747.526 56.1932C747.844 57.0417 748.31 57.7121 748.923 58.2045C749.545 58.6894 750.306 58.9318 751.207 58.9318ZM770.216 62.3068C768.845 62.3068 767.617 61.9545 766.534 61.25C765.451 60.5455 764.595 59.5227 763.966 58.1818C763.337 56.8409 763.023 55.2121 763.023 53.2955C763.023 51.3561 763.341 49.7197 763.977 48.3864C764.621 47.0455 765.489 46.0341 766.58 45.3523C767.67 44.6629 768.886 44.3182 770.227 44.3182C771.25 44.3182 772.091 44.4924 772.75 44.8409C773.409 45.1818 773.932 45.5947 774.318 46.0795C774.705 46.5568 775.004 47.0076 775.216 47.4318H775.386V38.7273H779.511V62H775.466V59.25H775.216C775.004 59.6742 774.697 60.125 774.295 60.6023C773.894 61.072 773.364 61.4735 772.705 61.8068C772.045 62.1402 771.216 62.3068 770.216 62.3068ZM771.364 58.9318C772.235 58.9318 772.977 58.697 773.591 58.2273C774.205 57.75 774.67 57.0871 774.989 56.2386C775.307 55.3902 775.466 54.4015 775.466 53.2727C775.466 52.1439 775.307 51.1629 774.989 50.3295C774.678 49.4962 774.216 48.8485 773.602 48.3864C772.996 47.9242 772.25 47.6932 771.364 47.6932C770.447 47.6932 769.682 47.9318 769.068 48.4091C768.455 48.8864 767.992 49.5455 767.682 50.3864C767.371 51.2273 767.216 52.1894 767.216 53.2727C767.216 54.3636 767.371 55.3371 767.682 56.1932C768 57.0417 768.466 57.7121 769.08 58.2045C769.701 58.6894 770.462 58.9318 771.364 58.9318ZM792.014 62V38.7273H800.741C802.529 38.7273 804.029 39.0606 805.241 39.7273C806.461 40.3939 807.382 41.3106 808.003 42.4773C808.632 43.6364 808.946 44.9545 808.946 46.4318C808.946 47.9242 808.632 49.25 808.003 50.4091C807.374 51.5682 806.446 52.4811 805.219 53.1477C803.991 53.8068 802.48 54.1364 800.685 54.1364H794.901V50.6705H800.116C801.162 50.6705 802.018 50.4886 802.685 50.125C803.351 49.7614 803.844 49.2614 804.162 48.625C804.488 47.9886 804.651 47.2576 804.651 46.4318C804.651 45.6061 804.488 44.8788 804.162 44.25C803.844 43.6212 803.348 43.1326 802.673 42.7841C802.007 42.428 801.147 42.25 800.094 42.25H796.23V62H792.014ZM816.54 51.7727V62H812.426V38.7273H816.449V47.5114H816.653C817.063 46.5265 817.695 45.75 818.551 45.1818C819.415 44.6061 820.513 44.3182 821.847 44.3182C823.059 44.3182 824.116 44.572 825.017 45.0795C825.919 45.5871 826.616 46.3295 827.108 47.3068C827.608 48.2841 827.858 49.4773 827.858 50.8864V62H823.744V51.5227C823.744 50.3485 823.441 49.4356 822.835 48.7841C822.237 48.125 821.396 47.7955 820.312 47.7955C819.585 47.7955 818.934 47.9545 818.358 48.2727C817.79 48.5833 817.343 49.0341 817.017 49.625C816.699 50.2159 816.54 50.9318 816.54 51.7727ZM839.665 62.3409C837.96 62.3409 836.483 61.9659 835.233 61.2159C833.983 60.4659 833.013 59.4167 832.324 58.0682C831.642 56.7197 831.301 55.1439 831.301 53.3409C831.301 51.5379 831.642 49.9583 832.324 48.6023C833.013 47.2462 833.983 46.1932 835.233 45.4432C836.483 44.6932 837.96 44.3182 839.665 44.3182C841.369 44.3182 842.847 44.6932 844.097 45.4432C845.347 46.1932 846.313 47.2462 846.994 48.6023C847.684 49.9583 848.028 51.5379 848.028 53.3409C848.028 55.1439 847.684 56.7197 846.994 58.0682C846.313 59.4167 845.347 60.4659 844.097 61.2159C842.847 61.9659 841.369 62.3409 839.665 62.3409ZM839.688 59.0455C840.612 59.0455 841.384 58.7917 842.006 58.2841C842.627 57.7689 843.089 57.0795 843.392 56.2159C843.703 55.3523 843.858 54.3902 843.858 53.3295C843.858 52.2614 843.703 51.2955 843.392 50.4318C843.089 49.5606 842.627 48.8674 842.006 48.3523C841.384 47.8371 840.612 47.5795 839.688 47.5795C838.741 47.5795 837.953 47.8371 837.324 48.3523C836.703 48.8674 836.237 49.5606 835.926 50.4318C835.623 51.2955 835.472 52.2614 835.472 53.3295C835.472 54.3902 835.623 55.3523 835.926 56.2159C836.237 57.0795 836.703 57.7689 837.324 58.2841C837.953 58.7917 838.741 59.0455 839.688 59.0455ZM855.634 51.7727V62H851.52V44.5455H855.452V47.5114H855.656C856.058 46.5341 856.698 45.7576 857.577 45.1818C858.463 44.6061 859.558 44.3182 860.861 44.3182C862.065 44.3182 863.115 44.5758 864.009 45.0909C864.91 45.6061 865.607 46.3523 866.099 47.3295C866.599 48.3068 866.846 49.4924 866.838 50.8864V62H862.724V51.5227C862.724 50.3561 862.421 49.4432 861.815 48.7841C861.217 48.125 860.387 47.7955 859.327 47.7955C858.607 47.7955 857.967 47.9545 857.406 48.2727C856.853 48.5833 856.418 49.0341 856.099 49.625C855.789 50.2159 855.634 50.9318 855.634 51.7727ZM878.747 62.3409C876.997 62.3409 875.486 61.9773 874.213 61.25C872.948 60.5152 871.974 59.4773 871.293 58.1364C870.611 56.7879 870.27 55.2008 870.27 53.375C870.27 51.5795 870.611 50.0038 871.293 48.6477C871.982 47.2841 872.944 46.2235 874.179 45.4659C875.414 44.7008 876.865 44.3182 878.531 44.3182C879.607 44.3182 880.622 44.4924 881.577 44.8409C882.539 45.1818 883.387 45.7121 884.122 46.4318C884.865 47.1515 885.448 48.0682 885.872 49.1818C886.296 50.2879 886.509 51.6061 886.509 53.1364V54.3977H872.202V51.625H882.565C882.558 50.8371 882.387 50.1364 882.054 49.5227C881.721 48.9015 881.255 48.4129 880.656 48.0568C880.065 47.7008 879.376 47.5227 878.588 47.5227C877.747 47.5227 877.009 47.7273 876.372 48.1364C875.736 48.5379 875.24 49.0682 874.884 49.7273C874.535 50.3788 874.357 51.0947 874.349 51.875V54.2955C874.349 55.3106 874.535 56.1818 874.906 56.9091C875.277 57.6288 875.796 58.1818 876.463 58.5682C877.13 58.947 877.91 59.1364 878.804 59.1364C879.402 59.1364 879.944 59.053 880.429 58.8864C880.914 58.7121 881.334 58.4583 881.69 58.125C882.046 57.7917 882.315 57.3788 882.497 56.8864L886.338 57.3182C886.096 58.3333 885.634 59.2197 884.952 59.9773C884.277 60.7273 883.414 61.3106 882.361 61.7273C881.308 62.1364 880.103 62.3409 878.747 62.3409ZM917.233 38.7273V62H913.483L902.517 46.1477H902.324V62H898.108V38.7273H901.881L912.835 54.5909H913.04V38.7273H917.233ZM932.77 54.6591V44.5455H936.884V62H932.895V58.8977H932.713C932.319 59.875 931.671 60.6742 930.77 61.2955C929.876 61.9167 928.774 62.2273 927.463 62.2273C926.319 62.2273 925.308 61.9735 924.429 61.4659C923.558 60.9508 922.876 60.2045 922.384 59.2273C921.891 58.2424 921.645 57.053 921.645 55.6591V44.5455H925.759V55.0227C925.759 56.1288 926.062 57.0076 926.668 57.6591C927.274 58.3106 928.069 58.6364 929.054 58.6364C929.66 58.6364 930.247 58.4886 930.815 58.1932C931.384 57.8977 931.849 57.4583 932.213 56.875C932.584 56.2841 932.77 55.5455 932.77 54.6591ZM941.114 62V44.5455H945.045V47.5114H945.25C945.614 46.5114 946.216 45.7311 947.057 45.1705C947.898 44.6023 948.902 44.3182 950.068 44.3182C951.25 44.3182 952.246 44.6061 953.057 45.1818C953.875 45.75 954.451 46.5265 954.784 47.5114H954.966C955.352 46.5417 956.004 45.7689 956.92 45.1932C957.845 44.6098 958.939 44.3182 960.205 44.3182C961.811 44.3182 963.121 44.8258 964.136 45.8409C965.152 46.8561 965.659 48.3371 965.659 50.2841V62H961.534V50.9205C961.534 49.8371 961.246 49.0455 960.67 48.5455C960.095 48.0379 959.39 47.7841 958.557 47.7841C957.564 47.7841 956.788 48.0947 956.227 48.7159C955.674 49.3295 955.398 50.1288 955.398 51.1136V62H951.364V50.75C951.364 49.8485 951.091 49.1288 950.545 48.5909C950.008 48.053 949.303 47.7841 948.432 47.7841C947.841 47.7841 947.303 47.9356 946.818 48.2386C946.333 48.5341 945.947 48.9545 945.659 49.5C945.371 50.0379 945.227 50.6667 945.227 51.3864V62H941.114ZM970.014 62V38.7273H974.128V47.4318H974.298C974.51 47.0076 974.81 46.5568 975.196 46.0795C975.582 45.5947 976.105 45.1818 976.764 44.8409C977.423 44.4924 978.264 44.3182 979.287 44.3182C980.635 44.3182 981.851 44.6629 982.935 45.3523C984.026 46.0341 984.889 47.0455 985.526 48.3864C986.17 49.7197 986.491 51.3561 986.491 53.2955C986.491 55.2121 986.177 56.8409 985.548 58.1818C984.92 59.5227 984.063 60.5455 982.98 61.25C981.897 61.9545 980.67 62.3068 979.298 62.3068C978.298 62.3068 977.469 62.1402 976.81 61.8068C976.151 61.4735 975.62 61.072 975.219 60.6023C974.825 60.125 974.518 59.6742 974.298 59.25H974.06V62H970.014ZM974.048 53.2727C974.048 54.4015 974.207 55.3902 974.526 56.2386C974.851 57.0871 975.317 57.75 975.923 58.2273C976.537 58.697 977.279 58.9318 978.151 58.9318C979.06 58.9318 979.821 58.6894 980.435 58.2045C981.048 57.7121 981.51 57.0417 981.821 56.1932C982.139 55.3371 982.298 54.3636 982.298 53.2727C982.298 52.1894 982.143 51.2273 981.832 50.3864C981.522 49.5455 981.06 48.8864 980.446 48.4091C979.832 47.9318 979.067 47.6932 978.151 47.6932C977.272 47.6932 976.526 47.9242 975.912 48.3864C975.298 48.8485 974.832 49.4962 974.514 50.3295C974.204 51.1629 974.048 52.1439 974.048 53.2727ZM997.716 62.3409C995.966 62.3409 994.455 61.9773 993.182 61.25C991.917 60.5152 990.943 59.4773 990.261 58.1364C989.58 56.7879 989.239 55.2008 989.239 53.375C989.239 51.5795 989.58 50.0038 990.261 48.6477C990.951 47.2841 991.913 46.2235 993.148 45.4659C994.383 44.7008 995.833 44.3182 997.5 44.3182C998.576 44.3182 999.591 44.4924 1000.55 44.8409C1001.51 45.1818 1002.36 45.7121 1003.09 46.4318C1003.83 47.1515 1004.42 48.0682 1004.84 49.1818C1005.27 50.2879 1005.48 51.6061 1005.48 53.1364V54.3977H991.17V51.625H1001.53C1001.53 50.8371 1001.36 50.1364 1001.02 49.5227C1000.69 48.9015 1000.22 48.4129 999.625 48.0568C999.034 47.7008 998.345 47.5227 997.557 47.5227C996.716 47.5227 995.977 47.7273 995.341 48.1364C994.705 48.5379 994.208 49.0682 993.852 49.7273C993.504 50.3788 993.326 51.0947 993.318 51.875V54.2955C993.318 55.3106 993.504 56.1818 993.875 56.9091C994.246 57.6288 994.765 58.1818 995.432 58.5682C996.098 58.947 996.879 59.1364 997.773 59.1364C998.371 59.1364 998.913 59.053 999.398 58.8864C999.883 58.7121 1000.3 58.4583 1000.66 58.125C1001.02 57.7917 1001.28 57.3788 1001.47 56.8864L1005.31 57.3182C1005.06 58.3333 1004.6 59.2197 1003.92 59.9773C1003.25 60.7273 1002.38 61.3106 1001.33 61.7273C1000.28 62.1364 999.072 62.3409 997.716 62.3409ZM1008.96 62V44.5455H1012.95V47.4545H1013.13C1013.45 46.447 1013.99 45.6705 1014.76 45.125C1015.54 44.572 1016.43 44.2955 1017.43 44.2955C1017.66 44.2955 1017.92 44.3068 1018.2 44.3295C1018.48 44.3447 1018.72 44.3712 1018.91 44.4091V48.1932C1018.74 48.1326 1018.46 48.0795 1018.08 48.0341C1017.71 47.9811 1017.35 47.9545 1017 47.9545C1016.25 47.9545 1015.58 48.1174 1014.98 48.4432C1014.39 48.7614 1013.92 49.2045 1013.58 49.7727C1013.24 50.3409 1013.07 50.9962 1013.07 51.7386V62H1008.96Z" fill="#FBFBFB"/>
</svg>
